<svg width="1200" height="1391" xmlns="http://www.w3.org/2000/svg" xmlns:svg="http://www.w3.org/2000/svg">
 <defs>
  <clipPath id="clip0_109_517">
   <rect fill="white" height="1540.9" id="svg_1" transform="translate(1615.9 620.456) rotate(150)" width="1540.9"/>
  </clipPath>
 </defs>
 <g class="layer">
  <title>Layer 1</title>
  <mask height="2105" id="mask0_109_517" maskUnits="userSpaceOnUse" width="2105" x="-489" y="-714">
   <path d="m-489,56.45l1334.46,-770.45l770.44,1334.46l-1334.45,770.44l-770.45,-1334.45z" fill="white" id="svg_3"/>
  </mask>
  <g id="svg_4" mask="url(#mask0_109_517)">
   <g id="svg_5" opacity="0.3">
    <path clip-rule="evenodd" d="m-975.25,652.83c-5.76,-6.29 -5.51,-16.03 0.69,-21.93c1.31,-1.23 2.72,-2.16 4.25,-2.81l-66.48,-194.35c-4.98,0.93 -10.32,-0.62 -14.01,-4.54c-5.9,-6.2 -5.52,-16.03 0.69,-21.93c4.64,-4.28 11.34,-5.3 16.88,-2.8l191.5,-302.55c-0.44,-0.34 -0.83,-0.71 -1.17,-1.1c-5.9,-6.21 -5.52,-16.03 0.68,-21.93c6.29,-5.76 16.03,-5.52 21.93,0.69c0.74,0.87 1.37,1.76 1.88,2.65l183.1,-77.96c-1.29,-5.31 0.16,-11.12 4.41,-15.17c6.28,-5.77 16.02,-5.52 21.79,0.76c2.49,2.47 3.79,5.64 4.18,8.79l218.5,8.01c0.5,-3.13 2.05,-5.99 4.6,-8.35c2.74,-2.65 6.04,-4.02 9.48,-4.23l43.97,-514.33c-2.87,-0.65 -5.6,-2.28 -7.8,-4.57c-5.76,-6.28 -5.52,-16.03 0.76,-21.79c6.21,-5.89 16.03,-5.52 21.92,0.69c1.48,1.63 2.49,3.37 3.3,5.39l611.58,-121.97c-4.1,-6.17 -3.3,-14.64 2.26,-19.81c6.2,-5.89 16.03,-5.52 21.92,0.69c0.3,0.3 0.62,0.65 0.96,1.05l200.23,-112.4c-2.21,-5.67 -0.88,-12.3 3.82,-16.8c5.69,-5.24 14.31,-5.41 20.18,-0.79l212.03,-198.57c-4.31,-6.23 -3.51,-14.7 2.11,-20.08c3.33,-3.17 7.74,-4.47 12.04,-4.11l54.53,-223.28c-1.92,-0.86 -3.64,-1.99 -5.33,-3.69c-5.76,-6.28 -5.52,-16.03 0.76,-21.79c6.21,-5.89 16.03,-5.52 21.93,0.69c5.24,5.69 5.41,14.31 0.66,20.25l337.07,351.46c6.23,-4.31 14.83,-3.59 20.21,2.03c5.9,6.2 5.52,16.03 -0.69,21.92c-2.22,2 -4.97,3.41 -7.7,3.92l8.57,233.65c3.61,0.4 7.02,1.99 9.67,4.73c5.77,6.29 5.52,16.03 -0.68,21.93c-6.21,5.89 -16.03,5.52 -21.93,-0.69c-1.63,-1.9 -2.79,-3.9 -3.54,-6.14l-191.6,27.18c-0.1,4.14 -1.64,8.24 -4.92,11.2c-3.33,3.17 -7.87,4.55 -12.18,4.18l-44.87,158.64c1.57,0.88 3.01,1.83 4.33,3.2c5.76,6.28 5.52,16.03 -0.68,21.92c-6.29,5.76 -16.03,5.52 -21.93,-0.68c0,0 -0.02,-0.05 -0.08,-0.14l1.43,1.85l-393.32,318.18c3.54,6.14 2.64,14.13 -2.78,19.22c-2.69,2.44 -5.99,3.81 -9.35,4.15l-14.39,211.15c2.95,0.79 5.73,2.21 8.01,4.62c5.9,6.21 5.52,16.04 -0.76,21.8c-6.2,5.89 -16.03,5.52 -21.79,-0.77c-2.13,-2.15 -3.33,-4.84 -3.84,-7.57l-319.4,14.14c-0.49,3.48 -2,7.02 -4.95,9.61c-6.2,5.9 -16.03,5.52 -21.79,-0.76c-2.21,-2.29 -3.56,-5.24 -4.01,-8.18l-195.81,0.77c-0.43,3.27 -2.09,6.55 -4.7,9.12c-6.28,5.76 -16.03,5.52 -21.79,-0.76c-0.49,-0.43 -0.88,-0.92 -1.19,-1.45l-320.1,162.39c1.7,5.42 0.28,11.58 -4.24,15.79c-3.32,3.17 -7.52,4.53 -11.83,4.16l-59.73,238.93c2.13,0.91 4.06,2.1 5.62,3.87c5.89,6.21 5.52,16.03 -0.69,21.93c-6.01,5.61 -15.55,5.42 -21.35,-0.31l-246.72,152.05c1.79,5.55 0.44,11.85 -4.07,16.05c-6.21,5.9 -16.03,5.52 -21.93,-0.68c-4.28,-4.64 -5.23,-11.22 -2.86,-16.67l-173.65,-136.21c-6.29,5.76 -15.98,5.31 -21.8,-0.76zm221,132.53c0.45,0.57 0.9,1.15 1.35,1.72l222.68,-137.29l23.23,-14.3c-0.46,-0.8 -0.83,-1.65 -1.12,-2.56l-289.17,8.25l29.9,139.31c4.74,-0.42 9.52,1.09 13.13,4.87zm1257.08,-871.49c1.37,-1.33 3.03,-2.46 4.92,-3.2l-49.13,-215.75l17.74,205.76l24.91,14.8c0.47,-0.63 0.99,-1.16 1.56,-1.61zm424.04,-342.33l-17.05,-144.78l-107.39,34.96c0.63,3.55 -0.18,7.4 -2.19,10.7l120.5,101.77c1.93,-1.29 3.87,-2.24 6.13,-2.65zm267.9,-215.52c2.15,-2.13 4.97,-3.4 7.7,-3.91l-8.65,-233.79c-1.9,-0.21 -3.7,-0.77 -5.41,-1.68l-125.88,175.52l130.16,66.13c0.6,-0.82 1.29,-1.58 2.08,-2.27zm-2010.98,735.26c-0.25,3.88 -1.89,7.5 -4.77,10.22c-2.68,2.44 -5.85,3.74 -9.13,4.21l-14.59,296.48c0.8,0.14 1.57,0.35 2.32,0.62l176.06,-322.81l-149.89,11.28zm307.72,532.98l-327.19,-197.2c-0.43,0.48 -0.86,0.97 -1.29,1.46c-1.64,1.48 -3.37,2.48 -5.26,3.21l44.05,204.81l289.38,-8.19c-0.08,-1.38 0.02,-2.74 0.31,-4.09zm-354.42,-204.61l-44.51,0.25l-48.63,205.47l99.55,-195.54c-0.9,-0.55 -1.71,-1.21 -2.4,-2c-2.28,-2.42 -3.56,-5.24 -4.01,-8.18zm0,-4.63c0.42,-3.27 2.09,-6.54 4.7,-9.12c2.55,-2.36 5.85,-3.73 9,-4.13l14.11,-287.13l-71.21,300.71l43.4,-0.33zm33.98,-27.44l123.61,-169.58l98.02,-134.71c-0.1,-0.17 -0.25,-0.33 -0.44,-0.45c-1.92,-2.1 -3.18,-4.58 -3.74,-7.1l-49.28,3.72l-168.17,308.12zm217.1,-316.44c0.12,-3.81 1.76,-7.42 4.77,-10.23c1.09,-0.98 2.29,-1.79 3.58,-2.42l-14.18,-43.06c-2.73,0.51 -5.37,0.26 -8.05,-0.69l-32.51,59.87l46.39,-3.47zm2.09,-59.57c-1.04,1.08 -2.21,1.93 -3.51,2.56l14.11,42.92c4.98,-0.92 10.19,0.7 13.87,4.62c1.23,1.31 2.19,2.77 2.89,4.39l195.82,-54.7c-0.06,-0.08 -0.06,-0.2 -0.03,-0.34l-218.41,-7.88c-0.72,3.08 -2.19,6.07 -4.74,8.43zm760.23,155.54l53.89,-135.02l-186.19,-87.34c-0.72,1.01 -1.49,1.93 -2.32,2.76c-0.35,0.21 -0.68,0.46 -0.99,0.75l126.4,219.54c3.03,-1.22 6.13,-1.4 9.21,-0.69zm1029.78,-1066.41l-311.9,-89.66l18.3,178.39c4.02,0.17 7.77,1.74 10.65,4.89c0.99,1.09 1.8,2.28 2.43,3.58l280.6,-92.44c-0.33,-1.59 -0.35,-3.18 -0.08,-4.76zm-344.34,-356.33l-54.52,223.29c1.91,0.85 3.85,2.04 5.33,3.68c3.32,3.6 4.7,8.14 4.07,12.6l72.43,20.99l-26.75,-260.52c-0.14,-0.04 -0.33,-0.05 -0.56,-0.04zm-52.73,457.83l87.46,1.1c0.41,-3.61 1.99,-7.02 4.74,-9.67c0.6,-0.59 1.22,-1.06 1.84,-1.42l-97.06,-195.55c-0.68,0.27 -1.36,0.42 -2.04,0.47l5.06,205.07zm-226.75,1.74c-0.33,2.5 -1.35,5.05 -3.16,7.16l225.26,240.39c1.93,-1.29 3.95,-2.1 6.2,-2.51l-6.04,-242.23l-222.26,-2.81zm-238.26,139.87c-0.73,0.18 -1.44,0.3 -2.13,0.34l-12.31,303.18l135.12,10.6c0.67,-2.53 2.11,-4.96 4.21,-6.88c0.7,-0.64 1.42,-1.24 2.17,-1.79l-100.6,-241.73l-26.46,-63.72zm-674.74,660.37l246.68,-47.95l-31.25,-257.21c-2.21,-0.14 -4.45,-0.63 -6.52,-1.75l-212.86,301c0.25,0.22 0.46,0.39 0.65,0.51c1.48,1.64 2.56,3.51 3.3,5.4zm796.67,-334.52c-1.23,-2.14 -1.8,-4.66 -1.88,-7.28l-134.7,-10.48l-5.41,131.76c4.26,-0.32 8.47,0.81 11.75,3.72l130.24,-117.72zm346.06,-676.47c-0.52,0.54 -1.09,0.99 -1.71,1.35l97.06,195.55c0.18,-0.11 0.43,-0.19 0.75,-0.26l-18.41,-180.11l-74.25,-21.36c-0.72,1.84 -1.93,3.43 -3.44,4.83zm-916.23,701.58c-0.3,0.29 -0.61,0.59 -0.91,0.88l127.66,221.12l2.93,5.07c3.64,-1.39 7.5,-1.48 11.1,-0.18l92.2,-168.53l-229.41,-63.27c-0.79,1.7 -2.07,3.51 -3.57,4.91zm144.71,229.07c0.68,0.56 1.31,1.14 1.9,1.75c0.64,0.7 1.24,1.42 1.79,2.17l64.29,-29.47l203.06,-92.69c-0.32,-0.76 -0.57,-1.5 -0.75,-2.23l-177.53,-48.92l-92.76,169.39zm269.71,-125.47c0.06,-1.34 0.3,-2.67 0.73,-3.98l-61.46,-79.64l-48.15,-62.76c-3.87,2.23 -8.48,2.58 -12.63,1.24l-53.07,97.01l174.58,48.13zm-101.53,-156.14c-0.68,2.52 -1.91,5.02 -3.79,6.99l48.44,62.95l59.75,77.6c0.59,-0.82 1.24,-1.55 1.94,-2.18c1.31,-1.23 2.77,-2.2 4.38,-2.89l5.39,-133.35l-116.11,-9.12zm-188.07,282.6c0.3,-0.3 0.61,-0.59 0.91,-0.89l-130.59,-226.19c-0.59,0.22 -1.13,0.41 -1.62,0.58l31.09,256.95l95.33,-18.56c-0.19,-4.34 1.47,-8.86 4.88,-11.89zm-120.01,-239.6l230.54,63.69l53.42,-97.93c-0.77,-0.5 -1.5,-1.15 -2.19,-1.93c-1.55,-1.78 -2.71,-3.78 -3.39,-5.88l-278.35,40.25c-0.01,0.6 -0.02,1.2 -0.03,1.8zm308.5,-47.51l115.9,9.06l12.39,-303.05c-0.51,-0.06 -1.04,-0.17 -1.6,-0.32l-133.2,282.41c0.81,0.59 1.64,1.3 2.47,2.13c2.52,2.82 3.97,6.25 4.04,9.77zm605.97,-189.01c0.45,-0.03 0.94,-0.01 1.45,0.05l87.84,-230.6c-1.38,-0.75 -2.58,-1.71 -3.62,-2.89c-2.13,-2.15 -3.33,-4.84 -3.84,-7.57l-87.67,-1.16l5.84,242.17zm-346.34,224.51l-130.11,117.64c2.81,4.25 3.12,9.41 1.32,14.01l157.52,92.85l-18.87,-220.05c-3.67,-0.2 -7.21,-1.71 -9.86,-4.45zm-131.18,135.52c-0.38,0.57 -0.85,1.08 -1.42,1.53c-0.44,0.49 -0.87,0.86 -1.32,1.12l182.69,340.77c0.58,-0.22 1.15,-0.37 1.7,-0.45l-21.27,-248.56l-160.38,-94.41zm-23.43,0.71l-268.23,122.49c0.93,2.84 0.9,5.88 0.04,8.69l185.97,87.28l85.93,-215.43c-1.38,-0.75 -2.57,-1.67 -3.55,-2.76c-0.05,-0.09 -0.11,-0.18 -0.16,-0.27zm-297.62,131.98l-95.68,18.59l25.16,207.52c0.92,-0.05 1.84,0.01 2.78,0.18l75.15,-217.76c-1.52,-0.78 -2.89,-1.83 -4.12,-3.13c-1.48,-1.64 -2.56,-3.51 -3.29,-5.4zm-80.69,230.38c1.7,-1.69 3.57,-2.77 5.67,-3.44l-25.16,-207.53l-246.34,47.92c0.2,2.2 -0.29,4.44 -1.06,6.49l264.95,158.75c0.6,-0.82 1.25,-1.55 1.94,-2.19zm-274.28,-176.14l212.85,-301c-0.19,-0.12 -0.41,-0.3 -0.65,-0.51c-5.4,-5.96 -5.45,-15 -0.28,-20.83l-164.25,-195.73c-2.19,1.44 -4.63,2.14 -7.17,2.36l-43.89,514.46c1.21,0.25 2.34,0.67 3.39,1.25zm51.16,-520.97l164.24,195.73c5.93,-3.61 13.77,-2.97 18.76,1.98l121.04,-93.91l-302.01,-106.75c-0.58,1.04 -1.26,2.03 -2.03,2.95zm185.85,201.4c0.56,0.98 1.01,1.96 1.35,2.96l278.21,-40.17c-0.01,-1.06 0.11,-2.08 0.37,-3.06l-156.59,-55.5l-123.34,95.77zm281.4,-44.5c0.7,-1.47 1.7,-2.82 3,-4.05c4.33,-3.92 10.27,-5.03 15.34,-3.34l133.2,-282.41c-0.39,-0.25 -0.7,-0.48 -0.94,-0.7l-304.43,236.08l153.83,54.42zm170.7,-291.43c-0.82,0.83 -1.68,1.51 -2.57,2.02l108.01,259.51l19.05,45.94c1.31,-0.4 2.61,-0.62 3.9,-0.65l50.23,-261.55l-175.18,-50.1c-0.72,1.84 -1.94,3.43 -3.44,4.83zm132.85,307.45c2.66,0.6 5.09,2.04 7.01,4.13l308.24,-181.7c-1.04,-2.42 -1.42,-5.23 -1.08,-7.73l-263.9,-75.57l-50.27,260.87zm315.35,-189.72c0.53,-1.14 1.23,-2.19 2.09,-3.17l-225.26,-240.39c-2.78,1.97 -6.18,2.86 -9.43,2.78l-31.72,165.1l264.32,75.68zm-216.74,-258.3l222.04,2.76l-4.9,-204.81c-2.72,-0.39 -5.48,-1.47 -7.72,-3.2l-212.03,198.57c1.5,1.98 2.33,4.35 2.61,6.68zm284.64,-455.25l26.78,262.11l313.58,90.11c0.5,-1 1.1,-2 1.82,-3.01l-337.14,-351.59c-1.5,1.11 -3.18,1.9 -5.04,2.38zm343.69,369.69c-0.19,-0.12 -0.38,-0.25 -0.57,-0.38c-1.04,-1.18 -1.88,-2.42 -2.51,-3.71l-280.52,92.57c0.49,2.38 0.23,5.02 -0.52,7.41l157.86,80.21l126.26,-176.1zm-286.23,99.96c-0.59,0.81 -1.26,1.61 -1.99,2.39c-0.09,0.06 -0.18,0.11 -0.27,0.16l81.6,167.83c4.04,-1.63 8.69,-1.28 12.67,0.69l65.28,-91.25l-157.29,-79.82zm74.28,173.65c0.4,-0.35 0.75,-0.67 1.05,-0.96l-81.44,-167.56c-0.76,0.32 -1.59,0.62 -2.5,0.91l23.79,200.84l54.85,-17.79c-1.49,-5.36 -0.2,-11.45 4.25,-15.44zm-87.41,-167.14c-0.6,-0.01 -1.23,-0.06 -1.88,-0.16l-88.74,230.59c1.38,0.74 2.58,1.71 3.62,2.89c1.13,1.13 2.01,2.34 2.64,3.64l108.21,-35.08l-23.85,-201.88zm29.05,365.6c0.02,-3.04 1.08,-6.14 3,-8.67l-120.21,-101.59c-6.23,5.55 -15.71,5.15 -21.39,-0.99c-0.3,-0.31 -0.52,-0.59 -0.68,-0.86l-81.01,47.67l-226.83,133.8c0.12,0.41 0.3,0.83 0.56,1.28l446.56,-70.64zm-415.61,333.18l-22.12,-13.03l19.8,230.91l13.38,-196.86c-2.94,-0.79 -5.72,-2.21 -8.01,-4.63c-4.2,-4.51 -5.07,-10.95 -3.05,-16.39zm-12.67,236.31c0.48,-0.39 0.92,-0.77 1.31,-1.11l-182.69,-340.77c-2.76,1.06 -5.86,1.25 -8.73,0.59l-85.98,215.65l273.77,128.41c0.72,-1.02 1.49,-1.94 2.32,-2.77zm-4.22,6.88l-273.55,-128.34l-53.84,134.81c1.33,0.65 2.52,1.57 3.55,2.75c2,2.23 3.33,4.84 3.92,7.71l319.4,-14.13c0.04,-0.97 0.21,-1.9 0.52,-2.8zm-345.63,8.46c0.31,-0.29 0.63,-0.54 0.99,-0.75l-126.53,-219.46c-2.76,1.06 -5.65,1.3 -8.44,0.78l-75.16,217.76c1.63,0.66 3.22,1.88 4.55,3.25c2.28,2.42 3.56,5.24 4.08,8.32l195.81,-0.78c0.43,-3.27 1.96,-6.47 4.7,-9.12zm-230.68,7.56c0.09,-0.05 0.16,-0.14 0.19,-0.28l-265.24,-158.95c-0.38,0.58 -0.86,1.09 -1.43,1.54c-3,2.8 -6.78,4.27 -10.59,4.15l-14.37,90.68l291.44,62.86zm-281.6,-154.3c-2.53,-0.68 -4.83,-2.2 -6.67,-4.16c-1.23,-1.3 -2.16,-2.72 -2.81,-4.25l-195.89,54.56c0.11,1.01 0.14,2 0.11,2.97l190.87,41.21l14.39,-90.33zm-206.02,53.65c-0.91,2.12 -2.24,4.14 -3.94,5.83c-0.35,0.2 -0.64,0.43 -0.85,0.67l121.22,204.73l33.11,55.8c1.88,-0.74 3.93,-1.21 6.07,-1.2l35.47,-224.56l-191.08,-41.27zm144.68,270.01c0.35,-0.21 0.68,-0.46 0.99,-0.75l-32.41,-54.6l-121.85,-205.79c-0.31,0.06 -0.61,0.17 -0.87,0.33l52.41,285.55l96.96,-13.27c-0.11,-4.2 1.57,-8.38 4.77,-11.47zm-158.65,-259.99c-2.62,0.09 -5.28,-0.51 -7.63,-1.82l-74.43,102.22l-158.68,217.94c0.1,0.18 0.25,0.33 0.44,0.46c1.77,1.83 2.87,4.04 3.49,6.35l289.15,-39.73l-52.34,-285.42zm-236.2,329.6c0.05,1.93 -0.46,3.82 -1.18,5.66l326.69,196.95c0.71,-1.23 1.61,-2.35 2.7,-3.33c1.31,-1.23 2.77,-2.2 4.38,-2.89l-43.3,-236.19l-289.29,39.8zm-14.47,15.29c-1.94,0.05 -4.02,-0.17 -5.78,-0.75l-101.08,198.74c0.29,0.3 0.59,0.61 0.88,0.91c2.57,2.61 3.87,5.78 4.07,9.22l145.7,-4.05l-43.79,-204.07zm-119.24,194.11c1.64,-0.24 3.25,-0.22 4.83,0.05l49.02,-206.94l-112.21,0.73c-0.34,3.41 -2.01,6.68 -4.7,9.12c-1.09,0.99 -2.21,1.81 -3.37,2.48l66.43,194.56zm-63.54,-220.07c0.35,0.39 0.74,0.76 1.17,1.1c2.15,2.5 3.43,5.32 3.88,8.26l113.45,-0.73l73.57,-310.8c-0.19,-0.12 -0.35,-0.2 -0.49,-0.24l-191.58,302.41zm212.79,-320.53c0.05,0.09 0.08,0.25 0.1,0.48l152.82,-11.73l34.09,-62.38c-0.68,-0.56 -1.31,-1.14 -1.9,-1.75c-0.78,-0.74 -1.43,-1.55 -1.94,-2.44l-183.17,77.82zm507.25,-622.56c0.03,1.29 -0.08,2.54 -0.33,3.75l304.91,107.75l298.75,-231.73l-603.33,120.23zm638.08,-140.47c0.83,2.37 1.26,4.96 0.93,7.47l174.63,50.06l31.73,-164.76c-2.25,-0.83 -4.4,-2.08 -6.11,-4.12c-0.3,-0.3 -0.61,-0.65 -0.96,-1.04l-200.22,112.39zm861.14,43.72c-0.01,-1.66 0.27,-3.24 0.82,-4.75l-130.74,-66.5l-65.87,91.77c0.24,0.21 0.46,0.38 0.65,0.51c1.63,1.9 2.79,3.91 3.41,6.22l191.73,-27.25zm-212.42,45.95c-1.92,-0.85 -3.72,-2.12 -5.2,-3.76c-0.73,-0.64 -1.32,-1.37 -1.79,-2.17l-56.2,18.22l17.18,145.94c0.37,0.03 0.77,0.09 1.19,0.21l44.82,-158.44zm-60.01,182.68c-1.15,-1.59 -1.97,-3.31 -2.44,-5.17l-446.01,70.68c0.4,4.39 -1.32,9.12 -4.78,12.37c-1.5,1.4 -3.16,2.53 -4.92,3.19l52.99,232.92c4.05,-0.38 8.28,1.09 11.56,4l393.45,-318.26l0.15,0.27zm-1011.47,592.7c-0.57,-1.81 -0.84,-3.61 -0.81,-5.41l-291.65,-62.92l-35.34,224.49c2.39,0.75 4.62,2.13 6.46,4.1c0.5,0.65 0.98,1.27 1.42,1.84l319.92,-162.1zm-338.33,185.37c-2.05,-0.78 -4.06,-2.1 -5.75,-3.8c-1.56,-1.77 -2.71,-3.77 -3.47,-6l-96.75,13.33l43.14,235.58c1,-0.11 1.99,-0.14 2.96,-0.11l59.87,-239zm-343.77,411.09c1.4,-1.28 2.86,-2.24 4.39,-2.88l-30.12,-140.61l-146.86,4.19c-0.37,1.63 -1.01,3.19 -1.93,4.67l173.29,135.88c0.34,-0.43 0.75,-0.85 1.23,-1.25z" fill="#41B3B3" fill-rule="evenodd" id="svg_6"/>
   </g>
   <g id="svg_7" opacity="0.1">
    <path clip-rule="evenodd" d="m1212.26,-364.06l47.48,156.21c4.42,-0.06 8.63,2.31 10.68,6.47c2.75,5.7 0.34,12.61 -5.36,15.37c-4.11,1.84 -8.77,1.15 -12.11,-1.55l-170.96,129.49c2.42,5.72 -0.02,12.28 -5.46,14.89c-5.7,2.76 -12.61,0.34 -15.37,-5.36c-0.71,-1.55 -1.16,-3.24 -1.05,-4.91l-180.93,-22.76c-0.92,3.03 -2.97,5.63 -6.06,7.06c-4.03,1.97 -8.69,1.28 -11.96,-1.28l-197.69,177.48c0.21,0.36 0.41,0.71 0.62,1.07c2.76,5.7 0.34,12.61 -5.36,15.37c-2.43,1.04 -5.1,1.34 -7.55,0.8l-52.72,134.88c1.86,1.06 3.55,2.76 4.51,5.04c2.68,5.57 0.4,12.41 -5.3,15.17c-2.61,1.33 -5.44,1.36 -7.97,0.68l-95.17,216.68c1.72,1.14 3.34,2.7 4.28,4.65c2.63,5.78 0.34,12.61 -5.36,15.37c-5.78,2.62 -12.61,0.34 -15.37,-5.36c-0.96,-2.29 -1.24,-4.62 -0.89,-6.78l-149.63,-46.52c-1.04,2.2 -2.92,4.18 -5.27,5.35c-5.03,2.38 -10.72,0.85 -14,-3.3l-324.82,186.29l-0.84,-1.47c0,0 0.02,0.04 0.07,0.13c2.68,5.57 0.27,12.48 -5.43,15.24c-5.71,2.76 -12.62,0.34 -15.24,-5.44c-0.58,-1.2 -0.95,-2.47 -1.13,-3.8l-121.57,-11.48c-0.84,3.16 -2.89,5.77 -6.04,7.41c-2.96,1.35 -6.13,1.4 -9.02,0.4l-70.03,124.95c1.31,1.02 2.42,2.34 3.21,4.01c2.76,5.71 0.48,12.54 -5.22,15.3c-5.71,2.76 -12.62,0.34 -15.37,-5.36c-1.12,-2.56 -1.37,-5.44 -0.69,-7.97l-158.88,-68.4c-1.14,1.72 -2.78,3.2 -4.86,4.23c-5.7,2.75 -12.4,0.4 -15.16,-5.31c-2.53,-5.3 -0.76,-11.48 3.89,-14.52l-152.29,-326.65c-5.34,1.84 -11.35,-0.56 -13.88,-5.86c-2.76,-5.7 -0.27,-12.48 5.44,-15.24c5.7,-2.76 12.47,-0.26 15.16,5.31c0.84,1.46 1.08,3.11 1.24,4.62l168.6,22.05c0.92,-3.03 2.97,-5.64 6.06,-7.07c5.23,-2.65 11.27,-0.81 14.45,3.76l193.71,-93.15c-1.63,-5.29 0.85,-11.17 6.02,-13.62c4.29,-2.12 9.24,-1.25 12.6,1.8l131.03,-108.04c-0.2,-0.35 -0.34,-0.69 -0.4,-1.01c-2.76,-5.7 -0.48,-12.53 5.22,-15.29c5.17,-2.45 11.14,-0.74 14.32,3.83l247.72,-389.45c-1.16,-0.99 -2.11,-2.22 -2.84,-3.7c-2.76,-5.7 -0.27,-12.47 5.43,-15.23c5.71,-2.76 12.54,-0.48 15.16,5.3c1.03,2.08 1.44,4.33 1.09,6.49l366.73,107.29c1.04,-2.2 2.85,-4.31 5.4,-5.43c2.21,-1.1 4.75,-1.32 7.13,-0.91l52.81,-152.91c-2.07,-1.12 -3.83,-2.94 -4.93,-5.15c-2.76,-5.71 -0.35,-12.62 5.36,-15.38c3.89,-1.89 8.34,-1.26 11.66,1.1l102.61,-105.5c-0.5,-0.66 -0.89,-1.33 -1.16,-2c-2.76,-5.71 -0.34,-12.62 5.36,-15.38c5.57,-2.68 12.48,-0.26 15.24,5.44c0.2,0.36 0.36,0.74 0.48,1.15l259.88,-51.29c-0.14,-4.55 2.23,-8.77 6.52,-10.89c5.71,-2.76 12.62,-0.34 15.37,5.36c1.74,3.62 1.3,7.79 -0.65,10.88l116.33,97.95c0.91,-0.88 1.9,-1.63 2.97,-2.25c5.78,-2.62 12.62,-0.34 15.37,5.36c2.63,5.78 0.27,12.48 -5.22,15.29zm37.7,162.39l-88.12,-58.02l-83,197.39c0.48,0.43 0.95,0.93 1.4,1.5l16.04,-12.28l154.39,-116.9c-0.31,-0.53 -0.6,-1.02 -0.85,-1.46c-1.58,-3.36 -1.47,-7.16 0.14,-10.23zm-936.19,643.89l-3.56,-21.26l-137.12,-67.08l135.76,91.53c0.9,-1.11 2.04,-2.01 3.43,-2.69c0.49,-0.17 0.99,-0.33 1.49,-0.5zm-347.64,198.21l-38.1,-110.37c-2.74,0.51 -5.53,-0.02 -7.88,-1.32l-52.74,64.6l95.2,50.55c0.95,-1.44 2.05,-2.61 3.52,-3.46zm-221.68,129.77l-10.8,-107.46l-154.87,39.95c0.23,1.41 0.15,2.82 -0.22,4.22l158.88,68.41c1.14,-1.73 2.77,-3.2 4.85,-4.23c0.71,-0.41 1.43,-0.71 2.16,-0.89zm995.12,-1089.45l269.89,-35.19c0.01,-0.6 0.06,-1.22 0.16,-1.87l-208.5,-69.29c-1.18,2.28 -2.93,4.18 -5.35,5.22c-2.61,1.33 -5.57,1.44 -8.18,0.63l-48.02,100.5zm336.2,255.34l83.07,-197.6l-129.51,-85.01c-1.04,1.08 -2.25,1.96 -3.64,2.64c-0.44,0.25 -0.87,0.44 -1.28,0.56l48.55,278.54c1.02,0.12 1.96,0.41 2.81,0.87zm-44.64,-295.21c0.27,0.67 0.5,1.37 0.68,2.1l161.6,-16.26l-154.89,-21.42l-12.04,30.61c1.94,1.2 3.55,2.76 4.65,4.97zm4.12,-36.01l-226.59,-31.27l201.88,67.07c1.05,-2.21 2.87,-3.97 5.22,-5.15c2.48,-1.25 5.23,-1.42 7.54,-0.8l11.95,-29.85zm-297.33,79.5l-15.83,32.98c1.73,1.14 3.13,2.64 4,4.45c0.1,0.18 0.13,0.34 0.1,0.48l119.25,-31.66l150.11,-39.87l-257.63,33.62zm-3.97,0.51l-50.14,6.53c0.12,2.07 -0.52,4.04 -1.52,5.68l25.86,21.37c0.73,-0.78 1.61,-1.41 2.64,-1.88c2.69,-1.2 5.58,-1.44 8.39,-0.58l14.77,-31.12zm-63.7,17.56l-52.89,152.78c0.05,0.09 0.07,0.13 0.07,0.13l90.18,-120.56c-0.92,-0.78 -1.67,-1.77 -2.25,-2.98c-1.74,-3.62 -1.43,-7.71 0.52,-10.8l-25.86,-21.36c-0.78,0.69 -1.67,1.32 -2.64,1.88c-2.29,0.97 -4.76,1.32 -7.13,0.91zm-86.02,558.9l-117.56,-146c-0.22,0.24 -0.53,0.42 -0.94,0.54c-0.71,0.41 -1.5,0.69 -2.36,0.83l10.42,151.81l107.64,-0.94c0.27,-2.3 1.18,-4.42 2.8,-6.24zm-1010.85,432.91l138.77,-168.91c-0.7,-0.79 -1.28,-1.69 -1.76,-2.72c-1.4,-2.75 -1.45,-5.92 -0.51,-8.6l-118.21,-60.21l-21.42,239.04c1.13,0.3 2.17,0.76 3.13,1.4zm-157.14,-333.81l172.56,88.08l4.95,-55.52c-3.16,-0.85 -6.06,-3.09 -7.69,-6.24c-0.72,-1.54 -0.96,-3.18 -0.98,-4.77l-168.73,-21.97c-0.04,0.14 -0.08,0.28 -0.11,0.42zm189.96,27.32c-0.25,0.39 -0.55,0.8 -0.89,1.23l109.05,119.24c0.4,-0.35 0.84,-0.61 1.34,-0.77c2.61,-1.33 5.5,-1.58 8.1,-0.77l22.59,-60.72l-140.19,-58.21zm144.36,56.51l165.54,68.83c0.95,-1.44 1.98,-2.74 3.44,-3.59l-105.69,-219.75c-1.89,0.74 -3.82,0.79 -5.72,0.28l-57.57,154.23zm254.56,-245.72l140.04,134.08c0.49,-0.4 1.06,-0.73 1.74,-1c1.94,-0.94 3.85,-1.34 5.94,-1.12l28.81,-96.17l-212.49,-72.5c-0.2,0.47 -0.47,0.93 -0.82,1.36l36.78,35.35zm596.39,-327.95c-0.02,-0.23 -0.08,-0.44 -0.18,-0.61l-264.49,66.4c0.1,1.72 0,3.39 -0.67,5.01l169.17,90.23l99.01,-157.34c-1.09,-0.97 -2,-2.23 -2.84,-3.69zm-324.91,405.54c-1.22,-3.03 -0.79,-6.3 0.63,-9.08l-92.4,-31.53l-28.83,95.83c1.76,0.58 3.27,1.67 4.54,3.25l116.06,-58.47zm-679.58,117.28l-5.22,56.93l119.42,60.76c0.13,-0.19 0.28,-0.34 0.46,-0.44l-109.05,-119.24c-0.4,0.34 -0.84,0.6 -1.34,0.77c-1.47,0.73 -2.9,1.14 -4.27,1.22zm728.91,-444.5l-17.73,175.17l141.03,-18.61c0.04,-2.7 1.12,-5.45 3.14,-7.51l-2.82,-3.35l-118.34,-147.33c-0.27,0.16 -0.53,0.31 -0.8,0.47c-1.47,0.73 -2.97,1.12 -4.48,1.16zm-18,178.71l-13.61,135.44c0.43,0.34 0.85,0.75 1.24,1.23l118.31,-115.28l37.57,-36.63c-0.4,-0.48 -0.73,-1.06 -1,-1.73c-0.31,-0.54 -0.53,-1.12 -0.66,-1.76l-141.85,18.73zm-3.49,0.42l-81.16,10.74c-0.09,3.25 -1.56,6.24 -4.06,8.39l30.35,50.09l38.47,63.55c1.02,0.12 2.02,0.32 3,0.58l13.4,-133.35zm-118.84,104.19l93.53,31.95c0.91,-0.89 1.97,-1.62 3.18,-2.2c0.62,-0.36 1.25,-0.6 1.89,-0.73l-37.55,-61.95l-30.5,-50.36c-1.89,0.73 -3.87,0.99 -5.82,0.69l-24.73,82.6zm279.53,-136.83l38.31,-60.91l-168.95,-90.16c-0.26,0.38 -0.49,0.69 -0.71,0.94l121.03,150.75c0.26,-0.15 0.53,-0.31 0.8,-0.46c3.14,-1.64 6.6,-1.5 9.52,-0.16zm-143.87,-147.17l-102.27,181.28c1.3,1.02 2.42,2.34 3.13,3.88c0.36,0.63 0.63,1.3 0.82,2.03l81.85,-10.79l17.73,-176.06c-0.42,-0.12 -0.84,-0.23 -1.26,-0.34zm-119.73,195.1c-0.33,-0.77 -0.58,-1.51 -0.76,-2.24l-230.56,16.4c-0.02,0.37 -0.09,0.76 -0.2,1.18l212.36,72.58l24.8,-82.46c-2.41,-1.1 -4.39,-2.98 -5.64,-5.46zm-452.29,304.18l-22.72,60.8c1.73,1.14 3.26,2.57 4.28,4.65c0.48,1.03 0.78,2.16 0.9,3.4l182.72,0.9c0.07,-0.28 0.12,-0.6 0.15,-0.97l-165.33,-68.78zm413.39,-102.2l146.75,72.03l-21.83,-133.65c-3.65,0.15 -7.14,-1.57 -9.39,-4.55l-115.79,58.32c0.98,2.63 1.15,5.38 0.26,7.85zm150.44,73.81l165.73,81.18c0.25,-0.38 0.53,-0.72 0.83,-1.01l-186.24,-217.19c-0.36,0.2 -0.74,0.36 -1.15,0.48c-0.44,0.26 -0.91,0.47 -1.41,0.64l22.24,135.9zm-15.52,-151.7c0.47,1.03 0.83,2.07 1.08,3.11l171.45,-1.66l-10.34,-151.67c-2.22,-0.15 -4.27,-0.92 -6.07,-2.19l-156.2,152.28c0,0 0.03,0.04 0.08,0.13zm173.43,-166.5c0.58,1.21 0.93,2.43 1.05,3.66l170.42,6.41c0.09,-0.65 0.31,-1.3 0.64,-1.97l-136.58,-72.92l-38.38,61.13c1.1,0.96 2.13,2.15 2.85,3.69zm179.65,1.44l-38.58,-225.23c-1.59,0.03 -3.33,-0.21 -4.82,-0.95l-98.96,157.13l136.5,72.78c0.97,-1.09 2.29,-2.21 3.83,-2.92c0.63,-0.36 1.3,-0.63 2.03,-0.81zm-50.2,-238.27l-366.61,-107.36c-0.79,1.7 -2.01,3.29 -3.45,4.48l90.98,165.61c5.48,-1.92 11.76,0.33 14.36,5.77c0.02,0.23 0.08,0.43 0.18,0.61l264.49,-66.41c-0.05,-0.92 -0.04,-1.82 0.05,-2.7zm-375.6,-100.75l-7.1,237.01l97.08,-58.36c-2.09,-4.85 -0.49,-10.4 3.61,-13.47l-91.07,-165.75c-0.9,0.29 -1.74,0.48 -2.52,0.57zm-7.27,241.02l-3.68,122.76c0.79,0.14 1.52,0.37 2.18,0.7l102.27,-181.28c-0.63,-0.47 -1.24,-1.01 -1.83,-1.62l-98.94,59.44zm-3.47,2.01l-244.34,146.93c0.16,0.27 0.27,0.56 0.33,0.88l230.35,-16.45c0.31,-4.09 2.64,-7.75 6.53,-9.64c1.21,-0.58 2.43,-0.93 3.67,-1.05l3.46,-120.67zm-254.71,161.64l-12.3,134.32l193.96,35.16c0.31,-0.89 0.79,-1.7 1.44,-2.43l-26.66,-25.53l-150.16,-143.9c-0.57,0.45 -1.21,0.88 -1.92,1.29c-1.39,0.68 -2.84,1.04 -4.36,1.09zm-12.51,137.65l-18.58,202.35c1.9,0.51 3.68,1.43 5.14,2.73l207.82,-163.94c-0.94,-1.94 -1.28,-4.06 -0.98,-6.01l-193.4,-35.13zm-3.43,-0.69l-122.42,-22.2c-0.83,2.26 -2.29,4.35 -4.48,5.79l105.62,219.61c0.9,-0.28 1.81,-0.45 2.73,-0.51l18.55,-202.69zm-142.69,-19.4l-193.71,93.16c0.6,1.96 0.59,4.11 0.16,6.13l139.98,58.15l57.51,-154.02c-1.5,-0.74 -2.95,-2.03 -3.94,-3.42zm-389.32,81.01l152.5,326.7c0.81,-0.23 1.65,-0.42 2.52,-0.56l21.67,-240.44l-173.76,-88.63c-0.76,1.15 -1.74,2.13 -2.93,2.93zm321.56,293.16l-13.22,-130.45c-1.8,-0.03 -3.69,-0.54 -5.34,-1.54l-138.85,168.77c0.7,0.79 1.32,1.67 1.89,2.65c0.1,0.18 0.16,0.38 0.17,0.61l155.35,-40.04zm3.39,-0.9l80.36,-20.77c-0.4,-3.15 0.71,-6.46 2.92,-8.8l-94.03,-101.23c-0.09,0.06 -0.18,0.11 -0.26,0.16c-0.68,0.27 -1.38,0.49 -2.1,0.68l13.11,129.96zm98.66,-30.98l27.01,-33.03l-132.26,-70.07c-0.44,0.48 -0.87,0.97 -1.3,1.46l93.74,101.03c0.36,-0.21 0.67,-0.39 0.93,-0.54c4.03,-1.97 8.49,-1.34 11.88,1.15zm29.06,-35.64l53.17,-65.39c-0.69,-0.79 -1.28,-1.7 -1.75,-2.73c-0.53,-1.12 -0.87,-2.22 -1.03,-3.32l-182.83,-0.49c-0.06,0.52 -0.2,1.01 -0.4,1.48l132.84,70.45zm279.92,-241.86c-0.24,-0.21 -0.49,-0.43 -0.73,-0.64l-153.05,120.74l-54.51,43.04c0.16,0.27 0.26,0.56 0.33,0.88c2.68,5.57 0.46,12.19 -5.04,15l38.09,110.04c2.17,-0.55 4.53,-0.48 6.71,0.22l168.2,-289.28zm183.31,98.08c1.1,2.21 1.37,4.54 1.02,6.7l139.51,43.47l-154.06,-75.46l3.06,18.87c4.42,-0.06 8.5,2.39 10.47,6.42zm158.5,47.09l-15.41,-223.3l-171.79,1.68c-0.36,2.16 -1.26,4.29 -2.61,5.96l186.11,217.26c0.44,-0.25 0.84,-0.48 1.2,-0.69c0.85,-0.37 1.68,-0.68 2.5,-0.91zm5.47,0.22l95.03,-216.6c-1.72,-1.14 -3.2,-2.78 -4.15,-4.72c-0.47,-1.03 -0.79,-2.1 -0.95,-3.19l-107.42,0.99l15.32,223.17c0.74,0.05 1.46,0.17 2.17,0.35zm103.79,-237.49l52.86,-134.96c-1.99,-0.99 -3.55,-2.76 -4.57,-4.84c-0.68,-1.38 -1.07,-2.76 -1.15,-4.14l-170.34,-6.27c-0.43,2.02 -1.28,3.94 -2.84,5.55l117.69,145.92c0.27,-0.16 0.54,-0.31 0.8,-0.46c2.43,-1.05 5.1,-1.35 7.55,-0.8zm93.8,-374.07l-66.31,-14.39c-1.02,2.55 -3.01,4.95 -5.7,6.14c-0.45,0.26 -0.92,0.47 -1.41,0.64l38.73,225.49c0,0 0.04,-0.02 0.13,-0.07l34.56,-217.81zm0.56,-3.35l22.65,-142.6c-0.76,-0.28 -1.42,-0.61 -2,-0.99l-90.04,120.49c0.89,0.91 1.62,1.97 2.2,3.18c0.87,1.81 1.12,3.8 0.96,5.67l66.23,14.25zm3.43,0.69l164.5,35.62c0.47,-1.45 1.26,-2.74 2.39,-3.87l-29.67,-37.85l-108.89,-138.36c-0.18,0.1 -0.4,0.23 -0.67,0.38c-1.68,0.79 -3.38,1.24 -5.04,1.13l-22.62,142.95zm179.5,28.92l35.05,-63.47l-183.06,-112.45c-0.13,0.19 -0.25,0.38 -0.38,0.58l109.35,139.16l29.14,36.91c0.21,-0.24 0.44,-0.37 0.67,-0.38c3.01,-1.56 6.26,-1.48 9.23,-0.35zm36.74,-66.4l104.72,-188.75c-1.38,-1.16 -2.5,-2.47 -3.29,-4.15c-0.1,-0.18 -0.18,-0.31 -0.23,-0.4l-192.85,51.2l-90.45,23.93c0.26,1.99 -0.17,4.01 -0.89,5.85l182.99,112.32zm2.93,1.68l151.39,93.02c0.86,-0.97 1.89,-1.75 3.1,-2.33c0.94,-0.42 1.96,-0.71 3.06,-0.87l-48.45,-278.07c-1.52,0.05 -2.96,-0.19 -4.32,-0.7l-104.78,188.95zm248.13,-110.16l41.87,-99.44c-2.2,-1.04 -4.1,-2.79 -5.35,-5.27c-0.07,-0.32 -0.18,-0.61 -0.33,-0.88l-164.07,16.62c-0.09,1.48 -0.47,2.88 -1.13,4.21l129.01,84.76zm-79.62,-213.09c-0.78,0.69 -1.62,1.29 -2.51,1.8c-2.56,1.12 -5.1,1.34 -7.55,0.8l-30.64,77.29l156,21.5c0.25,-1.21 0.64,-2.38 1.17,-3.52l-116.47,-97.87zm-278.24,46.59c-0.04,0.14 -0.08,0.28 -0.11,0.42l234.17,32.4l30.94,-78c-1.93,-1.19 -3.54,-2.75 -4.64,-4.97c-0.21,-0.35 -0.37,-0.73 -0.49,-1.14l-259.87,51.29zm-120.72,115.42c0.45,0.57 0.83,1.24 1.16,2c0.3,0.54 0.52,1.12 0.65,1.76l52.21,-6.65l48.87,-102.42c-0.05,-0.09 -0.14,-0.15 -0.28,-0.19l-102.61,105.5zm-706.87,462.03l239.87,-144.19l7.12,-239.15c-0.93,-0.17 -1.8,-0.44 -2.6,-0.81l-244.39,384.15zm-154.29,126.62c0.21,0.35 0.39,0.66 0.54,0.93c0.87,1.81 1.18,3.59 1.15,5.38l122.08,22.22l12.32,-133.97c-1.81,-0.38 -3.6,-1.31 -5.05,-2.6l-131.04,108.04zm1.05,372.86c-1.38,-1.16 -2.49,-2.47 -3.28,-4.15c-0.11,-0.18 -0.21,-0.36 -0.31,-0.53l-80.83,20.86l10.89,107.94c1.16,0.16 2.33,0.44 3.51,0.83l70.02,-124.95zm139.78,2.03c-0.01,-0.22 0.02,-0.48 0.09,-0.76l-96.11,-50.91l-27.58,33.9c0.39,0.48 0.77,1.03 1.13,1.65c0.72,1.55 1.09,3.11 1.11,4.7l121.36,11.42zm20.74,-4.14l324.74,-186.42c-1.22,-3.03 -0.93,-6.23 0.28,-9.06l-146.56,-98.83c-0.95,1.03 -2.12,1.88 -3.5,2.56c-3.15,1.64 -6.82,1.45 -9.81,-0.03l-168.01,288.98c1.15,0.76 2.13,1.74 2.94,2.93l-0.08,-0.13zm877.02,-716.48c-0.39,-0.48 -0.75,-0.99 -1.05,-1.53c-0.87,-1.81 -1.13,-3.79 -1.1,-5.59l-164.3,-35.57l-34.61,218.02c1.31,0.43 2.45,1.08 3.43,1.94l197.63,-177.27zm201.87,16.19c0.19,-0.71 0.44,-1.39 0.77,-2.05l-151.09,-92.83l-35,63.27c1.3,1.02 2.41,2.34 3.2,4.02c0.72,1.54 1.17,3.24 1.06,4.9l181.06,22.69zm195.86,-150.45l-47.38,-155.73c-1.24,0.12 -2.44,0.1 -3.6,-0.06l-42.3,100.22l88.9,58.45c0.86,-0.97 1.94,-1.77 3.24,-2.4c0.41,-0.12 0.79,-0.28 1.14,-0.48z" fill="#41B3B3" fill-rule="evenodd" id="svg_8"/>
   </g>
   <path clip-rule="evenodd" d="m-554.65,133.5l13.6,-150.56c-3.67,-1.43 -6.57,-4.92 -6.77,-9.26c-0.35,-5.84 4.05,-10.87 9.89,-11.22c4.13,-0.25 7.93,2.01 9.93,5.48l191.58,-51.54c-0.06,-5.66 4.35,-10.34 9.99,-10.75c5.85,-0.35 10.87,4.04 11.23,9.89c0.1,1.72 -0.09,3.25 -0.69,4.67l147.23,82.42c1.73,-2.24 4.47,-3.65 7.49,-3.97c4.34,-0.19 8.06,1.94 9.93,5.48l231.37,-83.4c-0.12,-0.41 -0.17,-0.8 -0.14,-1.17c-0.35,-5.85 4.04,-10.87 9.88,-11.22c2.55,-0.22 4.8,0.61 6.74,1.8l92.26,-97.21c-1.13,-1.66 -1.94,-3.69 -2.14,-5.88c-0.35,-5.85 4.04,-10.88 9.89,-11.23c2.75,-0.16 5.14,0.59 7.1,2.13l157.07,-152.61c-1.06,-1.52 -1.79,-3.41 -1.91,-5.47c-0.36,-5.85 4.04,-10.88 9.88,-11.23c5.85,-0.35 10.88,4.04 11.23,9.89c0.07,2.27 -0.5,4.38 -1.5,6.03l112.04,92.06c1.64,-1.48 3.93,-2.44 6.47,-2.66c5.03,-0.24 9.36,2.96 10.81,7.63l343.56,-46.58l0.16,1.51c-0.35,-5.84 4.04,-10.87 9.89,-11.22c5.84,-0.35 10.87,4.04 11.22,9.89c0.03,1.28 -0.1,2.49 -0.4,3.61l100.26,52.25c1.73,-2.25 4.54,-3.87 7.76,-4.13c2.97,-0.11 5.72,0.97 7.84,2.78l103.62,-82.78c-0.77,-1.34 -1.35,-2.96 -1.38,-4.55c-0.35,-5.84 4.04,-10.87 9.89,-11.22c5.85,-0.35 10.87,4.04 11.22,9.89c0.09,2.62 -0.66,5.01 -2.2,6.96l112.55,114.2c1.58,-1.27 3.47,-2 5.53,-2.13c5.85,-0.35 10.95,4.18 11.3,10.02c0.25,5.37 -3.47,10.02 -8.59,11.01l16.89,333.12c5.2,0.38 9.38,4.54 9.85,9.97c0.35,5.85 -4.12,10.74 -9.97,11.09c-5.77,0.49 -10.87,-4.04 -11.22,-9.89c-0.16,-1.51 0.1,-2.9 0.71,-4.32l-137.01,-77.66c-1.86,2.32 -4.53,3.87 -7.76,4.13c-5.23,0.17 -9.93,-3.34 -10.93,-8.46l-198.7,12.41c-0.37,5.2 -4.54,9.39 -9.91,9.64c-4.26,0.33 -8.34,-2.12 -10.16,-5.88l-150.09,46.98c0.07,0.32 0.13,0.64 0.2,0.95c0.35,5.85 -4.05,10.88 -9.89,11.23c-5.3,0.39 -9.86,-3.21 -10.99,-8.25l-348.18,247.82c0.67,1.16 1.05,2.54 1.14,4.14c0.36,5.85 -4.11,10.74 -9.88,11.23c-5.85,0.35 -10.95,-4.18 -11.31,-10.03c-0.12,-2.06 0.44,-4.16 1.37,-5.95l-277.04,-219.74c-1.69,1.69 -3.98,2.65 -6.52,2.87c-2.28,0.07 -4.59,-0.55 -6.32,-1.69l-98.65,112.65c1.34,1.72 2.23,3.87 2.51,6.2c0.35,5.85 -4.25,10.82 -10.02,11.31c-4,0.17 -7.64,-1.83 -9.62,-4.95l-124.85,54.64c0.18,0.73 0.3,1.44 0.34,2.12c0.35,5.85 -4.04,10.88 -9.89,11.23c-5.85,0.35 -10.88,-4.04 -11.23,-9.89c0.03,-0.37 0.05,-0.74 0.07,-1.11l-240.97,-46.63c-1.28,3.94 -4.84,6.71 -9.23,7.11c-5.85,0.35 -10.95,-4.17 -11.3,-10.02c-0.16,-3.65 1.57,-7.14 4.35,-9.1l-65.67,-124.53c-1.03,0.48 -2.16,0.77 -3.4,0.89c-5.85,0.35 -10.74,-4.11 -11.22,-9.89c-0.36,-5.84 4.04,-10.87 9.81,-11.35zm24.13,-152.36l55.5,80.41l139.92,-140.4c-0.3,-0.53 -0.57,-1.09 -0.79,-1.68l-18,4.88l-173.1,46.57c0.16,0.49 0.26,0.97 0.29,1.43c0.2,3.44 -1.33,6.64 -3.82,8.79zm1027.27,-226.03l-4.29,19.38l94.22,105.56l-84.47,-125.96c-1.21,0.58 -2.5,0.91 -3.87,0.99c-0.55,0.08 -1.08,0.09 -1.59,0.03zm367.17,-48.83l-5.68,107.9c2.45,0.54 4.68,1.93 6.25,4.04l67.84,-37.21l-64.1,-76.51c-1.26,0.91 -2.67,1.55 -4.31,1.78zm235.43,-34.15l-28.07,95.92l146.57,19.64c0.38,-1.17 0.94,-2.26 1.66,-3.27l-112.41,-114.27c-1.58,1.27 -3.47,2 -5.53,2.12c-0.69,0.04 -1.43,0 -2.22,-0.14zm-1233.04,587.7l-243.66,-63.94c-0.24,0.62 -0.49,1.11 -0.74,1.5l154.56,132.11c1.77,-1.56 3.92,-2.45 6.33,-2.59c2.75,-0.17 5.36,0.64 7.39,2.31l76.12,-69.39zm-199.52,-336.03l-139.93,140.39l81.37,118.14c1.21,-0.58 2.55,-0.93 4.01,-1.07c0.46,-0.03 0.92,-0.05 1.38,-0.08l55.34,-255.78c-0.72,-0.42 -1.44,-0.95 -2.17,-1.6zm-64.44,268.69c-0.04,-0.69 -0.04,-1.4 0.01,-2.14l-144.2,-42.36l125.36,72.27l20.98,-21.9c-1.13,-1.65 -1.95,-3.68 -2.15,-5.87zm-16.11,29.41l183.36,105.87l-149.69,-127.98c-1.77,1.55 -3.92,2.44 -6.33,2.59c-2.54,0.22 -4.94,-0.54 -6.82,-1.94l-20.52,21.46zm282.76,35.49l25.07,-22.83c-1.06,-1.53 -1.72,-3.28 -1.77,-5.22c-0.1,-0.17 -0.13,-0.33 -0.1,-0.47l-113.24,-14.33l-142.55,-18.23l232.59,61.08zm3.57,0.96l45.11,11.86c0.79,-1.71 2.08,-3.16 3.4,-4.28l-14.69,-27.28c-0.94,0.42 -1.94,0.64 -3,0.66c-2.75,0.16 -5.22,-0.72 -7.25,-2.4l-23.57,21.44zm60.7,7.13l98.65,-112.65c-0.05,-0.09 -0.12,-0.11 -0.21,-0.06l-119.19,71.84c0.48,1.03 0.73,2.19 0.76,3.48c0.29,3.57 -1.44,7.05 -4.14,9.15l14.68,27.28c0.94,-0.42 1.94,-0.64 3,-0.66c2.33,-0.28 4.51,0.42 6.45,1.62zm268.42,-449.45l50.02,166.14c0.31,-0.07 0.61,-0.06 0.89,0.01c0.87,-0.14 1.7,-0.15 2.49,-0.01l43.96,-133.74l-92.71,-36.68c-1.06,1.86 -2.62,3.47 -4.65,4.28zm1017.69,-18.9l-177.78,96.41c0.34,0.99 0.56,1.99 0.66,3c0.17,2.75 -0.91,5.51 -2.58,7.54l80.34,92.93l101.7,-197.68c-0.82,-0.59 -1.6,-1.33 -2.34,-2.2zm18.6,341.02l-117.28,-135.66l-23.69,45.88c2.45,1.79 4.28,4.65 4.41,7.95c0.16,1.51 -0.16,3.12 -0.63,4.46l136.87,77.73c0.13,-0.19 0.23,-0.31 0.32,-0.36zm-153.53,-89.64c0.45,-0.26 0.89,-0.52 1.34,-0.77l-51.98,-140.27c-0.5,0.17 -0.98,0.27 -1.43,0.29c-2.76,0.17 -5.23,-0.72 -7.18,-2.26l-40.5,44.2l99.75,98.81zm-104.29,-98.68l-117.95,-116.77c-1.18,1.04 -2.59,1.68 -4.1,1.84l14.07,225.31c1.8,0.03 3.64,0.75 5.07,1.7l102.91,-112.08zm-304.02,122.15l-73.42,-163.83c-0.58,0.22 -1.17,0.32 -1.77,0.31c-2.07,0.12 -3.88,-0.25 -5.45,-1.12l-58.21,72.39l156.95,136.24c0.31,-0.29 0.68,-0.57 1.13,-0.83l-19.23,-43.16zm-625.82,73.25c0.01,0.23 0.02,0.46 0.04,0.69l250.01,35.18c0.4,-1.47 1.21,-2.83 2.18,-3.92l-113.67,-136.5l-139.71,100.41c0.63,1.3 1.01,2.68 1.15,4.14zm420.08,-234.53c-0.16,3.12 -1.52,5.69 -3.62,7.61l68.17,59.21l58.02,-72.1c-1.18,-1.1 -2.23,-2.63 -2.68,-4.33l-119.89,9.61zm623.62,136.2l24.31,-46.96l-81.22,-93.84c-0.18,0.1 -0.36,0.2 -0.54,0.31l51.91,140.13c0.54,-0.08 1.05,-0.13 1.51,-0.16c1.46,-0.14 2.81,0.04 4.03,0.52zm-780.05,127.24l76.19,-144.16l-127.36,-33.22c-0.89,2.47 -2.85,4.31 -5.19,5.49l1.2,3.93l50.09,167.51c0.32,-0.07 0.6,-0.11 0.82,-0.12c1.52,-0.05 2.93,0.15 4.25,0.57zm77.74,-147.01l58.97,-111.44c-0.26,-0.45 -0.5,-0.96 -0.72,-1.55l-141.71,57.8l-44.81,18.22c0.13,0.64 0.19,1.25 0.18,1.85c0.08,0.55 0.07,1.15 -0.03,1.8l128.12,33.32zm3.16,0.84l73.29,19.08c1.29,-2.71 3.57,-4.91 6.49,-5.71l-8.53,-53.61l-10.91,-67.9c-0.86,-0.45 -1.65,-1 -2.38,-1.65l-57.96,109.79zm138.16,-47.92l-68.97,-59.99c-1.12,0.53 -2.32,0.81 -3.61,0.84c-0.6,-0.01 -1.27,-0.04 -2.01,-0.09l10.68,66.26l8.61,53.74c2,0.09 3.69,0.54 5.26,1.41l50.04,-62.17zm-287.36,20.01l-54.07,38.87l113.53,136.23c0.35,-0.21 0.66,-0.39 0.93,-0.54l-51.3,-171.44c-0.32,0.06 -0.59,0.1 -0.82,0.11c-3.23,0.27 -6.27,-1 -8.27,-3.23zm72.17,176.47l150.82,-119.99c-0.77,-1.33 -1.27,-2.82 -1.3,-4.41c-0.04,-0.69 -0.01,-1.35 0.09,-2l-73.92,-19.25l-76.71,144.82c0.39,0.25 0.73,0.53 1.02,0.83zm170.63,-125.73c0.1,0.77 0.05,1.51 -0.14,2.21l203.42,66.36c0.17,-0.34 0.38,-0.69 0.63,-1.08l-156.95,-136.24l-49.91,62.09c1.77,1.83 2.73,4.12 2.95,6.66zm493.97,-103.18l40.63,-44.27c-1.19,-1.45 -1.93,-3.34 -2.05,-5.4c-0.07,-1.14 0.03,-2.21 0.29,-3.19l-156.17,-64.63c-0.22,0.24 -0.43,0.48 -0.65,0.72l117.95,116.77zm-390.19,-56.38l-100.65,-112.7l-27.74,122.06c3.04,1.27 5.48,3.96 6.3,7.22l119.75,-9.54c-0.08,-2.61 0.8,-5.08 2.34,-7.04zm-103.24,-115.65l-113.89,-127.3c-0.36,0.21 -0.71,0.41 -1.07,0.62l84.11,251.07c0.37,0.02 0.76,-0.02 1.16,-0.14c0.51,0.06 1,0.08 1.46,0.05l28.23,-124.3zm-39.58,135.48c-0.1,-1.01 -0.02,-2 0.24,-2.99l-147.79,-58.43l-43.82,133.65c1.78,0.93 3.31,2.36 4.32,4.09l187,-76.11c0,0 0.02,-0.07 0.05,-0.21zm-206.64,82.47c-0.12,-1.24 -0.03,-2.42 0.27,-3.54l-143.9,-64.95c-0.38,0.57 -0.78,1.1 -1.21,1.59l91.79,109.99l54.2,-38.95c-0.72,-1.24 -1.1,-2.62 -1.15,-4.14zm-153.78,-63.88l-45.31,206.58c1.42,0.61 2.78,1.42 3.82,2.6l139.57,-100.33l-91.66,-110.06c-1.2,0.69 -2.69,1.19 -4.28,1.22c-0.68,0.04 -1.4,0.04 -2.14,-0.01zm-39.91,221.79l277.04,219.75c1.32,-1.12 2.78,-1.96 4.48,-2.41l-20.3,-173.85c-5.47,-0.23 -9.87,-4.45 -10.2,-9.96c-0.01,-0.23 0,-0.41 0.04,-0.55l-250.1,-35.32c-0.22,0.85 -0.54,1.63 -0.96,2.34zm287.18,217.28l88.53,-200.76l-103.61,16.23c0.16,4.89 -3.25,9.17 -7.73,10.34l20.3,173.85c0.83,0 1.67,0.11 2.51,0.34zm90.12,-204.17l45.95,-104.1c-0.67,-0.33 -1.27,-0.75 -1.8,-1.27l-150.77,119.78c0.41,0.71 0.71,1.43 0.89,2.16l105.73,-16.57zm3.77,-0.57l260.78,-40.78c-0.07,-0.32 -0.06,-0.62 0.02,-0.9l-203.35,-66.22c-1.59,3.41 -4.83,5.82 -8.82,5.99c-1.24,0.12 -2.42,0.03 -3.54,-0.27l-45.09,102.18zm274.73,-49.9l57.34,-110.86l-154.02,-97.9c-0.7,0.64 -1.38,1.21 -2.04,1.71l13.88,31.13l78.61,175.6c0.63,-0.13 1.34,-0.24 2.12,-0.33c1.51,-0.05 2.88,0.17 4.11,0.65zm58.76,-113.64l86.41,-167.14c-1.51,-1.08 -2.7,-2.53 -3.49,-4.21l-235.32,68.25c0.12,2.06 -0.39,3.96 -1.26,5.53l153.66,97.57zm2.72,1.63l97.26,61.82c1.48,-1.75 3.48,-2.9 5.79,-3.52l-14.13,-225.11c-0.88,-0.08 -1.7,-0.26 -2.45,-0.54l-86.47,167.35zm115.63,66.52l198.56,-12.34c0.22,-2.08 0.94,-3.92 2.02,-5.43l-99.67,-98.68l-103.11,112.02c1.11,1.32 1.75,2.73 2.2,4.43zm362.11,66l-16.89,-333.11c-0.88,-0.09 -1.69,-0.27 -2.45,-0.55l-102.32,198.75l118.09,136.44c1.07,-0.62 2.26,-1.13 3.57,-1.53zm-173.61,-363.26l-34.1,116.3c1.58,0.87 2.88,1.9 4.07,3.34l177.78,-96.41c-0.34,-0.99 -0.56,-1.99 -0.67,-3c0.04,-0.14 0.05,-0.32 0.04,-0.55l-147.12,-19.68zm-3.06,-0.37l-76.21,-10.27c-0.79,2.95 -2.79,5.35 -5.61,6.62l45.35,119.54c0.09,-0.05 0.21,-0.06 0.35,-0.02c0.68,-0.04 1.35,-0.01 2,0.09l34.12,-115.96zm-95.39,-7.74l-34.62,18.93l89.08,106.21c0.39,-0.35 0.88,-0.63 1.46,-0.85l-45.19,-119.27c-0.32,0.07 -0.66,0.09 -1.03,0.06c-4.13,0.25 -7.77,-1.74 -9.7,-5.08zm-37.43,20.54l-68.44,37.39c0.42,0.94 0.64,1.94 0.66,3c0.07,1.14 -0.03,2.21 -0.29,3.19l156.63,64.19c0.25,-0.38 0.55,-0.79 0.89,-1.23l-89.45,-106.54zm-324.29,109.84c0.07,0.31 0.2,0.65 0.41,1.01l173.22,-50.37l61.89,-17.94c-0.11,-0.18 -0.15,-0.45 -0.12,-0.82c-0.41,-5.64 3.85,-10.58 9.62,-11.07l5.62,-107.69c-2.09,-0.22 -4,-1.07 -5.67,-2.42l-244.97,189.3zm-123.07,-148.15c-0.07,-2.28 0.49,-4.38 1.5,-6.03l-104.43,-85.96l105.76,118.47l3.94,-17.22c-3.68,-1.44 -6.45,-5 -6.77,-9.26zm-119.44,-95.63l-64.61,196.9l147.79,58.44c1.14,-1.72 2.65,-3.13 4.38,-4.13l-83.97,-251.15c-0.32,0.07 -0.71,0.12 -1.17,0.14c-0.82,0.01 -1.63,-0.06 -2.42,-0.2zm-4.68,-1.93l-157.07,152.61c1.27,1.58 1.92,3.34 2.13,5.53c0.01,1.06 -0.11,2.08 -0.37,3.06l92.41,36.5l64.55,-196.69c-0.52,-0.29 -1.07,-0.62 -1.65,-1.01zm-171.65,167.43l-92.39,97.3c1.27,1.58 2.08,3.6 2.28,5.8c0.08,1.37 -0.12,2.67 -0.6,3.9l143.83,64.82c1.14,-1.73 2.72,-3 4.53,-3.86l-50.01,-166.14c-0.32,0.07 -0.62,0.06 -0.9,-0.01c-2.54,0.22 -4.86,-0.4 -6.74,-1.81zm-211,288.19l51.97,35.47c1.75,-1.9 4.23,-3.16 7.12,-3.4c0.46,-0.03 0.92,-0.05 1.37,-0.08l45.37,-206.79c0,0 -0.07,-0.02 -0.21,-0.06l-105.62,174.86zm-1.63,2.72l-69.14,114.47c0.49,0.43 0.96,0.93 1.41,1.5l119.24,-72.05c-0.47,-1.03 -0.7,-2.15 -0.68,-3.34c-0.18,-1.86 0.19,-3.67 0.99,-5.38l-51.82,-35.2zm-2.59,-1.71l-128.63,-87.83c-1.04,1.08 -2.21,1.93 -3.51,2.56l12.36,42.68l45.02,156.56c0.23,-0.01 0.51,-0.05 0.83,-0.11c1.58,-0.03 3.19,0.29 4.74,0.82l69.19,-114.68zm-143.92,-87.18l-52.22,42.07l117.8,160.27c0.17,-0.11 0.35,-0.21 0.53,-0.31l-45.35,-157.44l-12.03,-41.8c-0.23,0.01 -0.51,0.05 -0.83,0.11c-2.96,0.11 -5.92,-1.02 -7.9,-2.9zm-54.66,44.01l-155.67,125.46c0.85,1.47 1.35,2.96 1.46,4.67c0.1,0.18 0.13,0.34 0.09,0.48l183.17,23.25l85.98,10.85c0.45,-1.68 1.46,-3.33 2.69,-4.57l-117.72,-160.14zm-1.81,-2.52l-97.49,-132.49c-1.03,0.47 -2.16,0.77 -3.4,0.89c-1.05,0.02 -2.05,-0.06 -2.98,-0.23l-55.3,255.23c1.28,0.56 2.4,1.28 3.37,2.14l155.8,-125.54zm-251.22,8.04l-70.46,70.57c1.56,1.77 2.45,3.93 2.67,6.47c0.07,0.32 0.06,0.62 -0.01,0.9l146.51,42.98c0.57,-1.28 1.36,-2.38 2.36,-3.32l-81.07,-117.6zm-5.86,210.5c0.9,-0.29 1.86,-0.49 2.86,-0.59c2.41,-0.15 4.8,0.61 6.81,1.94l53.01,-55.51l-126.23,-72.85c-0.63,0.96 -1.34,1.78 -2.12,2.47l65.67,124.54zm254.77,56.98c0.09,-0.05 0.16,-0.15 0.19,-0.29l-189.64,-109.35l-53.51,56.16c1.26,1.58 2.07,3.6 2.14,5.87c0.07,0.32 0.09,0.67 0.06,1.04l240.76,46.57zm143.84,-56.89c-0.22,-0.58 -0.37,-1.26 -0.47,-2.04c0.01,-0.6 0.07,-1.22 0.17,-1.87l-47.13,-12.29l-77.63,70.79c0.05,0.09 0.1,0.18 0.16,0.27l124.9,-54.86zm767.22,-150.08l-255.99,40.14l-89.46,202.54c0.77,0.5 1.45,1.06 2.04,1.67l343.41,-244.35zm176.47,-54.92c-0.06,-0.31 -0.13,-0.63 -0.19,-0.95c0.03,-1.8 0.35,-3.4 1.01,-5.03l-97.1,-61.55l-57.15,110.57c1.51,1.08 2.63,2.4 3.34,3.94l150.09,-46.98zm129.08,-320.06c0.85,1.47 1.35,2.96 1.45,4.68c0.02,0.23 0.01,0.41 -0.03,0.55l76.63,10.38l28.32,-96.41c-1,-0.49 -1.91,-1.15 -2.75,-1.98l-103.62,82.78zm-119.14,-50.42c-0.13,0.19 -0.3,0.41 -0.52,0.65l64.83,77.16l35.43,-19.39c-0.13,-0.64 -0.22,-1.3 -0.26,-1.99c-0.16,-1.51 0.1,-2.9 0.57,-4.24l-100.05,-52.19zm-19.21,-3.68l-343.42,46.5c-0.02,3.04 -1.37,5.95 -3.54,7.74l91.28,135.9c1.21,-0.58 2.5,-0.91 3.87,-0.99c3.44,-0.21 6.49,1.06 8.56,3.42l244.7,-189.14c-0.67,-1.16 -1.13,-2.37 -1.39,-3.64l-0.06,0.21zm-1001.87,308.87c0.08,0.54 0.16,1.09 0.24,1.64c0.18,1.85 -0.19,3.67 -0.93,5.16l128.56,87.69l105.62,-174.85c-0.92,-0.77 -1.67,-1.76 -2.25,-2.97l-231.24,83.33zm-167.34,-83.98c-0.52,0.53 -1.02,1 -1.5,1.4l97.12,132.17l52.09,-41.99c-0.64,-1.42 -1.14,-2.9 -1.24,-4.62c-0.16,-1.51 0.15,-3.12 0.76,-4.54l-147.23,-82.42zm-220.44,60.72l-13.63,150.21c1.12,0.3 2.21,0.75 3.26,1.33l70.97,-71.23l-55.88,-81.07c-1.03,0.47 -2.19,0.73 -3.48,0.76c-0.46,0.03 -0.87,0.03 -1.24,0z" fill="#41B3B3" fill-rule="evenodd" id="svg_9"/>
   <g id="svg_10"/>
  </g>
  <path d="m138.63,74l0.95,-7l0.47,0l2.46,6.01l-0.38,0l2.38,-6.01l0.47,0l1.05,7l-0.72,0l-0.83,-5.61l0.17,0l-2.26,5.66l-0.19,0l-2.33,-5.67l0.22,0l-0.73,5.62l-0.73,0z" fill="#F5F5F5" id="svg_14"/>
  <path d="m149.22,74.08c-0.33,0 -0.63,-0.05 -0.91,-0.16c-0.28,-0.11 -0.52,-0.26 -0.72,-0.45c-0.2,-0.2 -0.36,-0.44 -0.48,-0.72c-0.12,-0.28 -0.17,-0.6 -0.17,-0.95c0,-0.37 0.06,-0.69 0.18,-0.97c0.12,-0.29 0.29,-0.53 0.5,-0.72c0.21,-0.19 0.45,-0.34 0.72,-0.44c0.27,-0.1 0.55,-0.15 0.85,-0.15c0.34,0 0.64,0.06 0.9,0.19c0.26,0.12 0.49,0.28 0.67,0.49c0.18,0.21 0.31,0.44 0.41,0.7c0.09,0.25 0.14,0.52 0.14,0.79l0,0.25l-3.89,0l0,-0.61l3.58,0l-0.41,0.52l0,-0.22c0,-0.21 -0.04,-0.4 -0.11,-0.57c-0.08,-0.18 -0.18,-0.33 -0.31,-0.46c-0.14,-0.13 -0.29,-0.24 -0.47,-0.31c-0.18,-0.08 -0.37,-0.12 -0.58,-0.12c-0.21,0 -0.4,0.04 -0.58,0.12c-0.18,0.07 -0.34,0.18 -0.47,0.32c-0.13,0.14 -0.23,0.31 -0.3,0.51c-0.08,0.19 -0.11,0.41 -0.11,0.66c0,0.25 0.04,0.48 0.12,0.69c0.08,0.2 0.19,0.37 0.33,0.52c0.14,0.14 0.31,0.25 0.51,0.33c0.2,0.07 0.41,0.11 0.64,0.11c0.28,0 0.54,-0.05 0.78,-0.16c0.24,-0.11 0.44,-0.27 0.59,-0.46l0.47,0.43c-0.22,0.29 -0.49,0.5 -0.83,0.64c-0.34,0.13 -0.69,0.2 -1.05,0.2z" fill="#F5F5F5" id="svg_15"/>
  <path d="m152.17,73.5c0.1,-0.17 0.19,-0.36 0.26,-0.55c0.08,-0.2 0.14,-0.42 0.18,-0.66c0.06,-0.24 0.1,-0.5 0.12,-0.78c0.03,-0.29 0.04,-0.6 0.04,-0.94l0,-0.97l3.09,0l0,3.9l-0.72,0l0,-3.51l0.41,0.26l-2.44,0l0.35,-0.26l0,0.86c0,0.27 -0.01,0.52 -0.04,0.77c-0.02,0.24 -0.05,0.47 -0.09,0.69c-0.04,0.22 -0.09,0.43 -0.16,0.63c-0.06,0.2 -0.13,0.4 -0.21,0.59l-0.79,-0.03zm-0.47,1.6l0,-1.75l4.97,0l0,1.75l-0.65,0l0,-1.1l-3.67,0l0,1.1l-0.65,0z" fill="#F5F5F5" id="svg_16"/>
  <path d="m157.57,74l0,-4.4l0.72,0l0,3.52l-0.42,0.05l3.08,-3.57l0.41,0l0,4.4l-0.72,0l0,-3.57l0.43,-0.05l-3.12,3.62l-0.38,0z" fill="#F5F5F5" id="svg_17"/>
  <path d="m165.88,74l-2.11,-2.3l1.77,-2.1l0.77,0l0,0.1l-1.68,1.92l2.08,2.28l0,0.1l-0.83,0zm-2.78,-2.05l0,-0.61l1.04,0l0,0.61l-1.04,0zm-0.24,2.05l0,-4.4l0.72,0l0,4.4l-0.72,0z" fill="#F5F5F5" id="svg_18"/>
  <path d="m169.24,74.08c-0.33,0 -0.62,-0.06 -0.9,-0.17c-0.27,-0.12 -0.51,-0.28 -0.71,-0.49c-0.2,-0.21 -0.36,-0.45 -0.47,-0.73c-0.12,-0.28 -0.17,-0.58 -0.17,-0.91c0,-0.32 0.05,-0.62 0.17,-0.89c0.11,-0.28 0.27,-0.52 0.47,-0.72c0.19,-0.21 0.43,-0.37 0.71,-0.48c0.28,-0.11 0.57,-0.17 0.9,-0.17c0.32,0 0.61,0.06 0.89,0.17c0.27,0.11 0.5,0.27 0.71,0.47c0.19,0.2 0.35,0.44 0.47,0.72c0.11,0.27 0.16,0.57 0.16,0.9c0,0.33 -0.05,0.63 -0.16,0.91c-0.12,0.28 -0.28,0.52 -0.47,0.73c-0.21,0.21 -0.44,0.37 -0.71,0.49c-0.28,0.11 -0.57,0.17 -0.89,0.17zm0,-0.65c0.22,0 0.43,-0.04 0.61,-0.12c0.19,-0.08 0.35,-0.19 0.49,-0.34c0.13,-0.15 0.23,-0.32 0.31,-0.52c0.07,-0.21 0.1,-0.43 0.1,-0.67c0,-0.24 -0.03,-0.46 -0.1,-0.65c-0.08,-0.2 -0.18,-0.37 -0.31,-0.51c-0.14,-0.15 -0.3,-0.26 -0.49,-0.33c-0.18,-0.08 -0.39,-0.12 -0.61,-0.12c-0.23,0 -0.44,0.04 -0.62,0.12c-0.19,0.07 -0.36,0.18 -0.49,0.33c-0.14,0.14 -0.24,0.31 -0.32,0.51c-0.07,0.19 -0.1,0.41 -0.1,0.65c0,0.24 0.03,0.46 0.1,0.67c0.09,0.2 0.19,0.37 0.32,0.52c0.14,0.15 0.3,0.26 0.49,0.34c0.18,0.08 0.39,0.12 0.62,0.12z" fill="#F5F5F5" id="svg_19"/>
  <path d="m175.16,71.33l0,0.65l-2.68,0l0,-0.65l2.68,0z" fill="#F5F5F5" id="svg_20"/>
  <path d="m178.43,74.08c-0.34,0 -0.66,-0.06 -0.95,-0.17c-0.28,-0.12 -0.52,-0.28 -0.72,-0.49c-0.19,-0.21 -0.34,-0.45 -0.45,-0.73c-0.1,-0.28 -0.16,-0.58 -0.16,-0.91c0,-0.35 0.06,-0.67 0.18,-0.95c0.12,-0.28 0.28,-0.52 0.48,-0.71c0.21,-0.19 0.45,-0.34 0.72,-0.44c0.28,-0.11 0.58,-0.16 0.9,-0.16c0.17,0 0.33,0.02 0.49,0.05c0.16,0.03 0.31,0.07 0.45,0.12c0.15,0.05 0.29,0.12 0.41,0.21c0.13,0.08 0.24,0.17 0.34,0.27l-0.42,0.56c-0.14,-0.17 -0.33,-0.31 -0.55,-0.41c-0.22,-0.1 -0.45,-0.15 -0.71,-0.15c-0.21,0 -0.41,0.04 -0.61,0.11c-0.18,0.07 -0.35,0.18 -0.5,0.32c-0.14,0.13 -0.25,0.3 -0.34,0.5c-0.08,0.19 -0.12,0.42 -0.12,0.67c0,0.25 0.04,0.47 0.12,0.68c0.08,0.2 0.2,0.37 0.34,0.52c0.15,0.15 0.32,0.26 0.51,0.34c0.2,0.08 0.42,0.12 0.65,0.12c0.28,0 0.52,-0.05 0.73,-0.15c0.22,-0.11 0.39,-0.24 0.52,-0.41l0.45,0.45c-0.18,0.22 -0.42,0.4 -0.72,0.55c-0.29,0.14 -0.64,0.21 -1.04,0.21z" fill="#F5F5F5" id="svg_21"/>
  <path d="m183.12,74.08c-0.32,0 -0.62,-0.06 -0.89,-0.17c-0.27,-0.12 -0.51,-0.28 -0.72,-0.49c-0.2,-0.21 -0.35,-0.45 -0.47,-0.73c-0.11,-0.28 -0.17,-0.58 -0.17,-0.91c0,-0.32 0.06,-0.62 0.17,-0.89c0.12,-0.28 0.27,-0.52 0.47,-0.72c0.2,-0.21 0.44,-0.37 0.71,-0.48c0.28,-0.11 0.58,-0.17 0.9,-0.17c0.32,0 0.62,0.06 0.89,0.17c0.27,0.11 0.51,0.27 0.71,0.47c0.2,0.2 0.36,0.44 0.47,0.72c0.12,0.27 0.17,0.57 0.17,0.9c0,0.33 -0.05,0.63 -0.17,0.91c-0.11,0.28 -0.27,0.52 -0.47,0.73c-0.2,0.21 -0.44,0.37 -0.71,0.49c-0.27,0.11 -0.57,0.17 -0.89,0.17zm0,-0.65c0.23,0 0.44,-0.04 0.62,-0.12c0.19,-0.08 0.35,-0.19 0.48,-0.34c0.13,-0.15 0.24,-0.32 0.31,-0.52c0.07,-0.21 0.11,-0.43 0.11,-0.67c0,-0.24 -0.04,-0.46 -0.11,-0.65c-0.07,-0.2 -0.18,-0.37 -0.31,-0.51c-0.13,-0.15 -0.29,-0.26 -0.48,-0.33c-0.18,-0.08 -0.39,-0.12 -0.62,-0.12c-0.22,0 -0.43,0.04 -0.62,0.12c-0.19,0.07 -0.35,0.18 -0.49,0.33c-0.13,0.14 -0.23,0.31 -0.31,0.51c-0.07,0.19 -0.11,0.41 -0.11,0.65c0,0.24 0.04,0.46 0.11,0.67c0.08,0.2 0.19,0.37 0.32,0.52c0.14,0.15 0.29,0.26 0.48,0.34c0.19,0.08 0.4,0.12 0.62,0.12z" fill="#F5F5F5" id="svg_22"/>
  <path d="m190.24,75.1l0,-1.1l-3.71,0l0,-4.4l0.72,0l0,3.75l2.11,0l0,-3.75l0.72,0l0,3.75l0.81,0l0,1.75l-0.65,0z" fill="#F5F5F5" id="svg_23"/>
  <path d="m191.8,74l0,-4.4l0.72,0l0,3.52l-0.42,0.05l3.08,-3.57l0.41,0l0,4.4l-0.72,0l0,-3.57l0.43,-0.05l-3.12,3.62l-0.38,0z" fill="#F5F5F5" id="svg_24"/>
  <path d="m200.49,74l0,-1.11l-0.04,-0.15l0,-1.83l0.04,-0.07l0,-1.24l0.68,0l0,4.4l-0.68,0zm-1.6,0.08c-0.28,0 -0.55,-0.05 -0.81,-0.15c-0.26,-0.11 -0.49,-0.26 -0.68,-0.45c-0.19,-0.2 -0.35,-0.44 -0.47,-0.72c-0.11,-0.29 -0.17,-0.61 -0.17,-0.96c0,-0.35 0.05,-0.67 0.16,-0.95c0.11,-0.28 0.27,-0.52 0.46,-0.71c0.19,-0.2 0.42,-0.35 0.68,-0.46c0.26,-0.11 0.54,-0.16 0.83,-0.16c0.24,0 0.46,0.03 0.65,0.09c0.19,0.06 0.36,0.14 0.5,0.24c0.14,0.1 0.25,0.21 0.34,0.34c0.09,0.12 0.14,0.24 0.16,0.36l0,1.18l-0.09,0c0,-0.2 -0.03,-0.39 -0.1,-0.58c-0.06,-0.19 -0.15,-0.35 -0.28,-0.49c-0.12,-0.14 -0.27,-0.25 -0.46,-0.34c-0.18,-0.09 -0.39,-0.13 -0.63,-0.13c-0.21,0 -0.4,0.04 -0.58,0.11c-0.18,0.07 -0.34,0.17 -0.47,0.31c-0.13,0.13 -0.24,0.3 -0.31,0.5c-0.07,0.2 -0.11,0.43 -0.11,0.68c0,0.24 0.03,0.46 0.1,0.66c0.07,0.2 0.17,0.37 0.3,0.52c0.13,0.14 0.28,0.25 0.46,0.33c0.18,0.07 0.38,0.11 0.59,0.11c0.24,0 0.45,-0.04 0.64,-0.13c0.19,-0.09 0.34,-0.21 0.46,-0.36c0.13,-0.15 0.22,-0.32 0.29,-0.51c0.07,-0.19 0.1,-0.39 0.1,-0.58l0.14,0l0,1.06c-0.03,0.17 -0.1,0.32 -0.2,0.47c-0.1,0.14 -0.22,0.26 -0.37,0.37c-0.15,0.11 -0.32,0.19 -0.51,0.26c-0.19,0.06 -0.4,0.09 -0.62,0.09z" fill="#F5F5F5" id="svg_25"/>
  <path d="m202.16,74.06c-0.06,0 -0.1,0 -0.12,-0.01c-0.02,0 -0.04,0 -0.05,-0.01l0,-0.74c0.02,0.01 0.05,0.01 0.07,0.01c0.02,0 0.03,0 0.05,0c0.09,0 0.18,-0.03 0.27,-0.09c0.09,-0.07 0.17,-0.19 0.24,-0.36c0.07,-0.18 0.13,-0.43 0.17,-0.75c0.04,-0.32 0.07,-0.74 0.07,-1.25l0,-1.26l2.98,0l0,4.4l-0.72,0l0,-3.75l-1.57,0l0,0.97c0,0.55 -0.04,1.01 -0.11,1.38c-0.07,0.36 -0.17,0.65 -0.29,0.87c-0.13,0.21 -0.28,0.37 -0.44,0.46c-0.17,0.09 -0.35,0.13 -0.55,0.13z" fill="#F5F5F5" id="svg_26"/>
  <path d="m207.33,74l0,-4.4l0.72,0l0,1.49l0.99,0c0.59,0 1.03,0.11 1.33,0.34c0.3,0.23 0.45,0.59 0.45,1.1c0,0.49 -0.15,0.86 -0.45,1.11c-0.3,0.24 -0.77,0.36 -1.43,0.36l-1.61,0zm1.47,-0.65c0.18,0 0.35,-0.01 0.51,-0.03c0.16,-0.02 0.3,-0.06 0.41,-0.12c0.12,-0.06 0.22,-0.14 0.28,-0.25c0.07,-0.11 0.1,-0.25 0.1,-0.42c0,-0.15 -0.03,-0.28 -0.09,-0.38c-0.05,-0.11 -0.13,-0.19 -0.24,-0.25c-0.1,-0.06 -0.23,-0.1 -0.39,-0.12c-0.14,-0.03 -0.31,-0.04 -0.5,-0.04l-0.83,0l0,1.61l0.75,0z" fill="#F5F5F5" id="svg_27"/>
  <path d="m212.23,71.98l0,-0.65l2.94,0l0,0.65l-2.94,0zm-0.43,2.02l0,-4.4l0.72,0l0,4.4l-0.72,0zm3.07,0l0,-4.4l0.72,0l0,4.4l-0.72,0z" fill="#F5F5F5" id="svg_28"/>
  <path d="m218.8,71.09c0.59,0 1.03,0.11 1.33,0.34c0.3,0.23 0.45,0.59 0.45,1.1c0,0.49 -0.15,0.86 -0.45,1.11c-0.3,0.24 -0.78,0.36 -1.43,0.36l-1.61,0l0,-4.4l0.72,0l0,1.49l0.99,0zm2.4,2.91l0,-4.4l0.72,0l0,4.4l-0.72,0zm-2.61,-0.65c0.18,0 0.35,-0.01 0.5,-0.03c0.16,-0.02 0.3,-0.06 0.41,-0.11c0.11,-0.06 0.2,-0.14 0.26,-0.25c0.07,-0.11 0.1,-0.25 0.1,-0.43c0,-0.31 -0.11,-0.51 -0.32,-0.62c-0.21,-0.11 -0.5,-0.17 -0.87,-0.17l-0.86,0l0,1.61l0.78,0z" fill="#F5F5F5" id="svg_29"/>
  <path d="m223.42,74l0,-4.4l0.72,0l0,3.52l-0.42,0.05l3.08,-3.57l0.41,0l0,4.4l-0.72,0l0,-3.57l0.43,-0.05l-3.12,3.62l-0.38,0zm1.9,-5.1c-0.21,0 -0.4,-0.03 -0.57,-0.08c-0.18,-0.06 -0.32,-0.14 -0.45,-0.25c-0.13,-0.11 -0.23,-0.24 -0.29,-0.39c-0.07,-0.16 -0.1,-0.34 -0.1,-0.55l0.65,0c0,0.21 0.07,0.39 0.2,0.52c0.13,0.13 0.33,0.19 0.58,0.19c0.24,0 0.43,-0.06 0.57,-0.18c0.14,-0.13 0.21,-0.3 0.21,-0.53l0.64,0c0,0.21 -0.04,0.39 -0.11,0.55c-0.08,0.15 -0.18,0.28 -0.3,0.39c-0.13,0.11 -0.28,0.19 -0.46,0.25c-0.17,0.05 -0.36,0.08 -0.57,0.08z" fill="#F5F5F5" id="svg_30"/>
  <path d="m235.02,75.1l0,-1.1l-3.71,0l0,-4.4l0.72,0l0,3.75l2.11,0l0,-3.75l0.72,0l0,3.75l0.81,0l0,1.75l-0.65,0z" fill="#F5F5F5" id="svg_31"/>
  <path d="m238.43,74.08c-0.33,0 -0.64,-0.05 -0.92,-0.16c-0.27,-0.11 -0.51,-0.26 -0.72,-0.45c-0.2,-0.2 -0.35,-0.44 -0.48,-0.72c-0.11,-0.28 -0.16,-0.6 -0.16,-0.95c0,-0.37 0.06,-0.69 0.17,-0.97c0.13,-0.29 0.3,-0.53 0.5,-0.72c0.22,-0.19 0.46,-0.34 0.72,-0.44c0.28,-0.1 0.56,-0.15 0.86,-0.15c0.34,0 0.63,0.06 0.89,0.19c0.27,0.12 0.49,0.28 0.68,0.49c0.18,0.21 0.31,0.44 0.41,0.7c0.09,0.25 0.13,0.52 0.13,0.79l0,0.25l-3.88,0l0,-0.61l3.58,0l-0.42,0.52l0,-0.22c0,-0.21 -0.03,-0.4 -0.1,-0.57c-0.08,-0.18 -0.18,-0.33 -0.31,-0.46c-0.14,-0.13 -0.29,-0.24 -0.47,-0.31c-0.18,-0.08 -0.37,-0.12 -0.59,-0.12c-0.2,0 -0.39,0.04 -0.57,0.12c-0.19,0.07 -0.34,0.18 -0.47,0.32c-0.13,0.14 -0.23,0.31 -0.31,0.51c-0.07,0.19 -0.1,0.41 -0.1,0.66c0,0.25 0.04,0.48 0.12,0.69c0.07,0.2 0.19,0.37 0.32,0.52c0.15,0.14 0.32,0.25 0.51,0.33c0.21,0.07 0.42,0.11 0.65,0.11c0.28,0 0.53,-0.05 0.78,-0.16c0.24,-0.11 0.44,-0.27 0.59,-0.46l0.47,0.43c-0.22,0.29 -0.5,0.5 -0.84,0.64c-0.33,0.13 -0.68,0.2 -1.04,0.2z" fill="#F5F5F5" id="svg_32"/>
  <path d="m242.12,71.98l0,-0.65l2.94,0l0,0.65l-2.94,0zm-0.43,2.02l0,-4.4l0.72,0l0,4.4l-0.72,0zm3.07,0l0,-4.4l0.72,0l0,4.4l-0.72,0z" fill="#F5F5F5" id="svg_33"/>
  <path d="m247.92,74l0,-3.75l-1.44,0l0,-0.65l3.6,0l0,0.65l-1.44,0l0,3.75l-0.72,0z" fill="#F5F5F5" id="svg_34"/>
  <path d="m251.8,76.4l-0.72,0l0,-6.8l0.68,0l0,1.24l0.04,0.07l0,5.49zm1.56,-2.32c-0.22,0 -0.42,-0.03 -0.62,-0.09c-0.19,-0.07 -0.36,-0.15 -0.51,-0.26c-0.14,-0.11 -0.27,-0.23 -0.37,-0.37c-0.1,-0.15 -0.16,-0.3 -0.2,-0.47l0,-1.06l0.14,0c0,0.19 0.04,0.39 0.1,0.58c0.07,0.19 0.16,0.36 0.28,0.51c0.13,0.15 0.29,0.27 0.47,0.36c0.19,0.09 0.4,0.13 0.64,0.13c0.22,0 0.41,-0.04 0.59,-0.11c0.18,-0.08 0.34,-0.19 0.46,-0.33c0.13,-0.15 0.23,-0.32 0.29,-0.52c0.08,-0.2 0.11,-0.42 0.11,-0.66c0,-0.25 -0.03,-0.48 -0.11,-0.68c-0.07,-0.2 -0.17,-0.37 -0.31,-0.5c-0.13,-0.14 -0.29,-0.24 -0.47,-0.31c-0.17,-0.07 -0.36,-0.11 -0.58,-0.11c-0.24,0 -0.45,0.04 -0.64,0.13c-0.18,0.09 -0.33,0.2 -0.46,0.34c-0.12,0.14 -0.21,0.3 -0.28,0.49c-0.06,0.19 -0.09,0.38 -0.09,0.58l-0.09,0l0,-1.18c0.02,-0.12 0.08,-0.24 0.16,-0.36c0.09,-0.13 0.2,-0.24 0.34,-0.34c0.14,-0.1 0.31,-0.18 0.5,-0.24c0.2,-0.06 0.41,-0.09 0.65,-0.09c0.3,0 0.57,0.05 0.83,0.16c0.26,0.11 0.49,0.26 0.68,0.46c0.2,0.19 0.35,0.43 0.45,0.71c0.12,0.28 0.17,0.6 0.17,0.95c0,0.35 -0.06,0.67 -0.18,0.96c-0.11,0.28 -0.26,0.52 -0.46,0.72c-0.19,0.19 -0.42,0.34 -0.68,0.45c-0.26,0.1 -0.53,0.15 -0.81,0.15z" fill="#F5F5F5" id="svg_35"/>
  <path d="m145.01,41.2c0.81,0 1.56,0.13 2.23,0.38c0.67,0.26 1.24,0.61 1.7,1.06c0.48,0.43 0.85,0.95 1.11,1.56c0.25,0.59 0.38,1.22 0.38,1.9c0,0.68 -0.13,1.33 -0.38,1.94c-0.26,0.61 -0.63,1.14 -1.11,1.58c-0.46,0.45 -1.03,0.81 -1.7,1.08c-0.67,0.26 -1.42,0.39 -2.23,0.39l-2.79,0l0,6.91l-1.77,0l0,-16.8l4.56,0zm-0.12,8.21c0.59,0 1.11,-0.08 1.56,-0.24c0.46,-0.18 0.85,-0.41 1.17,-0.7c0.32,-0.3 0.56,-0.65 0.72,-1.05c0.18,-0.4 0.27,-0.83 0.27,-1.28c0,-0.44 -0.09,-0.86 -0.27,-1.24c-0.16,-0.4 -0.4,-0.75 -0.72,-1.04c-0.32,-0.3 -0.71,-0.54 -1.17,-0.72c-0.45,-0.17 -0.97,-0.26 -1.56,-0.26l-2.67,0l0,6.53l2.67,0z" fill="#F5F5F5" id="svg_36"/>
  <path d="m160.96,56.51c0.96,0 1.85,-0.17 2.67,-0.5c0.81,-0.35 1.52,-0.83 2.11,-1.44c0.61,-0.63 1.08,-1.35 1.41,-2.19c0.34,-0.84 0.51,-1.77 0.51,-2.78c0,-1.01 -0.17,-1.93 -0.51,-2.76c-0.33,-0.85 -0.8,-1.58 -1.41,-2.18c-0.59,-0.63 -1.3,-1.11 -2.11,-1.44c-0.82,-0.36 -1.71,-0.53 -2.67,-0.53c-0.96,0 -1.85,0.17 -2.66,0.53c-0.82,0.33 -1.53,0.81 -2.14,1.44c-0.59,0.6 -1.05,1.33 -1.39,2.18c-0.34,0.83 -0.5,1.75 -0.5,2.76c0,1.01 0.16,1.94 0.5,2.78c0.34,0.84 0.8,1.56 1.39,2.19c0.61,0.61 1.32,1.09 2.14,1.44c0.81,0.33 1.7,0.5 2.66,0.5zm0,1.73c-1.28,0 -2.45,-0.22 -3.5,-0.65c-1.04,-0.45 -1.94,-1.06 -2.69,-1.85c-0.74,-0.78 -1.31,-1.7 -1.73,-2.76c-0.4,-1.05 -0.6,-2.19 -0.6,-3.4c0,-1.22 0.2,-2.35 0.6,-3.39c0.42,-1.05 0.99,-1.97 1.73,-2.73c0.75,-0.79 1.65,-1.4 2.69,-1.83c1.05,-0.45 2.22,-0.67 3.5,-0.67c1.28,0 2.44,0.22 3.48,0.67c1.06,0.43 1.95,1.04 2.69,1.83c0.75,0.78 1.33,1.7 1.73,2.76c0.41,1.04 0.62,2.17 0.62,3.4c0,1.22 -0.21,2.36 -0.62,3.41c-0.4,1.04 -0.98,1.95 -1.73,2.74c-0.74,0.77 -1.63,1.37 -2.69,1.82c-1.04,0.43 -2.2,0.65 -3.48,0.65z" fill="#F5F5F5" id="svg_37"/>
  <path d="m172.21,56.87c0.4,-0.75 0.75,-1.58 1.04,-2.49c0.3,-0.93 0.55,-1.93 0.74,-3c0.21,-1.08 0.36,-2.21 0.46,-3.41c0.11,-1.22 0.16,-2.51 0.16,-3.87l0,-2.9l9.36,0l0,15.36l-1.77,0l0,-14.42l0.98,0.74l-8.18,0l1.37,-0.84l0,1.7c0,1.3 -0.05,2.56 -0.15,3.8c-0.08,1.23 -0.21,2.4 -0.41,3.52c-0.19,1.11 -0.43,2.16 -0.72,3.15c-0.28,0.97 -0.63,1.86 -1.03,2.66l-1.85,0zm-1.32,4.25l0,-4.8l15.48,0l0,4.8l-1.72,0l0,-3.12l-12.03,0l0,3.12l-1.73,0z" fill="#F5F5F5" id="svg_38"/>
  <path d="m189.78,58l0,-16.82l1.78,0l0,13.99l-0.38,-0.15l10.58,-13.82l1.08,0l0,16.8l-1.78,0l0,-14.42l0.65,0.28l-10.8,14.14l-1.13,0z" fill="#F5F5F5" id="svg_39"/>
  <path d="m219.47,48.28l0,1.68l-10.84,0l0,-1.68l10.84,0zm-9.96,-7.08l0,16.8l-1.77,0l0,-16.8l1.77,0zm9.08,16.8l0,-16.8l1.77,0l0,16.8l-1.77,0z" fill="#F5F5F5" id="svg_40"/>
  <path d="m223.16,58l6.96,-17.04l0.74,0l7.03,17.04l-1.99,0l-5.93,-14.78l0.99,0l-5.88,14.78l-1.92,0zm3.26,-4.61l0,-1.68l8.06,0l0,1.68l-8.06,0z" fill="#F5F5F5" id="svg_41"/>
  <path d="m107.2,18c3.4,0 6.5,0.53 9.3,1.6c2.8,1.07 5.17,2.53 7.1,4.4c2,1.8 3.53,3.97 4.6,6.5c1.07,2.47 1.6,5.1 1.6,7.9c0,2.87 -0.53,5.57 -1.6,8.1c-1.07,2.53 -2.6,4.73 -4.6,6.6c-1.93,1.87 -4.3,3.37 -7.1,4.5c-2.8,1.07 -5.9,1.6 -9.3,1.6l-11.6,0l0,-41.2l11.6,0zm-0.5,34.2c2.47,0 4.63,-0.33 6.5,-1c1.93,-0.73 3.57,-1.7 4.9,-2.9c1.33,-1.27 2.33,-2.73 3,-4.4c0.73,-1.67 1.1,-3.43 1.1,-5.3c0,-1.87 -0.37,-3.6 -1.1,-5.2c-0.67,-1.67 -1.67,-3.1 -3,-4.3c-1.33,-1.27 -2.97,-2.27 -4.9,-3c-1.87,-0.73 -4.03,-1.1 -6.5,-1.1l-11.1,0l0,27.2l11.1,0z" fill="#F5F5F5" id="svg_42"/>
  <path d="m101.78,76.25c-3.4,0.02 -6.5,-0.5 -9.31,-1.56c-2.8,-1.05 -5.17,-2.51 -7.12,-4.37c-2,-1.79 -3.55,-3.95 -4.62,-6.48c-1.08,-2.46 -1.63,-5.09 -1.64,-7.89c-0.01,-2.87 0.51,-5.57 1.57,-8.11c1.05,-2.54 2.57,-4.74 4.57,-6.62c1.92,-1.87 4.28,-3.38 7.08,-4.53c2.79,-1.08 5.89,-1.62 9.29,-1.64l11.6,-0.05l0.18,41.2l-11.6,0.05zm0.35,-34.2c-2.47,0.01 -4.63,0.35 -6.5,1.03c-1.93,0.74 -3.55,1.71 -4.88,2.92c-1.33,1.27 -2.32,2.74 -2.98,4.41c-0.73,1.67 -1.09,3.44 -1.08,5.31c0.01,1.86 0.38,3.59 1.12,5.19c0.68,1.66 1.68,3.09 3.02,4.29c1.34,1.26 2.98,2.25 4.91,2.98c1.87,0.72 4.04,1.08 6.51,1.07l11.1,-0.05l-0.12,-27.2l-11.1,0.05z" fill="#F5F5F5" id="svg_43"/>
  <rect fill="#007f3f" height="0" id="svg_44" opacity="0.5" stroke="#000000" width="0" x="857" y="180"/>
 </g>
</svg>



