<svg width="909" height="45" viewBox="0 0 909 45" fill="none" xmlns="http://www.w3.org/2000/svg">
<path d="M69.3836 41.9065L69.4624 41.4127L69.3836 41.9065ZM112.066 39.4595L112.201 39.941L112.066 39.4595ZM182.502 19.7613L182.367 19.2798L182.502 19.7613ZM235.546 19.5353L235.676 19.0526L235.546 19.5353ZM304.383 38.1551L304.513 37.6725L304.383 38.1551ZM357.532 37.8993L357.397 37.4179L357.532 37.8993ZM423.846 19.275L423.982 19.7563L423.846 19.275ZM473.433 18.1253L473.546 17.6382L473.433 18.1253ZM533.092 31.9328L532.979 32.4199L533.092 31.9328ZM591.628 27.8082L591.807 28.2747L591.628 27.8082ZM645.427 7.057L645.247 6.5905L645.427 7.057ZM691.779 2.73428L691.87 2.24255L691.779 2.73428ZM730.606 9.88588L730.696 9.39415L730.606 9.88588ZM779.868 38.4235L779.618 37.9906L779.868 38.4235ZM801.617 25.8601L801.868 26.293L801.868 26.293L801.617 25.8601ZM883.088 39.9937L882.85 39.5541L883.088 39.9937ZM908.479 26.6424C908.558 26.3777 908.407 26.0993 908.143 26.0206L903.829 24.7382C903.564 24.6596 903.286 24.8103 903.207 25.075C903.129 25.3397 903.279 25.6181 903.544 25.6968L907.378 26.8367L906.238 30.6708C906.16 30.9355 906.311 31.2139 906.575 31.2926C906.84 31.3713 907.118 31.2205 907.197 30.9558L908.479 26.6424ZM842.745 32.7075L843.122 32.3789L842.745 32.7075ZM747.751 25.4462L747.27 25.5839L747.27 25.5839L747.751 25.4462ZM0.921288 31.4936L1.92693 31.654L2.08443 30.6665L1.07879 30.5061L0.921288 31.4936ZM3.93821 31.9748L5.94949 32.2956L6.10699 31.3081L4.09571 30.9873L3.93821 31.9748ZM7.96078 32.6164L9.97206 32.9371L10.1296 31.9496L8.11828 31.6288L7.96078 32.6164ZM11.9833 33.2579L13.9946 33.5787L14.1521 32.5912L12.1408 32.2704L11.9833 33.2579ZM16.0059 33.8995L18.0172 34.2203L18.1747 33.2328L16.1634 32.912L16.0059 33.8995ZM20.0285 34.5411L22.0398 34.8618L22.1973 33.8743L20.186 33.5535L20.0285 34.5411ZM24.051 35.1826L26.0623 35.5034L26.2198 34.5159L24.2085 34.1951L24.051 35.1826ZM28.0736 35.8242L30.0849 36.145L30.2424 35.1575L28.2311 34.8367L28.0736 35.8242ZM32.0962 36.4658L34.1074 36.7865L34.265 35.799L32.2537 35.4782L32.0962 36.4658ZM36.1187 37.1073L38.13 37.4281L38.2875 36.4406L36.2762 36.1198L36.1187 37.1073ZM40.1413 37.7489L42.1526 38.0697L42.3101 37.0821L40.2988 36.7614L40.1413 37.7489ZM44.1639 38.3904L46.1751 38.7112L46.3326 37.7237L44.3214 37.4029L44.1639 38.3904ZM48.1864 39.032L50.1977 39.3528L50.3552 38.3653L48.3439 38.0445L48.1864 39.032ZM52.209 39.6736L54.2203 39.9944L54.3778 39.0068L52.3665 38.6861L52.209 39.6736ZM56.2315 40.3151L58.2428 40.6359L58.4003 39.6484L56.389 39.3276L56.2315 40.3151ZM60.2541 40.9567L62.2654 41.2775L62.4229 40.29L60.4116 39.9692L60.2541 40.9567ZM64.2767 41.5983L66.288 41.919L66.4455 40.9315L64.4342 40.6107L64.2767 41.5983ZM68.2992 42.2398L69.3049 42.4002L69.4624 41.4127L68.4567 41.2523L68.2992 42.2398ZM69.3049 42.4002C69.6289 42.4519 69.9532 42.502 70.2775 42.5505L70.4254 41.5615C70.1042 41.5135 69.7832 41.4639 69.4624 41.4127L69.3049 42.4002ZM72.2268 42.8223C72.8778 42.9066 73.5292 42.9845 74.1811 43.056L74.2901 42.0619C73.6447 41.9912 72.9997 41.9141 72.3553 41.8306L72.2268 42.8223ZM76.1395 43.2513C76.7932 43.3101 77.4472 43.3624 78.1015 43.4083L78.1715 42.4107C77.5237 42.3653 76.8762 42.3135 76.229 42.2553L76.1395 43.2513ZM80.066 43.5267C80.7215 43.5598 81.377 43.5865 82.0326 43.6067L82.0635 42.6072C81.4144 42.5872 80.7654 42.5608 80.1165 42.528L80.066 43.5267ZM84.0004 43.6482C84.6565 43.6556 85.3126 43.6566 85.9686 43.6511L85.9603 42.6512C85.3108 42.6565 84.6612 42.6556 84.0116 42.6483L84.0004 43.6482ZM87.9364 43.6155C88.5923 43.5972 89.2479 43.5725 89.9032 43.5413L89.8557 42.5425C89.207 42.5733 88.5579 42.5978 87.9085 42.6159L87.9364 43.6155ZM91.8681 43.4287C92.5227 43.3847 93.1769 43.3344 93.8305 43.2776L93.744 42.2813C93.0968 42.3375 92.4492 42.3874 91.8011 42.4309L91.8681 43.4287ZM95.7895 43.0881C96.4418 43.0185 97.0935 42.9426 97.7445 42.8602L97.619 41.8681C96.9745 41.9497 96.3293 42.0249 95.6835 42.0937L95.7895 43.0881ZM99.6946 42.5942C100.344 42.4991 100.992 42.3977 101.639 42.29L101.475 41.3035C100.834 41.4102 100.192 41.5106 99.5497 41.6047L99.6946 42.5942ZM103.577 41.9477C104.222 41.8274 104.866 41.7007 105.508 41.5676L105.306 40.5884C104.669 40.7201 104.032 40.8455 103.394 40.9647L103.577 41.9477ZM107.432 41.1497C108.071 41.0042 108.709 40.8524 109.347 40.6943L109.106 39.7237C108.475 39.8803 107.843 40.0306 107.21 40.1747L107.432 41.1497ZM111.252 40.2014C111.569 40.1162 111.885 40.0294 112.201 39.941L111.932 38.9779C111.619 39.0654 111.306 39.1514 110.992 39.2358L111.252 40.2014ZM112.201 39.941L113.179 39.6674L112.91 38.7043L111.932 38.9779L112.201 39.941ZM115.136 39.1202L117.092 38.5731L116.823 37.61L114.867 38.1572L115.136 39.1202ZM119.049 38.0259L121.006 37.4787L120.736 36.5157L118.78 37.0628L119.049 38.0259ZM122.962 36.9315L124.919 36.3844L124.649 35.4213L122.693 35.9685L122.962 36.9315ZM126.875 35.8372L128.832 35.29L128.562 34.327L126.606 34.8742L126.875 35.8372ZM130.788 34.7429L132.745 34.1957L132.476 33.2326L130.519 33.7798L130.788 34.7429ZM134.701 33.6485L136.658 33.1014L136.389 32.1383L134.432 32.6855L134.701 33.6485ZM138.614 32.5542L140.571 32.007L140.302 31.044L138.345 31.5911L138.614 32.5542ZM142.528 31.4599L144.484 30.9127L144.215 29.9496L142.258 30.4968L142.528 31.4599ZM146.441 30.3655L148.397 29.8183L148.128 28.8553L146.171 29.4025L146.441 30.3655ZM150.354 29.2712L152.31 28.724L152.041 27.761L150.084 28.3081L150.354 29.2712ZM154.267 28.1768L156.223 27.6297L155.954 26.6666L153.998 27.2138L154.267 28.1768ZM158.18 27.0825L160.136 26.5353L159.867 25.5723L157.911 26.1194L158.18 27.0825ZM162.093 25.9882L164.05 25.441L163.78 24.4779L161.824 25.0251L162.093 25.9882ZM166.006 24.8938L167.963 24.3466L167.693 23.3836L165.737 23.9308L166.006 24.8938ZM169.919 23.7995L171.876 23.2523L171.606 22.2893L169.65 22.8364L169.919 23.7995ZM173.832 22.7051L175.789 22.158L175.52 21.1949L173.563 21.7421L173.832 22.7051ZM177.745 21.6108L179.702 21.0636L179.433 20.1006L177.476 20.6478L177.745 21.6108ZM181.658 20.5165L182.637 20.2429L182.367 19.2798L181.389 19.5534L181.658 20.5165ZM182.637 20.2429C182.967 20.1506 183.297 20.0601 183.628 19.9713L183.368 19.0055C183.034 19.0952 182.701 19.1866 182.367 19.2798L182.637 20.2429ZM185.617 19.4589C186.283 19.2949 186.949 19.1378 187.617 18.9877L187.398 18.0121C186.723 18.1637 186.05 18.3223 185.378 18.488L185.617 19.4589ZM189.626 18.5579C190.297 18.4215 190.97 18.2921 191.644 18.1697L191.465 17.1858C190.784 17.3095 190.105 17.4402 189.427 17.5779L189.626 18.5579ZM193.669 17.8232C194.345 17.7147 195.022 17.6132 195.7 17.5187L195.562 16.5282C194.877 16.6237 194.193 16.7262 193.51 16.8359L193.669 17.8232ZM197.738 17.2561C198.418 17.1756 199.099 17.1021 199.781 17.0357L199.684 16.0404C198.995 16.1075 198.308 16.1817 197.62 16.263L197.738 17.2561ZM201.827 16.8575C202.51 16.8051 203.194 16.7598 203.877 16.7215L203.821 15.7231C203.131 15.7617 202.441 15.8075 201.751 15.8604L201.827 16.8575ZM205.93 16.628C206.614 16.6039 207.299 16.5868 207.984 16.5768L207.969 15.5769C207.277 15.587 206.586 15.6042 205.894 15.6286L205.93 16.628ZM210.038 16.568C210.723 16.5722 211.408 16.5834 212.092 16.6017L212.119 15.6021C211.427 15.5836 210.736 15.5723 210.044 15.5681L210.038 16.568ZM214.145 16.6778C214.829 16.7102 215.513 16.7497 216.196 16.7962L216.264 15.7985C215.574 15.7515 214.883 15.7116 214.193 15.6789L214.145 16.6778ZM218.245 16.957C218.927 17.0176 219.608 17.0853 220.289 17.16L220.398 16.166C219.71 16.0905 219.022 16.0221 218.333 15.9609L218.245 16.957ZM222.329 17.4052C223.008 17.4939 223.686 17.5896 224.363 17.6924L224.513 16.7037C223.829 16.5999 223.144 16.5032 222.458 16.4136L222.329 17.4052ZM226.391 18.0216C227.066 18.1383 227.739 18.2619 228.412 18.3926L228.602 17.411C227.923 17.279 227.243 17.1541 226.561 17.0362L226.391 18.0216ZM230.424 18.8053C231.093 18.9497 231.761 19.101 232.428 19.2594L232.659 18.2865C231.986 18.1265 231.311 17.9736 230.635 17.8278L230.424 18.8053ZM234.422 19.7548C234.753 19.8407 235.084 19.9285 235.415 20.0179L235.676 19.0526C235.342 18.9623 235.008 18.8737 234.673 18.7868L234.422 19.7548ZM235.415 20.0179L236.371 20.2765L236.632 19.3112L235.676 19.0526L235.415 20.0179ZM238.283 20.7938L240.195 21.311L240.457 20.3457L238.544 19.8284L238.283 20.7938ZM242.108 21.8282L244.02 22.3454L244.281 21.3801L242.369 20.8629L242.108 21.8282ZM245.932 22.8626L247.844 23.3798L248.105 22.4145L246.193 21.8973L245.932 22.8626ZM249.756 23.8971L251.668 24.4143L251.929 23.449L250.017 22.9317L249.756 23.8971ZM253.58 24.9315L255.493 25.4487L255.754 24.4834L253.842 23.9662L253.58 24.9315ZM257.405 25.9659L259.317 26.4831L259.578 25.5178L257.666 25.0006L257.405 25.9659ZM261.229 27.0004L263.141 27.5176L263.402 26.5523L261.49 26.0351L261.229 27.0004ZM265.053 28.0348L266.965 28.552L267.227 27.5867L265.314 27.0695L265.053 28.0348ZM268.878 29.0692L270.79 29.5865L271.051 28.6211L269.139 28.1039L268.878 29.0692ZM272.702 30.1037L274.614 30.6209L274.875 29.6556L272.963 29.1384L272.702 30.1037ZM276.526 31.1381L278.438 31.6553L278.699 30.69L276.787 30.1728L276.526 31.1381ZM280.35 32.1725L282.263 32.6898L282.524 31.7245L280.611 31.2072L280.35 32.1725ZM284.175 33.207L286.087 33.7242L286.348 32.7589L284.436 32.2417L284.175 33.207ZM287.999 34.2414L289.911 34.7586L290.172 33.7933L288.26 33.2761L287.999 34.2414ZM291.823 35.2759L293.735 35.7931L293.996 34.8278L292.084 34.3105L291.823 35.2759ZM295.648 36.3103L297.56 36.8275L297.821 35.8622L295.909 35.345L295.648 36.3103ZM299.472 37.3447L301.384 37.862L301.645 36.8966L299.733 36.3794L299.472 37.3447ZM303.296 38.3792L304.252 38.6378L304.513 37.6725L303.557 37.4139L303.296 38.3792ZM304.252 38.6378C304.587 38.7283 304.922 38.8171 305.257 38.9041L305.508 37.9362C305.176 37.85 304.845 37.7621 304.513 37.6725L304.252 38.6378ZM307.275 39.4054C307.95 39.5656 308.626 39.7188 309.303 39.8648L309.514 38.8873C308.844 38.7427 308.174 38.5911 307.506 38.4325L307.275 39.4054ZM311.34 40.2823C312.021 40.4144 312.703 40.5395 313.386 40.6574L313.556 39.672C312.88 39.5552 312.205 39.4314 311.531 39.3006L311.34 40.2823ZM315.438 40.9902C316.124 41.094 316.81 41.1908 317.497 41.2804L317.627 40.2888C316.946 40.2001 316.267 40.1043 315.588 40.0014L315.438 40.9902ZM319.562 41.5279C320.251 41.6033 320.941 41.6716 321.631 41.7327L321.72 40.7366C321.036 40.6761 320.353 40.6085 319.671 40.5338L319.562 41.5279ZM323.704 41.8946C324.396 41.9414 325.088 41.9811 325.78 42.0136L325.827 41.0147C325.142 40.9825 324.457 40.9433 323.772 40.8969L323.704 41.8946ZM327.858 42.0896C328.551 42.1078 329.244 42.1188 329.938 42.1226L329.943 41.1226C329.257 41.1188 328.571 41.108 327.885 41.09L327.858 42.0896ZM332.017 42.1126C332.71 42.1021 333.403 42.0844 334.096 42.0596L334.06 41.0602C333.374 41.0848 332.688 41.1023 332.002 41.1127L332.017 42.1126ZM336.173 41.9636C336.865 41.9244 337.556 41.8781 338.248 41.8246L338.17 40.8276C337.486 40.8805 336.801 40.9264 336.116 40.9652L336.173 41.9636ZM340.319 41.6427C341.009 41.575 341.698 41.5001 342.386 41.4181L342.268 40.4251C341.586 40.5063 340.904 40.5805 340.221 40.6475L340.319 41.6427ZM344.448 41.1506C345.135 41.0544 345.82 40.9511 346.505 40.8406L346.345 39.8534C345.667 39.9628 344.989 40.0651 344.31 40.1603L344.448 41.1506ZM348.554 40.4881C349.235 40.3636 349.916 40.232 350.595 40.0933L350.395 39.1135C349.723 39.2509 349.049 39.3812 348.374 39.5044L348.554 40.4881ZM352.628 39.6563C353.304 39.5037 353.979 39.3441 354.652 39.1774L354.411 38.2067C353.745 38.3717 353.077 38.5298 352.408 38.6809L352.628 39.6563ZM356.665 38.6567C357 38.5664 357.334 38.4744 357.668 38.3807L357.397 37.4179C357.067 37.5107 356.736 37.6018 356.405 37.6912L356.665 38.6567ZM357.668 38.3807L358.643 38.1068L358.372 37.144L357.397 37.4179L357.668 38.3807ZM360.593 37.559L362.544 37.0112L362.273 36.0485L360.323 36.5962L360.593 37.559ZM364.494 36.4635L366.444 35.9157L366.174 34.9529L364.224 35.5007L364.494 36.4635ZM368.395 35.3679L370.345 34.8201L370.075 33.8574L368.124 34.4052L368.395 35.3679ZM372.296 34.2724L374.246 33.7246L373.976 32.7618L372.025 33.3096L372.296 34.2724ZM376.197 33.1768L378.147 32.629L377.877 31.6663L375.926 32.2141L376.197 33.1768ZM380.097 32.0813L382.048 31.5335L381.777 30.5707L379.827 31.1185L380.097 32.0813ZM383.998 30.9857L385.949 30.4379L385.678 29.4752L383.728 30.023L383.998 30.9857ZM387.899 29.8902L389.849 29.3424L389.579 28.3796L387.629 28.9274L387.899 29.8902ZM391.8 28.7946L393.75 28.2468L393.48 27.2841L391.529 27.8319L391.8 28.7946ZM395.701 27.6991L397.651 27.1513L397.381 26.1885L395.43 26.7363L395.701 27.6991ZM399.601 26.6035L401.552 26.0557L401.282 25.093L399.331 25.6408L399.601 26.6035ZM403.502 25.508L405.453 24.9602L405.182 23.9974L403.232 24.5452L403.502 25.508ZM407.403 24.4124L409.354 23.8646L409.083 22.9019L407.133 23.4497L407.403 24.4124ZM411.304 23.3169L413.254 22.7691L412.984 21.8064L411.034 22.3541L411.304 23.3169ZM415.205 22.2213L417.155 21.6736L416.885 20.7108L414.934 21.2586L415.205 22.2213ZM419.106 21.1258L421.056 20.578L420.786 19.6153L418.835 20.163L419.106 21.1258ZM423.006 20.0302L423.982 19.7563L423.711 18.7936L422.736 19.0675L423.006 20.0302ZM423.982 19.7563C424.29 19.6699 424.598 19.5849 424.906 19.5014L424.645 18.5361C424.334 18.6204 424.022 18.7062 423.711 18.7936L423.982 19.7563ZM426.763 19.0185C427.383 18.8634 428.005 18.7144 428.628 18.5714L428.404 17.5968C427.775 17.7411 427.147 17.8917 426.52 18.0483L426.763 19.0185ZM430.502 18.1604C431.128 18.0293 431.755 17.9044 432.383 17.7855L432.197 16.803C431.563 16.923 430.929 17.0492 430.297 17.1816L430.502 18.1604ZM434.271 17.447C434.901 17.3402 435.533 17.2395 436.165 17.145L436.017 16.156C435.379 16.2515 434.741 16.3532 434.104 16.461L434.271 17.447ZM438.065 16.8795C438.699 16.7971 439.334 16.7208 439.969 16.6507L439.859 15.6567C439.218 15.7276 438.576 15.8046 437.936 15.8878L438.065 16.8795ZM441.878 16.4586C442.515 16.4008 443.152 16.349 443.79 16.3034L443.718 15.306C443.074 15.352 442.43 15.4043 441.787 15.4627L441.878 16.4586ZM445.704 16.1851C446.343 16.1518 446.981 16.1246 447.62 16.1037L447.588 15.1042C446.942 15.1254 446.297 15.1528 445.652 15.1864L445.704 16.1851ZM449.538 16.0592C450.177 16.0506 450.817 16.0481 451.456 16.0517L451.462 15.0517C450.816 15.048 450.17 15.0506 449.525 15.0593L449.538 16.0592ZM453.374 16.0812C454.013 16.0972 454.652 16.1193 455.291 16.1477L455.335 15.1486C454.69 15.12 454.045 15.0977 453.399 15.0815L453.374 16.0812ZM457.206 16.2511C457.844 16.2917 458.482 16.3384 459.119 16.3914L459.202 15.3948C458.558 15.3413 457.914 15.2941 457.27 15.2531L457.206 16.2511ZM461.029 16.5685C461.665 16.6337 462.301 16.705 462.936 16.7824L463.057 15.7898C462.415 15.7116 461.774 15.6395 461.131 15.5737L461.029 16.5685ZM464.837 17.0331C465.47 17.1227 466.102 17.2185 466.734 17.3203L466.893 16.3331C466.255 16.2302 465.617 16.1335 464.977 16.043L464.837 17.0331ZM468.624 17.6441C469.253 17.7581 469.881 17.8781 470.508 18.0043L470.706 17.0239C470.072 16.8965 469.438 16.7752 468.803 16.6602L468.624 17.6441ZM472.385 18.4007C472.697 18.4697 473.009 18.5403 473.321 18.6125L473.546 17.6382C473.231 17.5654 472.916 17.4941 472.601 17.4243L472.385 18.4007ZM473.321 18.6125L474.315 18.8426L474.541 17.8683L473.546 17.6382L473.321 18.6125ZM476.304 19.3028L478.292 19.7631L478.518 18.7888L476.529 18.3286L476.304 19.3028ZM480.281 20.2233L482.27 20.6836L482.495 19.7093L480.506 19.2491L480.281 20.2233ZM484.258 21.1438L486.247 21.6041L486.472 20.6298L484.484 20.1696L484.258 21.1438ZM488.235 22.0643L490.224 22.5246L490.449 21.5503L488.461 21.0901L488.235 22.0643ZM492.213 22.9848L494.201 23.4451L494.427 22.4708L492.438 22.0106L492.213 22.9848ZM496.19 23.9053L498.179 24.3656L498.404 23.3913L496.415 22.9311L496.19 23.9053ZM500.167 24.8258L502.156 25.2861L502.381 24.3118L500.393 23.8516L500.167 24.8258ZM504.144 25.7463L506.133 26.2066L506.359 25.2323L504.37 24.7721L504.144 25.7463ZM508.122 26.6668L510.11 27.1271L510.336 26.1528L508.347 25.6926L508.122 26.6668ZM512.099 27.5873L514.088 28.0476L514.313 27.0733L512.324 26.6131L512.099 27.5873ZM516.076 28.5078L518.065 28.9681L518.29 27.9938L516.302 27.5336L516.076 28.5078ZM520.053 29.4283L522.042 29.8886L522.268 28.9143L520.279 28.4541L520.053 29.4283ZM524.031 30.3488L526.019 30.8091L526.245 29.8348L524.256 29.3746L524.031 30.3488ZM528.008 31.2693L529.997 31.7296L530.222 30.7553L528.233 30.2951L528.008 31.2693ZM531.985 32.1898L532.979 32.4199L533.205 31.4457L532.211 31.2156L531.985 32.1898ZM532.979 32.4199C533.304 32.495 533.628 32.5684 533.953 32.6401L534.169 31.6637C533.847 31.5926 533.526 31.52 533.205 31.4457L532.979 32.4199ZM535.905 33.0513C536.558 33.182 537.211 33.3061 537.865 33.4237L538.042 32.4394C537.394 32.3231 536.747 32.2002 536.101 32.0708L535.905 33.0513ZM539.832 33.757C540.489 33.8617 541.147 33.9598 541.805 34.0513L541.943 33.0608C541.291 32.9702 540.64 32.8731 539.989 32.7695L539.832 33.757ZM543.784 34.3063C544.445 34.3848 545.106 34.4567 545.767 34.522L545.866 33.5269C545.211 33.4622 544.556 33.391 543.902 33.3133L543.784 34.3063ZM547.755 34.6983C548.418 34.7505 549.081 34.7961 549.745 34.8351L549.804 33.8368C549.147 33.7982 548.49 33.7531 547.833 33.7014L547.755 34.6983ZM551.738 34.9323C552.403 34.9581 553.067 34.9774 553.732 34.99L553.751 33.9902C553.093 33.9777 552.435 33.9586 551.777 33.9331L551.738 34.9323ZM555.727 35.008C556.392 35.0075 557.057 35.0003 557.722 34.9865L557.702 33.9867C557.043 34.0004 556.385 34.0075 555.726 34.008L555.727 35.008ZM559.716 34.9254C560.381 34.8984 561.045 34.8648 561.709 34.8247L561.649 33.8265C560.991 33.8662 560.334 33.8995 559.676 33.9262L559.716 34.9254ZM563.699 34.6844C564.362 34.6311 565.024 34.5712 565.686 34.5047L565.586 33.5097C564.931 33.5755 564.275 33.6349 563.619 33.6877L563.699 34.6844ZM567.669 34.2856C568.329 34.206 568.989 34.1199 569.647 34.0272L569.508 33.0369C568.856 33.1287 568.203 33.214 567.549 33.2928L567.669 34.2856ZM571.62 33.7295C572.277 33.6238 572.932 33.5116 573.587 33.3928L573.408 32.4088C572.76 32.5265 572.111 32.6376 571.461 32.7423L571.62 33.7295ZM575.546 33.017C576.198 32.8854 576.848 32.7472 577.498 32.6025L577.28 31.6264C576.637 31.7697 575.993 31.9065 575.348 32.0369L575.546 33.017ZM579.441 32.1493C580.086 31.9919 580.731 31.828 581.374 31.6576L581.118 30.6909C580.481 30.8596 579.843 31.0219 579.204 31.1777L579.441 32.1493ZM583.298 31.1276C583.937 30.9447 584.574 30.7553 585.21 30.5595L584.916 29.6038C584.286 29.7977 583.655 29.9851 583.022 30.1662L583.298 31.1276ZM587.111 29.9536C587.742 29.7455 588.372 29.531 588.999 29.3101L588.667 28.3668C588.046 28.5855 587.423 28.7979 586.798 29.0039L587.111 29.9536ZM590.875 28.6292C591.186 28.5126 591.497 28.3945 591.807 28.2747L591.448 27.3417C591.14 27.4603 590.832 27.5773 590.524 27.6927L590.875 28.6292ZM591.807 28.2747L592.768 27.9042L592.408 26.9712L591.448 27.3417L591.807 28.2747ZM594.69 27.163L596.611 26.4219L596.251 25.4889L594.33 26.23L594.69 27.163ZM598.532 25.6808L600.454 24.9397L600.094 24.0067L598.173 24.7478L598.532 25.6808ZM602.375 24.1986L604.297 23.4575L603.937 22.5245L602.015 23.2656L602.375 24.1986ZM606.218 22.7164L608.139 21.9752L607.78 21.0422L605.858 21.7834L606.218 22.7164ZM610.061 21.2341L611.982 20.493L611.622 19.56L609.701 20.3011L610.061 21.2341ZM613.904 19.7519L615.825 19.0108L615.465 18.0778L613.544 18.8189L613.904 19.7519ZM617.746 18.2697L619.668 17.5285L619.308 16.5955L617.387 17.3367L617.746 18.2697ZM621.589 16.7874L623.511 16.0463L623.151 15.1133L621.229 15.8544L621.589 16.7874ZM625.432 15.3052L627.353 14.5641L626.994 13.6311L625.072 14.3722L625.432 15.3052ZM629.275 13.823L631.196 13.0819L630.836 12.1489L628.915 12.89L629.275 13.823ZM633.118 12.3407L635.039 11.5996L634.679 10.6666L632.758 11.4077L633.118 12.3407ZM636.961 10.8585L638.882 10.1174L638.522 9.1844L636.601 9.92551L636.961 10.8585ZM640.803 9.37628L642.725 8.63517L642.365 7.70217L640.444 8.44328L640.803 9.37628ZM644.646 7.89405L645.607 7.5235L645.247 6.5905L644.286 6.96105L644.646 7.89405ZM645.607 7.5235C645.911 7.40629 646.215 7.29088 646.52 7.17725L646.171 6.24019C645.862 6.35515 645.554 6.47192 645.247 6.5905L645.607 7.5235ZM648.358 6.51647C648.973 6.30306 649.591 6.09686 650.21 5.89789L649.904 4.9458C649.278 5.14711 648.653 5.35573 648.03 5.57165L648.358 6.51647ZM652.076 5.32198C652.701 5.13707 653.327 4.95942 653.955 4.78905L653.693 3.82394C653.058 3.99631 652.424 4.17605 651.792 4.36313L652.076 5.32198ZM655.845 4.29927C656.478 4.14319 657.111 3.99443 657.747 3.853L657.529 2.8769C656.887 3.02 656.245 3.17051 655.606 3.32842L655.845 4.29927ZM659.657 3.45045C660.296 3.32353 660.936 3.20397 661.577 3.09179L661.405 2.10676C660.756 2.22026 660.109 2.34122 659.463 2.46963L659.657 3.45045ZM663.505 2.77725C664.148 2.67976 664.793 2.58967 665.439 2.50698L665.312 1.51508C664.658 1.59874 664.006 1.68989 663.355 1.78852L663.505 2.77725ZM667.378 2.28111C668.026 2.21324 668.674 2.15279 669.323 2.09978L669.241 1.1031C668.585 1.15673 667.929 1.21789 667.274 1.28656L667.378 2.28111ZM671.271 1.96306C671.921 1.92494 672.571 1.89427 673.222 1.87105L673.186 0.871681C672.528 0.895174 671.87 0.926211 671.212 0.964779L671.271 1.96306ZM675.174 1.82377C675.825 1.81548 676.476 1.81464 677.127 1.82127L677.137 0.821321C676.478 0.814612 675.82 0.81546 675.161 0.823852L675.174 1.82377ZM679.079 1.86354C679.73 1.88508 680.38 1.91409 681.03 1.95057L681.086 0.952137C680.428 0.915231 679.77 0.885885 679.112 0.864089L679.079 1.86354ZM682.979 2.08231C683.627 2.13364 684.276 2.19242 684.924 2.25868L685.025 1.26387C684.37 1.19683 683.714 1.13736 683.058 1.08543L682.979 2.08231ZM686.864 2.4796C687.51 2.56061 688.154 2.64907 688.799 2.74498L688.946 1.75588C688.294 1.65884 687.642 1.56934 686.988 1.48739L686.864 2.4796ZM690.727 3.05459C691.048 3.10987 691.368 3.16701 691.688 3.226L691.87 2.24255C691.546 2.18286 691.221 2.12505 690.897 2.06913L690.727 3.05459ZM691.688 3.226L692.659 3.40479L692.84 2.42134L691.87 2.24255L691.688 3.226ZM694.6 3.76237L696.542 4.11995L696.723 3.1365L694.782 2.77892L694.6 3.76237ZM698.483 4.47753L700.424 4.83511L700.606 3.85166L698.664 3.49408L698.483 4.47753ZM702.366 5.19269L704.307 5.55027L704.488 4.56682L702.547 4.20924L702.366 5.19269ZM706.248 5.90785L708.19 6.26543L708.371 5.28198L706.43 4.9244L706.248 5.90785ZM710.131 6.62301L712.072 6.9806L712.254 5.99714L710.312 5.63956L710.131 6.62301ZM714.014 7.33818L715.955 7.69575L716.136 6.7123L714.195 6.35472L714.014 7.33818ZM717.896 8.05334L719.838 8.41092L720.019 7.42746L718.077 7.06988L717.896 8.05334ZM721.779 8.76849L723.72 9.12607L723.902 8.14262L721.96 7.78504L721.779 8.76849ZM725.662 9.48365L727.603 9.84123L727.784 8.85778L725.843 8.5002L725.662 9.48365ZM729.544 10.1988L730.515 10.3776L730.696 9.39415L729.726 9.21536L729.544 10.1988ZM730.515 10.3776C730.842 10.4378 731.166 10.5053 731.488 10.58L731.714 9.60592C731.377 9.52778 731.038 9.45713 730.696 9.39415L730.515 10.3776ZM733.398 11.1179C734.029 11.3275 734.647 11.5654 735.251 11.8302L735.653 10.9144C735.021 10.6373 734.374 10.3882 733.713 10.1689L733.398 11.1179ZM737.03 12.7108C737.61 13.0323 738.174 13.3799 738.72 13.7521L739.284 12.9259C738.712 12.5364 738.122 12.1726 737.515 11.8361L737.03 12.7108ZM740.307 14.9451C740.817 15.3669 741.308 15.8122 741.777 16.2793L742.483 15.5706C741.992 15.0818 741.478 14.6158 740.944 14.1744L740.307 14.9451ZM743.118 17.7434C743.541 18.2508 743.942 18.7784 744.318 19.3248L745.141 18.7579C744.748 18.186 744.329 17.6338 743.886 17.1028L743.118 17.7434ZM745.366 21.0103C745.688 21.5857 745.985 22.178 746.254 22.7859L747.168 22.3804C746.886 21.7442 746.576 21.1243 746.239 20.522L745.366 21.0103ZM746.974 24.6355C747.08 24.9483 747.178 25.2645 747.27 25.5839L748.231 25.3086C748.135 24.9743 748.032 24.6435 747.922 24.3162L746.974 24.6355ZM747.27 25.5839C747.364 25.9133 747.465 26.2386 747.573 26.5597L748.521 26.2422C748.418 25.9351 748.322 25.6238 748.231 25.3085L747.27 25.5839ZM748.306 28.4628C748.581 29.0916 748.883 29.7017 749.208 30.2923L750.084 29.8096C749.773 29.2454 749.485 28.6626 749.222 28.0617L748.306 28.4628ZM750.275 32.0327C750.658 32.5991 751.066 33.1441 751.495 33.6668L752.268 33.032C751.858 32.5329 751.469 32.0125 751.102 31.4717L750.275 32.0327ZM752.862 35.1831C753.342 35.6686 753.843 36.1302 754.361 36.5671L755.006 35.8022C754.51 35.3848 754.032 34.9438 753.574 34.4801L752.862 35.1831ZM755.98 37.8089C756.539 38.1987 757.114 38.5625 757.704 38.8993L758.2 38.0309C757.636 37.7089 757.086 37.3613 756.552 36.9887L755.98 37.8089ZM759.519 39.8301C760.138 40.1129 760.769 40.368 761.411 40.5942L761.743 39.6512C761.13 39.4349 760.527 39.1911 759.935 38.9206L759.519 39.8301ZM763.363 41.1856C764.021 41.3532 764.688 41.4913 765.36 41.5991L765.519 40.6117C764.876 40.5087 764.239 40.3767 763.609 40.2165L763.363 41.1856ZM767.387 41.8303C768.064 41.8764 768.745 41.892 769.427 41.8761L769.404 40.8764C768.752 40.8916 768.102 40.8767 767.455 40.8326L767.387 41.8303ZM771.464 41.7351C772.136 41.6574 772.807 41.5486 773.477 41.4079L773.271 40.4292C772.632 40.5636 771.991 40.6675 771.349 40.7417L771.464 41.7351ZM775.453 40.8967C776.098 40.698 776.738 40.4685 777.373 40.2075L776.993 39.2826C776.386 39.5321 775.774 39.7513 775.159 39.9411L775.453 40.8967ZM779.223 39.348C779.523 39.1917 779.822 39.0279 780.118 38.8565L779.618 37.9906C779.334 38.1546 779.048 38.3113 778.761 38.4608L779.223 39.348ZM780.118 38.8565L781.025 38.333L780.524 37.4671L779.618 37.9906L780.118 38.8565ZM782.837 37.2861L784.649 36.2391L784.149 35.3732L782.337 36.4201L782.837 37.2861ZM786.462 35.1921L788.274 34.1452L787.774 33.2793L785.962 34.3262L786.462 35.1921ZM790.087 33.0982L791.899 32.0513L791.399 31.1854L789.587 32.2323L790.087 33.0982ZM793.712 31.0043L795.524 29.9574L795.024 29.0915L793.211 30.1384L793.712 31.0043ZM797.336 28.9104L799.149 27.8635L798.649 26.9976L796.836 28.0445L797.336 28.9104ZM800.961 26.8165L801.868 26.293L801.367 25.4271L800.461 25.9506L800.961 26.8165ZM801.868 26.293C802.161 26.1237 802.456 25.9594 802.752 25.8001L802.279 24.9191C801.973 25.0833 801.669 25.2526 801.367 25.4271L801.868 26.293ZM804.562 24.8996C805.178 24.6168 805.799 24.3547 806.426 24.1133L806.066 23.1802C805.42 23.4291 804.78 23.6993 804.145 23.9908L804.562 24.8996ZM808.334 23.4461C808.979 23.2429 809.629 23.0608 810.281 22.8996L810.041 21.9288C809.369 22.0949 808.699 22.2827 808.033 22.4922L808.334 23.4461ZM812.258 22.4769C812.923 22.3565 813.59 22.2573 814.258 22.1791L814.142 21.1859C813.453 21.2664 812.766 21.3687 812.08 21.4929L812.258 22.4769ZM816.273 22.0074C816.947 21.9712 817.622 21.9561 818.295 21.9621L818.304 20.9621C817.61 20.956 816.914 20.9715 816.219 21.0088L816.273 22.0074ZM820.316 22.0432C820.988 22.0913 821.659 22.1604 822.327 22.2503L822.461 21.2592C821.772 21.1666 821.08 21.0954 820.387 21.0458L820.316 22.0432ZM824.322 22.5824C824.983 22.7138 825.64 22.8658 826.292 23.0383L826.548 22.0716C825.876 21.8937 825.198 21.737 824.517 21.6016L824.322 22.5824ZM828.23 23.6162C828.869 23.8288 829.502 24.0614 830.128 24.3141L830.502 23.3868C829.857 23.1263 829.204 22.8864 828.546 22.6673L828.23 23.6162ZM831.979 25.1294C832.585 25.4198 833.184 25.7298 833.774 26.0592L834.262 25.186C833.653 24.8464 833.036 24.5268 832.41 24.2273L831.979 25.1294ZM835.508 27.0996C836.073 27.4635 836.628 27.8462 837.173 28.2476L837.766 27.4425C837.205 27.0287 836.632 26.634 836.049 26.2588L835.508 27.0996ZM838.762 29.497C839.276 29.9283 839.779 30.3776 840.27 30.8447L840.96 30.1202C840.454 29.6387 839.935 29.1755 839.404 28.7308L838.762 29.497ZM841.691 32.2831C841.92 32.5298 842.146 32.7808 842.368 33.036L843.122 32.3789C842.893 32.1159 842.66 31.8572 842.424 31.6029L841.691 32.2831ZM842.368 33.036C842.593 33.2938 842.821 33.5474 843.052 33.7967L843.785 33.117C843.561 32.875 843.34 32.629 843.122 32.3789L842.368 33.036ZM844.485 35.2518C844.981 35.7245 845.488 36.1797 846.006 36.6172L846.651 35.853C846.148 35.4286 845.656 34.9871 845.176 34.5285L844.485 35.2518ZM847.607 37.8858C848.156 38.2937 848.715 38.6833 849.285 39.0542L849.831 38.2165C849.279 37.8567 848.736 37.4789 848.204 37.0833L847.607 37.8858ZM851.03 40.1166C851.624 40.4535 852.226 40.7713 852.837 41.0698L853.276 40.1713C852.684 39.8818 852.099 39.5736 851.523 39.2468L851.03 40.1166ZM854.7 41.91C855.33 42.1712 855.967 42.4127 856.611 42.6343L856.936 41.6888C856.312 41.4739 855.694 41.2396 855.083 40.9862L854.7 41.91ZM858.562 43.2402C859.219 43.4223 859.88 43.5841 860.547 43.7256L860.754 42.7474C860.108 42.6102 859.466 42.4532 858.829 42.2766L858.562 43.2402ZM862.557 44.0888C863.231 44.1892 863.907 44.2691 864.586 44.3283L864.673 43.3321C864.015 43.2747 863.358 43.1972 862.705 43.0997L862.557 44.0888ZM866.626 44.4432C867.307 44.4607 867.988 44.4573 868.67 44.433L868.634 43.4336C867.973 43.4572 867.312 43.4605 866.652 43.4436L866.626 44.4432ZM870.708 44.2974C871.385 44.2315 872.061 44.1447 872.735 44.0368L872.577 43.0493C871.923 43.154 871.268 43.2382 870.612 43.3022L870.708 44.2974ZM874.742 43.652C875.405 43.5035 876.065 43.3343 876.722 43.144L876.444 42.1835C875.807 42.368 875.166 42.5322 874.523 42.6762L874.742 43.652ZM878.665 42.5156C879.304 42.2871 879.939 42.0381 880.568 41.7685L880.174 40.8493C879.564 41.1109 878.948 41.3524 878.329 41.5741L878.665 42.5156ZM882.42 40.9068C882.724 40.754 883.026 40.5962 883.326 40.4333L882.85 39.5541C882.558 39.7121 882.265 39.8652 881.971 40.0134L882.42 40.9068ZM883.326 40.4333L884.216 39.9514L883.74 39.0721L882.85 39.5541L883.326 40.4333ZM885.996 38.9876L887.775 38.0237L887.299 37.1444L885.519 38.1083L885.996 38.9876ZM889.554 37.0599L891.334 36.096L890.858 35.2168L889.078 36.1806L889.554 37.0599ZM893.113 35.1322L894.893 34.1684L894.416 33.2891L892.637 34.2529L893.113 35.1322ZM896.672 33.2045L898.451 32.2407L897.975 31.3614L896.196 32.3252L896.672 33.2045ZM900.231 31.2768L902.01 30.313L901.534 29.4337L899.755 30.3975L900.231 31.2768ZM903.79 29.3491L905.569 28.3853L905.093 27.506L903.313 28.4698L903.79 29.3491ZM907.349 27.4214L908.238 26.9395L907.762 26.0602L906.872 26.5422L907.349 27.4214ZM69.3836 41.9065L69.4624 41.4127L69.3836 41.9065ZM112.066 39.4595L112.201 39.941L112.066 39.4595ZM182.502 19.7613L182.367 19.2798L182.502 19.7613ZM235.546 19.5353L235.676 19.0526L235.546 19.5353ZM304.383 38.1551L304.513 37.6725L304.383 38.1551ZM357.532 37.8993L357.397 37.4179L357.532 37.8993ZM423.846 19.275L423.982 19.7563L423.846 19.275ZM473.433 18.1253L473.546 17.6382L473.433 18.1253ZM533.092 31.9328L532.979 32.4199L533.092 31.9328ZM591.628 27.8082L591.807 28.2747L591.628 27.8082ZM645.427 7.057L645.247 6.5905L645.427 7.057ZM691.779 2.73428L691.87 2.24255L691.779 2.73428ZM730.606 9.88588L730.696 9.39415L730.606 9.88588ZM779.868 38.4235L779.618 37.9906L779.868 38.4235ZM801.617 25.8601L801.868 26.293L801.868 26.293L801.617 25.8601ZM883.088 39.9937L882.85 39.5541L883.088 39.9937ZM908.479 26.6424C908.558 26.3777 908.407 26.0993 908.143 26.0206L903.829 24.7382C903.564 24.6596 903.286 24.8103 903.207 25.075C903.129 25.3397 903.279 25.6181 903.544 25.6968L907.378 26.8367L906.238 30.6708C906.16 30.9355 906.311 31.2139 906.575 31.2926C906.84 31.3713 907.118 31.2205 907.197 30.9558L908.479 26.6424ZM842.745 32.7075L843.122 32.3789L842.745 32.7075ZM747.751 25.4462L747.27 25.5839L747.27 25.5839L747.751 25.4462ZM0.921288 31.4936L1.92693 31.654L2.08443 30.6665L1.07879 30.5061L0.921288 31.4936ZM3.93821 31.9748L5.94949 32.2956L6.10699 31.3081L4.09571 30.9873L3.93821 31.9748ZM7.96078 32.6164L9.97206 32.9371L10.1296 31.9496L8.11828 31.6288L7.96078 32.6164ZM11.9833 33.2579L13.9946 33.5787L14.1521 32.5912L12.1408 32.2704L11.9833 33.2579ZM16.0059 33.8995L18.0172 34.2203L18.1747 33.2328L16.1634 32.912L16.0059 33.8995ZM20.0285 34.5411L22.0398 34.8618L22.1973 33.8743L20.186 33.5535L20.0285 34.5411ZM24.051 35.1826L26.0623 35.5034L26.2198 34.5159L24.2085 34.1951L24.051 35.1826ZM28.0736 35.8242L30.0849 36.145L30.2424 35.1575L28.2311 34.8367L28.0736 35.8242ZM32.0962 36.4658L34.1074 36.7865L34.265 35.799L32.2537 35.4782L32.0962 36.4658ZM36.1187 37.1073L38.13 37.4281L38.2875 36.4406L36.2762 36.1198L36.1187 37.1073ZM40.1413 37.7489L42.1526 38.0697L42.3101 37.0821L40.2988 36.7614L40.1413 37.7489ZM44.1639 38.3904L46.1751 38.7112L46.3326 37.7237L44.3214 37.4029L44.1639 38.3904ZM48.1864 39.032L50.1977 39.3528L50.3552 38.3653L48.3439 38.0445L48.1864 39.032ZM52.209 39.6736L54.2203 39.9944L54.3778 39.0068L52.3665 38.6861L52.209 39.6736ZM56.2315 40.3151L58.2428 40.6359L58.4003 39.6484L56.389 39.3276L56.2315 40.3151ZM60.2541 40.9567L62.2654 41.2775L62.4229 40.29L60.4116 39.9692L60.2541 40.9567ZM64.2767 41.5983L66.288 41.919L66.4455 40.9315L64.4342 40.6107L64.2767 41.5983ZM68.2992 42.2398L69.3049 42.4002L69.4624 41.4127L68.4567 41.2523L68.2992 42.2398ZM69.3049 42.4002C69.6289 42.4519 69.9532 42.502 70.2775 42.5505L70.4254 41.5615C70.1042 41.5135 69.7832 41.4639 69.4624 41.4127L69.3049 42.4002ZM72.2268 42.8223C72.8778 42.9066 73.5292 42.9845 74.1811 43.056L74.2901 42.0619C73.6447 41.9912 72.9997 41.9141 72.3553 41.8306L72.2268 42.8223ZM76.1395 43.2513C76.7932 43.3101 77.4472 43.3624 78.1015 43.4083L78.1715 42.4107C77.5237 42.3653 76.8762 42.3135 76.229 42.2553L76.1395 43.2513ZM80.066 43.5267C80.7215 43.5598 81.377 43.5865 82.0326 43.6067L82.0635 42.6072C81.4144 42.5872 80.7654 42.5608 80.1165 42.528L80.066 43.5267ZM84.0004 43.6482C84.6565 43.6556 85.3126 43.6566 85.9686 43.6511L85.9603 42.6512C85.3108 42.6565 84.6612 42.6556 84.0116 42.6483L84.0004 43.6482ZM87.9364 43.6155C88.5923 43.5972 89.2479 43.5725 89.9032 43.5413L89.8557 42.5425C89.207 42.5733 88.5579 42.5978 87.9085 42.6159L87.9364 43.6155ZM91.8681 43.4287C92.5227 43.3847 93.1769 43.3344 93.8305 43.2776L93.744 42.2813C93.0968 42.3375 92.4492 42.3874 91.8011 42.4309L91.8681 43.4287ZM95.7895 43.0881C96.4418 43.0185 97.0935 42.9426 97.7445 42.8602L97.619 41.8681C96.9745 41.9497 96.3293 42.0249 95.6835 42.0937L95.7895 43.0881ZM99.6946 42.5942C100.344 42.4991 100.992 42.3977 101.639 42.29L101.475 41.3035C100.834 41.4102 100.192 41.5106 99.5497 41.6047L99.6946 42.5942ZM103.577 41.9477C104.222 41.8274 104.866 41.7007 105.508 41.5676L105.306 40.5884C104.669 40.7201 104.032 40.8455 103.394 40.9647L103.577 41.9477ZM107.432 41.1497C108.071 41.0042 108.709 40.8524 109.347 40.6943L109.106 39.7237C108.475 39.8803 107.843 40.0306 107.21 40.1747L107.432 41.1497ZM111.252 40.2014C111.569 40.1162 111.885 40.0294 112.201 39.941L111.932 38.9779C111.619 39.0654 111.306 39.1514 110.992 39.2358L111.252 40.2014ZM112.201 39.941L113.179 39.6674L112.91 38.7043L111.932 38.9779L112.201 39.941ZM115.136 39.1202L117.092 38.5731L116.823 37.61L114.867 38.1572L115.136 39.1202ZM119.049 38.0259L121.006 37.4787L120.736 36.5157L118.78 37.0628L119.049 38.0259ZM122.962 36.9315L124.919 36.3844L124.649 35.4213L122.693 35.9685L122.962 36.9315ZM126.875 35.8372L128.832 35.29L128.562 34.327L126.606 34.8742L126.875 35.8372ZM130.788 34.7429L132.745 34.1957L132.476 33.2326L130.519 33.7798L130.788 34.7429ZM134.701 33.6485L136.658 33.1014L136.389 32.1383L134.432 32.6855L134.701 33.6485ZM138.614 32.5542L140.571 32.007L140.302 31.044L138.345 31.5911L138.614 32.5542ZM142.528 31.4599L144.484 30.9127L144.215 29.9496L142.258 30.4968L142.528 31.4599ZM146.441 30.3655L148.397 29.8183L148.128 28.8553L146.171 29.4025L146.441 30.3655ZM150.354 29.2712L152.31 28.724L152.041 27.761L150.084 28.3081L150.354 29.2712ZM154.267 28.1768L156.223 27.6297L155.954 26.6666L153.998 27.2138L154.267 28.1768ZM158.18 27.0825L160.136 26.5353L159.867 25.5723L157.911 26.1194L158.18 27.0825ZM162.093 25.9882L164.05 25.441L163.78 24.4779L161.824 25.0251L162.093 25.9882ZM166.006 24.8938L167.963 24.3466L167.693 23.3836L165.737 23.9308L166.006 24.8938ZM169.919 23.7995L171.876 23.2523L171.606 22.2893L169.65 22.8364L169.919 23.7995ZM173.832 22.7051L175.789 22.158L175.52 21.1949L173.563 21.7421L173.832 22.7051ZM177.745 21.6108L179.702 21.0636L179.433 20.1006L177.476 20.6478L177.745 21.6108ZM181.658 20.5165L182.637 20.2429L182.367 19.2798L181.389 19.5534L181.658 20.5165ZM182.637 20.2429C182.967 20.1506 183.297 20.0601 183.628 19.9713L183.368 19.0055C183.034 19.0952 182.701 19.1866 182.367 19.2798L182.637 20.2429ZM185.617 19.4589C186.283 19.2949 186.949 19.1378 187.617 18.9877L187.398 18.0121C186.723 18.1637 186.05 18.3223 185.378 18.488L185.617 19.4589ZM189.626 18.5579C190.297 18.4215 190.97 18.2921 191.644 18.1697L191.465 17.1858C190.784 17.3095 190.105 17.4402 189.427 17.5779L189.626 18.5579ZM193.669 17.8232C194.345 17.7147 195.022 17.6132 195.7 17.5187L195.562 16.5282C194.877 16.6237 194.193 16.7262 193.51 16.8359L193.669 17.8232ZM197.738 17.2561C198.418 17.1756 199.099 17.1021 199.781 17.0357L199.684 16.0404C198.995 16.1075 198.308 16.1817 197.62 16.263L197.738 17.2561ZM201.827 16.8575C202.51 16.8051 203.194 16.7598 203.877 16.7215L203.821 15.7231C203.131 15.7617 202.441 15.8075 201.751 15.8604L201.827 16.8575ZM205.93 16.628C206.614 16.6039 207.299 16.5868 207.984 16.5768L207.969 15.5769C207.277 15.587 206.586 15.6042 205.894 15.6286L205.93 16.628ZM210.038 16.568C210.723 16.5722 211.408 16.5834 212.092 16.6017L212.119 15.6021C211.427 15.5836 210.736 15.5723 210.044 15.5681L210.038 16.568ZM214.145 16.6778C214.829 16.7102 215.513 16.7497 216.196 16.7962L216.264 15.7985C215.574 15.7515 214.883 15.7116 214.193 15.6789L214.145 16.6778ZM218.245 16.957C218.927 17.0176 219.608 17.0853 220.289 17.16L220.398 16.166C219.71 16.0905 219.022 16.0221 218.333 15.9609L218.245 16.957ZM222.329 17.4052C223.008 17.4939 223.686 17.5896 224.363 17.6924L224.513 16.7037C223.829 16.5999 223.144 16.5032 222.458 16.4136L222.329 17.4052ZM226.391 18.0216C227.066 18.1383 227.739 18.2619 228.412 18.3926L228.602 17.411C227.923 17.279 227.243 17.1541 226.561 17.0362L226.391 18.0216ZM230.424 18.8053C231.093 18.9497 231.761 19.101 232.428 19.2594L232.659 18.2865C231.986 18.1265 231.311 17.9736 230.635 17.8278L230.424 18.8053ZM234.422 19.7548C234.753 19.8407 235.084 19.9285 235.415 20.0179L235.676 19.0526C235.342 18.9623 235.008 18.8737 234.673 18.7868L234.422 19.7548ZM235.415 20.0179L236.371 20.2765L236.632 19.3112L235.676 19.0526L235.415 20.0179ZM238.283 20.7938L240.195 21.311L240.457 20.3457L238.544 19.8284L238.283 20.7938ZM242.108 21.8282L244.02 22.3454L244.281 21.3801L242.369 20.8629L242.108 21.8282ZM245.932 22.8626L247.844 23.3798L248.105 22.4145L246.193 21.8973L245.932 22.8626ZM249.756 23.8971L251.668 24.4143L251.929 23.449L250.017 22.9317L249.756 23.8971ZM253.58 24.9315L255.493 25.4487L255.754 24.4834L253.842 23.9662L253.58 24.9315ZM257.405 25.9659L259.317 26.4831L259.578 25.5178L257.666 25.0006L257.405 25.9659ZM261.229 27.0004L263.141 27.5176L263.402 26.5523L261.49 26.0351L261.229 27.0004ZM265.053 28.0348L266.965 28.552L267.227 27.5867L265.314 27.0695L265.053 28.0348ZM268.878 29.0692L270.79 29.5865L271.051 28.6211L269.139 28.1039L268.878 29.0692ZM272.702 30.1037L274.614 30.6209L274.875 29.6556L272.963 29.1384L272.702 30.1037ZM276.526 31.1381L278.438 31.6553L278.699 30.69L276.787 30.1728L276.526 31.1381ZM280.35 32.1725L282.263 32.6898L282.524 31.7245L280.611 31.2072L280.35 32.1725ZM284.175 33.207L286.087 33.7242L286.348 32.7589L284.436 32.2417L284.175 33.207ZM287.999 34.2414L289.911 34.7586L290.172 33.7933L288.26 33.2761L287.999 34.2414ZM291.823 35.2759L293.735 35.7931L293.996 34.8278L292.084 34.3105L291.823 35.2759ZM295.648 36.3103L297.56 36.8275L297.821 35.8622L295.909 35.345L295.648 36.3103ZM299.472 37.3447L301.384 37.862L301.645 36.8966L299.733 36.3794L299.472 37.3447ZM303.296 38.3792L304.252 38.6378L304.513 37.6725L303.557 37.4139L303.296 38.3792ZM304.252 38.6378C304.587 38.7283 304.922 38.8171 305.257 38.9041L305.508 37.9362C305.176 37.85 304.845 37.7621 304.513 37.6725L304.252 38.6378ZM307.275 39.4054C307.95 39.5656 308.626 39.7188 309.303 39.8648L309.514 38.8873C308.844 38.7427 308.174 38.5911 307.506 38.4325L307.275 39.4054ZM311.34 40.2823C312.021 40.4144 312.703 40.5395 313.386 40.6574L313.556 39.672C312.88 39.5552 312.205 39.4314 311.531 39.3006L311.34 40.2823ZM315.438 40.9902C316.124 41.094 316.81 41.1908 317.497 41.2804L317.627 40.2888C316.946 40.2001 316.267 40.1043 315.588 40.0014L315.438 40.9902ZM319.562 41.5279C320.251 41.6033 320.941 41.6716 321.631 41.7327L321.72 40.7366C321.036 40.6761 320.353 40.6085 319.671 40.5338L319.562 41.5279ZM323.704 41.8946C324.396 41.9414 325.088 41.9811 325.78 42.0136L325.827 41.0147C325.142 40.9825 324.457 40.9433 323.772 40.8969L323.704 41.8946ZM327.858 42.0896C328.551 42.1078 329.244 42.1188 329.938 42.1226L329.943 41.1226C329.257 41.1188 328.571 41.108 327.885 41.09L327.858 42.0896ZM332.017 42.1126C332.71 42.1021 333.403 42.0844 334.096 42.0596L334.06 41.0602C333.374 41.0848 332.688 41.1023 332.002 41.1127L332.017 42.1126ZM336.173 41.9636C336.865 41.9244 337.556 41.8781 338.248 41.8246L338.17 40.8276C337.486 40.8805 336.801 40.9264 336.116 40.9652L336.173 41.9636ZM340.319 41.6427C341.009 41.575 341.698 41.5001 342.386 41.4181L342.268 40.4251C341.586 40.5063 340.904 40.5805 340.221 40.6475L340.319 41.6427ZM344.448 41.1506C345.135 41.0544 345.82 40.9511 346.505 40.8406L346.345 39.8534C345.667 39.9628 344.989 40.0651 344.31 40.1603L344.448 41.1506ZM348.554 40.4881C349.235 40.3636 349.916 40.232 350.595 40.0933L350.395 39.1135C349.723 39.2509 349.049 39.3812 348.374 39.5044L348.554 40.4881ZM352.628 39.6563C353.304 39.5037 353.979 39.3441 354.652 39.1774L354.411 38.2067C353.745 38.3717 353.077 38.5298 352.408 38.6809L352.628 39.6563ZM356.665 38.6567C357 38.5664 357.334 38.4744 357.668 38.3807L357.397 37.4179C357.067 37.5107 356.736 37.6018 356.405 37.6912L356.665 38.6567ZM357.668 38.3807L358.643 38.1068L358.372 37.144L357.397 37.4179L357.668 38.3807ZM360.593 37.559L362.544 37.0112L362.273 36.0485L360.323 36.5962L360.593 37.559ZM364.494 36.4635L366.444 35.9157L366.174 34.9529L364.224 35.5007L364.494 36.4635ZM368.395 35.3679L370.345 34.8201L370.075 33.8574L368.124 34.4052L368.395 35.3679ZM372.296 34.2724L374.246 33.7246L373.976 32.7618L372.025 33.3096L372.296 34.2724ZM376.197 33.1768L378.147 32.629L377.877 31.6663L375.926 32.2141L376.197 33.1768ZM380.097 32.0813L382.048 31.5335L381.777 30.5707L379.827 31.1185L380.097 32.0813ZM383.998 30.9857L385.949 30.4379L385.678 29.4752L383.728 30.023L383.998 30.9857ZM387.899 29.8902L389.849 29.3424L389.579 28.3796L387.629 28.9274L387.899 29.8902ZM391.8 28.7946L393.75 28.2468L393.48 27.2841L391.529 27.8319L391.8 28.7946ZM395.701 27.6991L397.651 27.1513L397.381 26.1885L395.43 26.7363L395.701 27.6991ZM399.601 26.6035L401.552 26.0557L401.282 25.093L399.331 25.6408L399.601 26.6035ZM403.502 25.508L405.453 24.9602L405.182 23.9974L403.232 24.5452L403.502 25.508ZM407.403 24.4124L409.354 23.8646L409.083 22.9019L407.133 23.4497L407.403 24.4124ZM411.304 23.3169L413.254 22.7691L412.984 21.8064L411.034 22.3541L411.304 23.3169ZM415.205 22.2213L417.155 21.6736L416.885 20.7108L414.934 21.2586L415.205 22.2213ZM419.106 21.1258L421.056 20.578L420.786 19.6153L418.835 20.163L419.106 21.1258ZM423.006 20.0302L423.982 19.7563L423.711 18.7936L422.736 19.0675L423.006 20.0302ZM423.982 19.7563C424.29 19.6699 424.598 19.5849 424.906 19.5014L424.645 18.5361C424.334 18.6204 424.022 18.7062 423.711 18.7936L423.982 19.7563ZM426.763 19.0185C427.383 18.8634 428.005 18.7144 428.628 18.5714L428.404 17.5968C427.775 17.7411 427.147 17.8917 426.52 18.0483L426.763 19.0185ZM430.502 18.1604C431.128 18.0293 431.755 17.9044 432.383 17.7855L432.197 16.803C431.563 16.923 430.929 17.0492 430.297 17.1816L430.502 18.1604ZM434.271 17.447C434.901 17.3402 435.533 17.2395 436.165 17.145L436.017 16.156C435.379 16.2515 434.741 16.3532 434.104 16.461L434.271 17.447ZM438.065 16.8795C438.699 16.7971 439.334 16.7208 439.969 16.6507L439.859 15.6567C439.218 15.7276 438.576 15.8046 437.936 15.8878L438.065 16.8795ZM441.878 16.4586C442.515 16.4008 443.152 16.349 443.79 16.3034L443.718 15.306C443.074 15.352 442.43 15.4043 441.787 15.4627L441.878 16.4586ZM445.704 16.1851C446.343 16.1518 446.981 16.1246 447.62 16.1037L447.588 15.1042C446.942 15.1254 446.297 15.1528 445.652 15.1864L445.704 16.1851ZM449.538 16.0592C450.177 16.0506 450.817 16.0481 451.456 16.0517L451.462 15.0517C450.816 15.048 450.17 15.0506 449.525 15.0593L449.538 16.0592ZM453.374 16.0812C454.013 16.0972 454.652 16.1193 455.291 16.1477L455.335 15.1486C454.69 15.12 454.045 15.0977 453.399 15.0815L453.374 16.0812ZM457.206 16.2511C457.844 16.2917 458.482 16.3384 459.119 16.3914L459.202 15.3948C458.558 15.3413 457.914 15.2941 457.27 15.2531L457.206 16.2511ZM461.029 16.5685C461.665 16.6337 462.301 16.705 462.936 16.7824L463.057 15.7898C462.415 15.7116 461.774 15.6395 461.131 15.5737L461.029 16.5685ZM464.837 17.0331C465.47 17.1227 466.102 17.2185 466.734 17.3203L466.893 16.3331C466.255 16.2302 465.617 16.1335 464.977 16.043L464.837 17.0331ZM468.624 17.6441C469.253 17.7581 469.881 17.8781 470.508 18.0043L470.706 17.0239C470.072 16.8965 469.438 16.7752 468.803 16.6602L468.624 17.6441ZM472.385 18.4007C472.697 18.4697 473.009 18.5403 473.321 18.6125L473.546 17.6382C473.231 17.5654 472.916 17.4941 472.601 17.4243L472.385 18.4007ZM473.321 18.6125L474.315 18.8426L474.541 17.8683L473.546 17.6382L473.321 18.6125ZM476.304 19.3028L478.292 19.7631L478.518 18.7888L476.529 18.3286L476.304 19.3028ZM480.281 20.2233L482.27 20.6836L482.495 19.7093L480.506 19.2491L480.281 20.2233ZM484.258 21.1438L486.247 21.6041L486.472 20.6298L484.484 20.1696L484.258 21.1438ZM488.235 22.0643L490.224 22.5246L490.449 21.5503L488.461 21.0901L488.235 22.0643ZM492.213 22.9848L494.201 23.4451L494.427 22.4708L492.438 22.0106L492.213 22.9848ZM496.19 23.9053L498.179 24.3656L498.404 23.3913L496.415 22.9311L496.19 23.9053ZM500.167 24.8258L502.156 25.2861L502.381 24.3118L500.393 23.8516L500.167 24.8258ZM504.144 25.7463L506.133 26.2066L506.359 25.2323L504.37 24.7721L504.144 25.7463ZM508.122 26.6668L510.11 27.1271L510.336 26.1528L508.347 25.6926L508.122 26.6668ZM512.099 27.5873L514.088 28.0476L514.313 27.0733L512.324 26.6131L512.099 27.5873ZM516.076 28.5078L518.065 28.9681L518.29 27.9938L516.302 27.5336L516.076 28.5078ZM520.053 29.4283L522.042 29.8886L522.268 28.9143L520.279 28.4541L520.053 29.4283ZM524.031 30.3488L526.019 30.8091L526.245 29.8348L524.256 29.3746L524.031 30.3488ZM528.008 31.2693L529.997 31.7296L530.222 30.7553L528.233 30.2951L528.008 31.2693ZM531.985 32.1898L532.979 32.4199L533.205 31.4457L532.211 31.2156L531.985 32.1898ZM532.979 32.4199C533.304 32.495 533.628 32.5684 533.953 32.6401L534.169 31.6637C533.847 31.5926 533.526 31.52 533.205 31.4457L532.979 32.4199ZM535.905 33.0513C536.558 33.182 537.211 33.3061 537.865 33.4237L538.042 32.4394C537.394 32.3231 536.747 32.2002 536.101 32.0708L535.905 33.0513ZM539.832 33.757C540.489 33.8617 541.147 33.9598 541.805 34.0513L541.943 33.0608C541.291 32.9702 540.64 32.8731 539.989 32.7695L539.832 33.757ZM543.784 34.3063C544.445 34.3848 545.106 34.4567 545.767 34.522L545.866 33.5269C545.211 33.4622 544.556 33.391 543.902 33.3133L543.784 34.3063ZM547.755 34.6983C548.418 34.7505 549.081 34.7961 549.745 34.8351L549.804 33.8368C549.147 33.7982 548.49 33.7531 547.833 33.7014L547.755 34.6983ZM551.738 34.9323C552.403 34.9581 553.067 34.9774 553.732 34.99L553.751 33.9902C553.093 33.9777 552.435 33.9586 551.777 33.9331L551.738 34.9323ZM555.727 35.008C556.392 35.0075 557.057 35.0003 557.722 34.9865L557.702 33.9867C557.043 34.0004 556.385 34.0075 555.726 34.008L555.727 35.008ZM559.716 34.9254C560.381 34.8984 561.045 34.8648 561.709 34.8247L561.649 33.8265C560.991 33.8662 560.334 33.8995 559.676 33.9262L559.716 34.9254ZM563.699 34.6844C564.362 34.6311 565.024 34.5712 565.686 34.5047L565.586 33.5097C564.931 33.5755 564.275 33.6349 563.619 33.6877L563.699 34.6844ZM567.669 34.2856C568.329 34.206 568.989 34.1199 569.647 34.0272L569.508 33.0369C568.856 33.1287 568.203 33.214 567.549 33.2928L567.669 34.2856ZM571.62 33.7295C572.277 33.6238 572.932 33.5116 573.587 33.3928L573.408 32.4088C572.76 32.5265 572.111 32.6376 571.461 32.7423L571.62 33.7295ZM575.546 33.017C576.198 32.8854 576.848 32.7472 577.498 32.6025L577.28 31.6264C576.637 31.7697 575.993 31.9065 575.348 32.0369L575.546 33.017ZM579.441 32.1493C580.086 31.9919 580.731 31.828 581.374 31.6576L581.118 30.6909C580.481 30.8596 579.843 31.0219 579.204 31.1777L579.441 32.1493ZM583.298 31.1276C583.937 30.9447 584.574 30.7553 585.21 30.5595L584.916 29.6038C584.286 29.7977 583.655 29.9851 583.022 30.1662L583.298 31.1276ZM587.111 29.9536C587.742 29.7455 588.372 29.531 588.999 29.3101L588.667 28.3668C588.046 28.5855 587.423 28.7979 586.798 29.0039L587.111 29.9536ZM590.875 28.6292C591.186 28.5126 591.497 28.3945 591.807 28.2747L591.448 27.3417C591.14 27.4603 590.832 27.5773 590.524 27.6927L590.875 28.6292ZM591.807 28.2747L592.768 27.9042L592.408 26.9712L591.448 27.3417L591.807 28.2747ZM594.69 27.163L596.611 26.4219L596.251 25.4889L594.33 26.23L594.69 27.163ZM598.532 25.6808L600.454 24.9397L600.094 24.0067L598.173 24.7478L598.532 25.6808ZM602.375 24.1986L604.297 23.4575L603.937 22.5245L602.015 23.2656L602.375 24.1986ZM606.218 22.7164L608.139 21.9752L607.78 21.0422L605.858 21.7834L606.218 22.7164ZM610.061 21.2341L611.982 20.493L611.622 19.56L609.701 20.3011L610.061 21.2341ZM613.904 19.7519L615.825 19.0108L615.465 18.0778L613.544 18.8189L613.904 19.7519ZM617.746 18.2697L619.668 17.5285L619.308 16.5955L617.387 17.3367L617.746 18.2697ZM621.589 16.7874L623.511 16.0463L623.151 15.1133L621.229 15.8544L621.589 16.7874ZM625.432 15.3052L627.353 14.5641L626.994 13.6311L625.072 14.3722L625.432 15.3052ZM629.275 13.823L631.196 13.0819L630.836 12.1489L628.915 12.89L629.275 13.823ZM633.118 12.3407L635.039 11.5996L634.679 10.6666L632.758 11.4077L633.118 12.3407ZM636.961 10.8585L638.882 10.1174L638.522 9.1844L636.601 9.92551L636.961 10.8585ZM640.803 9.37628L642.725 8.63517L642.365 7.70217L640.444 8.44328L640.803 9.37628ZM644.646 7.89405L645.607 7.5235L645.247 6.5905L644.286 6.96105L644.646 7.89405ZM645.607 7.5235C645.911 7.40629 646.215 7.29088 646.52 7.17725L646.171 6.24019C645.862 6.35515 645.554 6.47192 645.247 6.5905L645.607 7.5235ZM648.358 6.51647C648.973 6.30306 649.591 6.09686 650.21 5.89789L649.904 4.9458C649.278 5.14711 648.653 5.35573 648.03 5.57165L648.358 6.51647ZM652.076 5.32198C652.701 5.13707 653.327 4.95942 653.955 4.78905L653.693 3.82394C653.058 3.99631 652.424 4.17605 651.792 4.36313L652.076 5.32198ZM655.845 4.29927C656.478 4.14319 657.111 3.99443 657.747 3.853L657.529 2.8769C656.887 3.02 656.245 3.17051 655.606 3.32842L655.845 4.29927ZM659.657 3.45045C660.296 3.32353 660.936 3.20397 661.577 3.09179L661.405 2.10676C660.756 2.22026 660.109 2.34122 659.463 2.46963L659.657 3.45045ZM663.505 2.77725C664.148 2.67976 664.793 2.58967 665.439 2.50698L665.312 1.51508C664.658 1.59874 664.006 1.68989 663.355 1.78852L663.505 2.77725ZM667.378 2.28111C668.026 2.21324 668.674 2.15279 669.323 2.09978L669.241 1.1031C668.585 1.15673 667.929 1.21789 667.274 1.28656L667.378 2.28111ZM671.271 1.96306C671.921 1.92494 672.571 1.89427 673.222 1.87105L673.186 0.871681C672.528 0.895174 671.87 0.926211 671.212 0.964779L671.271 1.96306ZM675.174 1.82377C675.825 1.81548 676.476 1.81464 677.127 1.82127L677.137 0.821321C676.478 0.814612 675.82 0.81546 675.161 0.823852L675.174 1.82377ZM679.079 1.86354C679.73 1.88508 680.38 1.91409 681.03 1.95057L681.086 0.952137C680.428 0.915231 679.77 0.885885 679.112 0.864089L679.079 1.86354ZM682.979 2.08231C683.627 2.13364 684.276 2.19242 684.924 2.25868L685.025 1.26387C684.37 1.19683 683.714 1.13736 683.058 1.08543L682.979 2.08231ZM686.864 2.4796C687.51 2.56061 688.154 2.64907 688.799 2.74498L688.946 1.75588C688.294 1.65884 687.642 1.56934 686.988 1.48739L686.864 2.4796ZM690.727 3.05459C691.048 3.10987 691.368 3.16701 691.688 3.226L691.87 2.24255C691.546 2.18286 691.221 2.12505 690.897 2.06913L690.727 3.05459ZM691.688 3.226L692.659 3.40479L692.84 2.42134L691.87 2.24255L691.688 3.226ZM694.6 3.76237L696.542 4.11995L696.723 3.1365L694.782 2.77892L694.6 3.76237ZM698.483 4.47753L700.424 4.83511L700.606 3.85166L698.664 3.49408L698.483 4.47753ZM702.366 5.19269L704.307 5.55027L704.488 4.56682L702.547 4.20924L702.366 5.19269ZM706.248 5.90785L708.19 6.26543L708.371 5.28198L706.43 4.9244L706.248 5.90785ZM710.131 6.62301L712.072 6.9806L712.254 5.99714L710.312 5.63956L710.131 6.62301ZM714.014 7.33818L715.955 7.69575L716.136 6.7123L714.195 6.35472L714.014 7.33818ZM717.896 8.05334L719.838 8.41092L720.019 7.42746L718.077 7.06988L717.896 8.05334ZM721.779 8.76849L723.72 9.12607L723.902 8.14262L721.96 7.78504L721.779 8.76849ZM725.662 9.48365L727.603 9.84123L727.784 8.85778L725.843 8.5002L725.662 9.48365ZM729.544 10.1988L730.515 10.3776L730.696 9.39415L729.726 9.21536L729.544 10.1988ZM730.515 10.3776C730.842 10.4378 731.166 10.5053 731.488 10.58L731.714 9.60592C731.377 9.52778 731.038 9.45713 730.696 9.39415L730.515 10.3776ZM733.398 11.1179C734.029 11.3275 734.647 11.5654 735.251 11.8302L735.653 10.9144C735.021 10.6373 734.374 10.3882 733.713 10.1689L733.398 11.1179ZM737.03 12.7108C737.61 13.0323 738.174 13.3799 738.72 13.7521L739.284 12.9259C738.712 12.5364 738.122 12.1726 737.515 11.8361L737.03 12.7108ZM740.307 14.9451C740.817 15.3669 741.308 15.8122 741.777 16.2793L742.483 15.5706C741.992 15.0818 741.478 14.6158 740.944 14.1744L740.307 14.9451ZM743.118 17.7434C743.541 18.2508 743.942 18.7784 744.318 19.3248L745.141 18.7579C744.748 18.186 744.329 17.6338 743.886 17.1028L743.118 17.7434ZM745.366 21.0103C745.688 21.5857 745.985 22.178 746.254 22.7859L747.168 22.3804C746.886 21.7442 746.576 21.1243 746.239 20.522L745.366 21.0103ZM746.974 24.6355C747.08 24.9483 747.178 25.2645 747.27 25.5839L748.231 25.3086C748.135 24.9743 748.032 24.6435 747.922 24.3162L746.974 24.6355ZM747.27 25.5839C747.364 25.9133 747.465 26.2386 747.573 26.5597L748.521 26.2422C748.418 25.9351 748.322 25.6238 748.231 25.3085L747.27 25.5839ZM748.306 28.4628C748.581 29.0916 748.883 29.7017 749.208 30.2923L750.084 29.8096C749.773 29.2454 749.485 28.6626 749.222 28.0617L748.306 28.4628ZM750.275 32.0327C750.658 32.5991 751.066 33.1441 751.495 33.6668L752.268 33.032C751.858 32.5329 751.469 32.0125 751.102 31.4717L750.275 32.0327ZM752.862 35.1831C753.342 35.6686 753.843 36.1302 754.361 36.5671L755.006 35.8022C754.51 35.3848 754.032 34.9438 753.574 34.4801L752.862 35.1831ZM755.98 37.8089C756.539 38.1987 757.114 38.5625 757.704 38.8993L758.2 38.0309C757.636 37.7089 757.086 37.3613 756.552 36.9887L755.98 37.8089ZM759.519 39.8301C760.138 40.1129 760.769 40.368 761.411 40.5942L761.743 39.6512C761.13 39.4349 760.527 39.1911 759.935 38.9206L759.519 39.8301ZM763.363 41.1856C764.021 41.3532 764.688 41.4913 765.36 41.5991L765.519 40.6117C764.876 40.5087 764.239 40.3767 763.609 40.2165L763.363 41.1856ZM767.387 41.8303C768.064 41.8764 768.745 41.892 769.427 41.8761L769.404 40.8764C768.752 40.8916 768.102 40.8767 767.455 40.8326L767.387 41.8303ZM771.464 41.7351C772.136 41.6574 772.807 41.5486 773.477 41.4079L773.271 40.4292C772.632 40.5636 771.991 40.6675 771.349 40.7417L771.464 41.7351ZM775.453 40.8967C776.098 40.698 776.738 40.4685 777.373 40.2075L776.993 39.2826C776.386 39.5321 775.774 39.7513 775.159 39.9411L775.453 40.8967ZM779.223 39.348C779.523 39.1917 779.822 39.0279 780.118 38.8565L779.618 37.9906C779.334 38.1546 779.048 38.3113 778.761 38.4608L779.223 39.348ZM780.118 38.8565L781.025 38.333L780.524 37.4671L779.618 37.9906L780.118 38.8565ZM782.837 37.2861L784.649 36.2391L784.149 35.3732L782.337 36.4201L782.837 37.2861ZM786.462 35.1921L788.274 34.1452L787.774 33.2793L785.962 34.3262L786.462 35.1921ZM790.087 33.0982L791.899 32.0513L791.399 31.1854L789.587 32.2323L790.087 33.0982ZM793.712 31.0043L795.524 29.9574L795.024 29.0915L793.211 30.1384L793.712 31.0043ZM797.336 28.9104L799.149 27.8635L798.649 26.9976L796.836 28.0445L797.336 28.9104ZM800.961 26.8165L801.868 26.293L801.367 25.4271L800.461 25.9506L800.961 26.8165ZM801.868 26.293C802.161 26.1237 802.456 25.9594 802.752 25.8001L802.279 24.9191C801.973 25.0833 801.669 25.2526 801.367 25.4271L801.868 26.293ZM804.562 24.8996C805.178 24.6168 805.799 24.3547 806.426 24.1133L806.066 23.1802C805.42 23.4291 804.78 23.6993 804.145 23.9908L804.562 24.8996ZM808.334 23.4461C808.979 23.2429 809.629 23.0608 810.281 22.8996L810.041 21.9288C809.369 22.0949 808.699 22.2827 808.033 22.4922L808.334 23.4461ZM812.258 22.4769C812.923 22.3565 813.59 22.2573 814.258 22.1791L814.142 21.1859C813.453 21.2664 812.766 21.3687 812.08 21.4929L812.258 22.4769ZM816.273 22.0074C816.947 21.9712 817.622 21.9561 818.295 21.9621L818.304 20.9621C817.61 20.956 816.914 20.9715 816.219 21.0088L816.273 22.0074ZM820.316 22.0432C820.988 22.0913 821.659 22.1604 822.327 22.2503L822.461 21.2592C821.772 21.1666 821.08 21.0954 820.387 21.0458L820.316 22.0432ZM824.322 22.5824C824.983 22.7138 825.64 22.8658 826.292 23.0383L826.548 22.0716C825.876 21.8937 825.198 21.737 824.517 21.6016L824.322 22.5824ZM828.23 23.6162C828.869 23.8288 829.502 24.0614 830.128 24.3141L830.502 23.3868C829.857 23.1263 829.204 22.8864 828.546 22.6673L828.23 23.6162ZM831.979 25.1294C832.585 25.4198 833.184 25.7298 833.774 26.0592L834.262 25.186C833.653 24.8464 833.036 24.5268 832.41 24.2273L831.979 25.1294ZM835.508 27.0996C836.073 27.4635 836.628 27.8462 837.173 28.2476L837.766 27.4425C837.205 27.0287 836.632 26.634 836.049 26.2588L835.508 27.0996ZM838.762 29.497C839.276 29.9283 839.779 30.3776 840.27 30.8447L840.96 30.1202C840.454 29.6387 839.935 29.1755 839.404 28.7308L838.762 29.497ZM841.691 32.2831C841.92 32.5298 842.146 32.7808 842.368 33.036L843.122 32.3789C842.893 32.1159 842.66 31.8572 842.424 31.6029L841.691 32.2831ZM842.368 33.036C842.593 33.2938 842.821 33.5474 843.052 33.7967L843.785 33.117C843.561 32.875 843.34 32.629 843.122 32.3789L842.368 33.036ZM844.485 35.2518C844.981 35.7245 845.488 36.1797 846.006 36.6172L846.651 35.853C846.148 35.4286 845.656 34.9871 845.176 34.5285L844.485 35.2518ZM847.607 37.8858C848.156 38.2937 848.715 38.6833 849.285 39.0542L849.831 38.2165C849.279 37.8567 848.736 37.4789 848.204 37.0833L847.607 37.8858ZM851.03 40.1166C851.624 40.4535 852.226 40.7713 852.837 41.0698L853.276 40.1713C852.684 39.8818 852.099 39.5736 851.523 39.2468L851.03 40.1166ZM854.7 41.91C855.33 42.1712 855.967 42.4127 856.611 42.6343L856.936 41.6888C856.312 41.4739 855.694 41.2396 855.083 40.9862L854.7 41.91ZM858.562 43.2402C859.219 43.4223 859.88 43.5841 860.547 43.7256L860.754 42.7474C860.108 42.6102 859.466 42.4532 858.829 42.2766L858.562 43.2402ZM862.557 44.0888C863.231 44.1892 863.907 44.2691 864.586 44.3283L864.673 43.3321C864.015 43.2747 863.358 43.1972 862.705 43.0997L862.557 44.0888ZM866.626 44.4432C867.307 44.4607 867.988 44.4573 868.67 44.433L868.634 43.4336C867.973 43.4572 867.312 43.4605 866.652 43.4436L866.626 44.4432ZM870.708 44.2974C871.385 44.2315 872.061 44.1447 872.735 44.0368L872.577 43.0493C871.923 43.154 871.268 43.2382 870.612 43.3022L870.708 44.2974ZM874.742 43.652C875.405 43.5035 876.065 43.3343 876.722 43.144L876.444 42.1835C875.807 42.368 875.166 42.5322 874.523 42.6762L874.742 43.652ZM878.665 42.5156C879.304 42.2871 879.939 42.0381 880.568 41.7685L880.174 40.8493C879.564 41.1109 878.948 41.3524 878.329 41.5741L878.665 42.5156ZM882.42 40.9068C882.724 40.754 883.026 40.5962 883.326 40.4333L882.85 39.5541C882.558 39.7121 882.265 39.8652 881.971 40.0134L882.42 40.9068ZM883.326 40.4333L884.216 39.9514L883.74 39.0721L882.85 39.5541L883.326 40.4333ZM885.996 38.9876L887.775 38.0237L887.299 37.1444L885.519 38.1083L885.996 38.9876ZM889.554 37.0599L891.334 36.096L890.858 35.2168L889.078 36.1806L889.554 37.0599ZM893.113 35.1322L894.893 34.1684L894.416 33.2891L892.637 34.2529L893.113 35.1322ZM896.672 33.2045L898.451 32.2407L897.975 31.3614L896.196 32.3252L896.672 33.2045ZM900.231 31.2768L902.01 30.313L901.534 29.4337L899.755 30.3975L900.231 31.2768ZM903.79 29.3491L905.569 28.3853L905.093 27.506L903.313 28.4698L903.79 29.3491ZM907.349 27.4214L908.238 26.9395L907.762 26.0602L906.872 26.5422L907.349 27.4214Z" fill="#F5F5F5"/>
</svg>
