<svg width="53" height="53" viewBox="0 0 53 53" fill="none" xmlns="http://www.w3.org/2000/svg">
<path fill-rule="evenodd" clip-rule="evenodd" d="M17.6453 0.146417C16.7261 0.316739 15.6693 0.717541 14.8874 1.19237C12.1645 2.8461 10.8208 5.5782 10.8178 9.46735C10.8158 11.8932 11.3235 13.8278 12.6145 16.314C15.1137 21.127 18.097 24.1896 24.7893 28.8126C25.7278 29.4609 26.3339 29.8128 26.5116 29.8128C27.0218 29.8128 31.697 26.4286 34.0976 24.3215C36.8922 21.8689 38.9325 19.24 40.4837 16.0939C42.0094 12.999 42.4952 10.4897 42.0942 7.77365C41.5407 4.025 39.7592 1.63977 36.6713 0.51305C33.2147 -0.748061 29.3839 0.367163 27.1214 3.29319C26.8081 3.69834 26.5191 4.03029 26.4791 4.0307C26.4391 4.03111 26.2548 3.81026 26.0694 3.53972C25.5549 2.78864 24.3308 1.64743 23.5268 1.16918C21.7807 0.130472 19.6922 -0.232641 17.6453 0.146417ZM17.767 1.81174C15.4546 2.33027 13.7137 3.87021 12.9844 6.04237C12.6782 6.95434 12.4167 8.55496 12.4164 9.51912C12.4157 11.7884 13.3124 14.432 15.0503 17.2841C17.1296 20.6961 20.4754 23.8951 25.617 27.3868L26.5041 27.9893L27.6154 27.2274C33.56 23.1516 36.7143 19.8746 38.9298 15.4726C40.4313 12.4895 40.8481 10.3631 40.4318 7.81072C40.2308 6.57808 40.0174 5.88188 39.5904 5.06464C38.4231 2.83099 35.9706 1.51417 33.287 1.68025C30.7371 1.83815 28.7906 3.28138 27.206 6.18919C27.1049 6.37473 26.9139 6.53863 26.7514 6.57943C26.2335 6.70937 25.9856 6.51616 25.3728 5.505C23.8309 2.96093 22.0338 1.7928 19.5095 1.69381C18.8183 1.66669 18.2387 1.70593 17.767 1.81174ZM36.4043 6.52403C36.0783 6.7804 36.0601 7.06099 36.2971 8.17311C36.5068 9.15683 36.4382 10.5382 36.1296 11.5381C35.5905 13.2864 33.8794 16.2224 32.5394 17.6987C31.3715 18.9854 31.2834 19.1925 31.6857 19.7038C31.8487 19.911 31.9928 19.9766 32.2847 19.9766C32.6127 19.9766 32.7461 19.8969 33.1941 19.433C34.5519 18.0274 35.8568 16.1428 36.7823 14.2511C38.0492 11.6616 38.3432 9.94498 37.8945 7.75895C37.7335 6.97515 37.6379 6.72801 37.424 6.54236C37.0895 6.25203 36.7577 6.24613 36.4043 6.52403ZM2.52505 15.8214C1.57299 16.0714 0.737333 16.7559 0.295945 17.647L0.0395223 18.1647L0.0101106 25.0659C-0.0223048 32.7055 -0.0140199 32.8286 0.626106 34.1286C0.811796 34.5056 1.1984 35.0715 1.48548 35.3863C1.77245 35.701 4.08854 37.6248 6.63248 39.6613C11.4321 43.5038 11.6867 43.7442 12.1446 44.8681C12.3437 45.3567 12.3636 45.6613 12.4134 49.0028L12.4671 52.6102L12.7117 52.8079C13.0521 53.0833 13.5096 53.06 13.8181 52.7515L14.0724 52.4974L14.0708 49.1017C14.0692 45.3696 14.0175 44.9257 13.4455 43.7275C13.2746 43.3695 12.8914 42.8096 12.5939 42.4834C12.2964 42.157 9.96453 40.2183 7.41211 38.1749C3.43112 34.9879 2.7156 34.3734 2.37923 33.8531C1.67852 32.7692 1.69654 32.9935 1.69654 25.3423C1.69654 18.5312 1.69944 18.4349 1.91009 18.1528C2.31585 17.6095 2.64684 17.4399 3.30177 17.4399C3.95661 17.4399 4.28749 17.6094 4.69346 18.1525C4.90007 18.429 4.90877 18.5946 4.95941 23.2196C4.99607 26.5576 5.04868 28.0834 5.13371 28.2741C5.33648 28.7288 5.85203 29.2455 6.82749 29.9716L7.755 30.662V31.1654C7.755 31.9443 8.12069 32.7838 8.72974 33.4031C9.01952 33.6978 10.4604 34.8743 11.9316 36.0174C14.8319 38.2712 14.9731 38.3438 15.4751 37.8418C15.7769 37.5402 15.8091 37.0703 15.5482 36.7746C15.4484 36.6616 14.1085 35.5909 12.5705 34.3953C9.55142 32.0483 9.41202 31.8977 9.41202 30.9833C9.41202 29.6857 10.8833 28.7746 12.0322 29.3607C12.2144 29.4538 14.0934 30.8036 16.2075 32.3605C19.978 35.1372 20.7886 35.8294 21.5297 36.9063C22.0149 37.6114 22.6398 38.9849 22.8954 39.9079C23.1163 40.7057 23.1268 40.9553 23.1812 46.6731L23.2377 52.6101L23.4823 52.8078C23.8255 53.0856 24.2802 53.06 24.5948 52.7454L24.8552 52.4852L24.8189 46.5071L24.7826 40.5292L24.5027 39.4938C23.9586 37.4816 22.5798 35.2052 21.1896 34.0237C20.6013 33.5237 13.0895 27.9839 12.9258 27.9295C12.8707 27.911 12.9723 27.477 13.1515 26.9649C13.5961 25.694 13.6131 24.8139 13.2088 23.9877C12.8667 23.2887 12.2667 22.7435 11.5429 22.4739L11.0173 22.2781L10.947 21.6554C10.8599 20.8841 10.597 20.3618 10.0161 19.8067C9.31115 19.133 8.97374 18.9999 7.96213 18.9962C7.47797 18.9944 6.98315 19.0291 6.86249 19.0732C6.66148 19.1468 6.63714 19.1082 6.57096 18.6092C6.48469 17.959 5.9764 16.9608 5.54817 16.6005C4.74824 15.9276 3.4218 15.5857 2.52505 15.8214ZM48.9151 15.8221C48.3726 15.963 47.5151 16.4845 47.2024 16.8638C46.7854 17.3697 46.4858 18.0475 46.415 18.6453C46.3601 19.1081 46.3355 19.1459 46.1365 19.0729C46.0164 19.029 45.522 18.9945 45.0379 18.9965C44.0069 19.0006 43.5803 19.179 42.9002 19.8904C42.339 20.4773 42.139 20.8935 42.0532 21.6528L41.9827 22.2758L41.494 22.461C40.7253 22.7523 40.2178 23.22 39.8419 23.9834C39.3944 24.8921 39.3971 25.6462 39.8527 26.9649C40.0295 27.477 40.135 27.9092 40.0868 27.9252C39.9271 27.9784 32.3614 33.5514 31.8104 34.0217C30.4163 35.2116 29.041 37.4831 28.4973 39.4938L28.2174 40.5292L28.1811 46.5071L28.1448 52.4852L28.4052 52.7454C28.7198 53.06 29.1745 53.0856 29.5177 52.8078L29.7623 52.6101L29.818 46.6731C29.8716 40.9462 29.8818 40.707 30.1038 39.9079C30.3605 38.9839 30.986 37.6103 31.4703 36.9063C32.2114 35.8294 33.0202 35.1389 36.7918 32.363C38.9063 30.8067 40.7856 29.4565 40.9678 29.3624C41.701 28.9845 42.7968 29.2754 43.2693 29.9733C43.4289 30.209 43.5367 30.5422 43.5654 30.8886C43.6469 31.871 43.5182 32.0147 40.3548 34.4696C38.6446 35.7969 37.4724 36.779 37.3846 36.958C37.1271 37.4834 37.5638 38.096 38.1958 38.096C38.394 38.096 43.404 34.2662 44.193 33.5116C44.8226 32.9095 45.1607 32.1962 45.2224 31.3402L45.2729 30.6413L46.1864 29.9612C47.1481 29.2453 47.6634 28.7281 47.8669 28.2741C47.9529 28.0824 48.0049 26.5752 48.0412 23.2197C48.0913 18.5941 48.0999 18.429 48.3065 18.1525C48.7124 17.6094 49.0434 17.4399 49.6982 17.4399C50.3532 17.4399 50.6842 17.6095 51.0899 18.1528C51.3006 18.4349 51.3035 18.5312 51.3035 25.3423C51.3035 32.9935 51.3215 32.7692 50.6208 33.8531C50.2844 34.3734 49.5689 34.9879 45.5879 38.1749C43.0355 40.2183 40.7036 42.157 40.4061 42.4834C40.1086 42.8096 39.7254 43.3695 39.5545 43.7275C38.9825 44.9257 38.9308 45.3696 38.9292 49.1017L38.9276 52.4974L39.1819 52.7515C39.4904 53.06 39.9479 53.0833 40.2883 52.8079L40.5329 52.6102L40.5866 49.0028C40.6364 45.6613 40.6563 45.3567 40.8554 44.8681C41.3133 43.7442 41.5679 43.5038 46.3675 39.6613C48.9115 37.6248 51.2276 35.701 51.5145 35.3863C51.8016 35.0715 52.1882 34.5056 52.3739 34.1286C53.014 32.8286 53.0223 32.7055 52.9899 25.0659L52.9605 18.1647L52.6066 17.5123C52.2122 16.7851 51.8802 16.4648 51.1233 16.0812C50.5686 15.8002 49.4875 15.6734 48.9151 15.8221ZM7.11032 20.7593C6.95508 20.8434 6.78037 21.0016 6.72196 21.1107C6.65609 21.2338 6.61581 22.5134 6.61581 24.484V27.659L6.94245 27.964C7.12213 28.1319 7.30274 28.2321 7.34386 28.1869C7.51971 27.9926 9.30846 22.3747 9.30846 22.0163C9.30846 21.1818 8.70727 20.5956 7.85857 20.6024C7.60225 20.6045 7.26556 20.6751 7.11032 20.7593ZM44.3439 20.8008C43.9323 21.0517 43.6915 21.501 43.6915 22.0185C43.6915 22.3125 45.0618 26.6909 45.6054 28.134C45.6763 28.3222 46.1081 28.0275 46.2647 27.684C46.4208 27.3415 46.4325 21.399 46.2775 21.1098C46.0069 20.6043 44.9447 20.4345 44.3439 20.8008ZM28.9855 21.0761C28.7292 21.2811 27.9086 21.9056 27.1618 22.4639C26.4151 23.0223 25.7742 23.5568 25.7378 23.6518C25.5321 24.1878 25.9261 24.7739 26.492 24.7739C26.8085 24.7739 27.704 24.1749 29.5303 22.7417C30.7214 21.8071 30.8633 21.5276 30.4279 20.9742C30.1043 20.5629 29.5809 20.5999 28.9855 21.0761ZM9.88665 25.9561C9.51165 27.0808 9.20489 28.0352 9.20489 28.077C9.20489 28.1187 9.40291 28.0497 9.64493 27.9236C9.88686 27.7975 10.3401 27.6434 10.652 27.5812L11.2191 27.4679L11.5557 26.4402C11.9045 25.3751 11.9172 25.0176 11.6229 24.5533C11.4644 24.3033 10.8954 23.9121 10.6893 23.9115C10.6228 23.9113 10.2617 24.8314 9.88665 25.9561ZM41.8589 24.1136C41.0896 24.5826 40.996 25.1072 41.4438 26.4402L41.7891 27.4678L42.4343 27.5994C42.7892 27.6718 43.2405 27.8305 43.4373 27.952C43.6341 28.0736 43.7951 28.1344 43.7951 28.0871C43.7951 27.8069 42.4102 23.9112 42.3107 23.9115C42.2442 23.9117 42.041 24.0026 41.8589 24.1136Z" fill="url(#paint0_linear_109_624)"/>
<defs>
<linearGradient id="paint0_linear_109_624" x1="12.5" y1="3.95021e-07" x2="46" y2="44.5" gradientUnits="userSpaceOnUse">
<stop stop-color="white"/>
<stop offset="1" stop-color="#36C2C2"/>
</linearGradient>
</defs>
</svg>
