<svg width="113" height="17" viewBox="0 0 113 17" fill="none" xmlns="http://www.w3.org/2000/svg">
<path d="M17.5963 16.4405C17.4087 16.4835 17.1793 16.5266 16.8875 16.5696C16.5956 16.6127 16.2828 16.6342 15.9284 16.6342C15.1987 16.6342 14.6775 16.5266 14.3648 16.2899C14.052 16.0316 13.9061 15.5582 13.9061 14.8696V8.69367C13.9061 8.13418 13.7601 7.74684 13.4683 7.48861C13.1764 7.23038 12.7803 7.07975 12.2799 7.07975C11.9672 7.07975 11.6544 7.1443 11.3625 7.2519C11.0915 7.35949 10.8413 7.51013 10.612 7.7038C10.6328 7.78987 10.6328 7.87595 10.6328 7.96203C10.6537 8.0481 10.6537 8.13418 10.6537 8.22025V16.462C10.4661 16.5051 10.2367 16.5481 9.94483 16.5911C9.65295 16.6342 9.34022 16.6557 8.98579 16.6557C8.25609 16.6557 7.73487 16.5481 7.42214 16.3114C7.10941 16.0532 6.96347 15.5797 6.96347 14.8911V8.69367C6.96347 8.13418 6.79668 7.74684 6.48395 7.48861C6.17122 7.23038 5.77509 7.07975 5.29557 7.07975C4.96199 7.07975 4.64926 7.1443 4.37823 7.2519C4.1072 7.35949 3.87786 7.44557 3.71107 7.55316V16.4405C3.54428 16.4835 3.31494 16.5266 3.04391 16.5696C2.75203 16.6127 2.4393 16.6342 2.08487 16.6342C1.35517 16.6342 0.833948 16.5266 0.521218 16.2899C0.16679 16.0532 0 15.5797 0 14.8696V7.16582C0 6.73544 0.0833948 6.39114 0.271033 6.11139C0.458672 5.85316 0.688007 5.59494 1.02159 5.35823C1.56365 4.97089 2.20996 4.66962 2.98137 4.43291C3.77362 4.21772 4.58672 4.08861 5.44151 4.08861C6.10867 4.08861 6.75498 4.1962 7.35959 4.38987C7.96421 4.58354 8.52712 4.86329 9.02749 5.27215C9.50701 4.94937 10.0491 4.66962 10.6745 4.45443C11.2792 4.21772 12.0089 4.11013 12.8428 4.11013C13.4683 4.11013 14.0729 4.1962 14.6358 4.36835C15.2196 4.51899 15.7199 4.77722 16.1577 5.14304C16.5956 5.48734 16.95 5.96076 17.2002 6.54177C17.4712 7.10127 17.6172 7.78987 17.6172 8.6076V16.4405H17.5963ZM31.5649 13.9873C31.5649 14.762 31.2314 15.3646 30.5642 15.7949C30.043 16.1177 29.4175 16.3759 28.6461 16.5696C27.8956 16.7633 27.0408 16.8709 26.1234 16.8709C25.2478 16.8709 24.4555 16.7633 23.7467 16.5696C23.0378 16.3759 22.4332 16.0962 21.912 15.6658C21.4116 15.257 21.0155 14.719 20.7236 14.0949C20.4526 13.4709 20.3066 12.6962 20.3066 11.7924V4.51899C20.4943 4.47595 20.7236 4.41139 21.0155 4.36835C21.3074 4.32532 21.6201 4.3038 21.9745 4.3038C22.7042 4.3038 23.2255 4.43291 23.5173 4.66962C23.8301 4.92785 23.9969 5.40127 23.9969 6.08987V11.7494C23.9969 12.5025 24.1845 13.0405 24.5598 13.3633C24.9351 13.6861 25.4563 13.8367 26.1234 13.8367C26.5404 13.8367 26.8948 13.7937 27.1659 13.7291C27.4578 13.643 27.6662 13.557 27.8122 13.4709V4.51899C27.979 4.47595 28.2083 4.41139 28.4793 4.36835C28.7712 4.32532 29.0839 4.3038 29.4384 4.3038C30.1681 4.3038 30.6893 4.43291 31.002 4.66962C31.3148 4.90633 31.4816 5.40127 31.4816 6.08987V13.9873H31.5649ZM36.4435 16.6557C35.7138 16.6557 35.1926 16.5481 34.8799 16.3114C34.5672 16.0532 34.4212 15.5797 34.4212 14.8911V0.21519C34.588 0.172152 34.8173 0.107595 35.0884 0.064557C35.4011 0.021519 35.7347 0 36.0891 0C36.798 0 37.3192 0.129114 37.6319 0.365823C37.9447 0.624051 38.1114 1.09747 38.1114 1.78608V16.4405C37.9238 16.4835 37.6945 16.5266 37.4026 16.5696C37.1315 16.6342 36.798 16.6557 36.4435 16.6557ZM44.6788 12.5025C44.6788 12.9759 44.8247 13.3203 45.1166 13.5354C45.4085 13.7291 45.8046 13.8367 46.3258 13.8367C46.576 13.8367 46.8262 13.8152 47.0972 13.7722C47.3683 13.7076 47.5976 13.6215 47.8061 13.557C47.952 13.7291 48.0771 13.9228 48.1605 14.138C48.2648 14.3532 48.3065 14.6114 48.3065 14.8911C48.3065 15.4722 48.0771 15.9456 47.6393 16.3329C47.2015 16.6987 46.4301 16.8924 45.3459 16.8924C43.9908 16.8924 42.9275 16.5696 42.1769 15.9456C41.4264 15.3 41.0303 14.2456 41.0303 12.8038V1.54937C41.2179 1.50633 41.4472 1.44177 41.7391 1.39873C42.031 1.33418 42.3437 1.29114 42.6773 1.29114C43.3862 1.29114 43.8865 1.42025 44.1993 1.7C44.512 1.95823 44.6788 2.41013 44.6788 3.09873V4.71266H48.0146C48.098 4.88481 48.1814 5.1 48.2648 5.35823C48.3482 5.61646 48.3899 5.87468 48.3899 6.15443C48.3899 6.69241 48.2648 7.07975 48.0354 7.29494C47.8061 7.53165 47.5142 7.63924 47.1389 7.63924H44.6996V12.5025H44.6788ZM50.8708 16.4835C50.6415 16.2684 50.4539 16.0101 50.3079 15.7304C50.1828 15.4506 50.1203 15.1278 50.1203 14.7835C50.1203 14.4608 50.1828 14.1595 50.3079 13.8797C50.4539 13.5785 50.6207 13.2987 50.85 13.0405L55.395 7.44557H50.5998C50.5164 7.27342 50.433 7.07975 50.3288 6.82152C50.2454 6.56329 50.2037 6.26203 50.2037 5.98228C50.2037 5.4443 50.3079 5.05696 50.5373 4.84177C50.7875 4.60506 51.0793 4.49747 51.4546 4.49747H59.1061C59.3354 4.71266 59.5231 4.97089 59.669 5.25063C59.8149 5.53038 59.8775 5.85316 59.8775 6.21899C59.8775 6.52025 59.8149 6.82152 59.669 7.12278C59.5439 7.40253 59.3771 7.68228 59.1686 7.94051L54.6862 13.557H59.7733C59.8775 13.7076 59.9609 13.9228 60.0443 14.181C60.1277 14.4392 60.1694 14.719 60.1694 14.9987C60.1694 15.5367 60.0443 15.9241 59.8149 16.1392C59.5856 16.3759 59.2937 16.4835 58.9185 16.4835H50.8708ZM67.0286 14.0519C67.383 14.0519 67.7375 14.0089 68.071 13.9443C68.4255 13.8582 68.6965 13.7506 68.8633 13.643V11.362L66.8827 11.5342C66.3614 11.5772 65.9445 11.7063 65.6317 11.9C65.319 12.0937 65.1731 12.3734 65.1731 12.7392C65.1731 13.1481 65.319 13.4494 65.6109 13.6861C65.8819 13.9443 66.3614 14.0519 67.0286 14.0519ZM66.8827 4.08861C67.7166 4.08861 68.488 4.17468 69.1552 4.36835C69.8432 4.54051 70.4269 4.79873 70.9273 5.16456C71.4068 5.53038 71.7821 6.0038 72.0323 6.56329C72.3033 7.12278 72.4493 7.78987 72.4493 8.56456V14.2025C72.4493 14.6329 72.345 14.9772 72.1157 15.257C71.9072 15.5152 71.657 15.7304 71.3443 15.9025C70.8439 16.2253 70.2393 16.462 69.5096 16.6342C68.7799 16.8063 67.9668 16.8924 67.0495 16.8924C65.3816 16.8924 64.0681 16.5696 63.0882 15.9241C62.1083 15.257 61.6079 14.2456 61.6079 12.9114C61.6079 11.7709 61.9415 10.8886 62.6087 10.2861C63.2758 9.68354 64.2766 9.31772 65.6526 9.16709L68.8633 8.82278V8.54304C68.8633 8.00506 68.6548 7.61772 68.2378 7.35949C67.8208 7.10127 67.2162 6.99367 66.424 6.99367C65.8194 6.99367 65.2148 7.05823 64.6101 7.20886C64.0264 7.35949 63.5052 7.53165 63.0465 7.72532C62.8589 7.5962 62.6921 7.40253 62.5461 7.12278C62.421 6.84304 62.3585 6.54177 62.3585 6.21899C62.3585 5.48734 62.7338 4.97089 63.4635 4.6481C63.9221 4.45443 64.4642 4.32532 65.0897 4.23924C65.6734 4.15316 66.278 4.08861 66.8827 4.08861ZM84.0203 4.21772C84.5207 4.21772 84.9376 4.32532 85.2712 4.56203C85.6256 4.79873 85.8133 5.18608 85.8133 5.74557C85.8133 6.0038 85.7507 6.36962 85.6256 6.86456C85.5214 7.35949 85.3546 7.91899 85.167 8.56456C84.9793 9.18861 84.75 9.87722 84.4998 10.6089C84.2496 11.319 83.9995 12.0291 83.7284 12.7392C83.4782 13.4278 83.2072 14.0519 82.957 14.6544C82.7068 15.257 82.4566 15.7519 82.2482 16.1608C82.0605 16.3114 81.7478 16.4405 81.3517 16.5266C80.9555 16.6342 80.5386 16.6987 80.0382 16.6987C79.4753 16.6987 78.9958 16.6342 78.5788 16.4835C78.1827 16.3329 77.8908 16.0962 77.7031 15.7519C77.5572 15.4722 77.3904 15.0848 77.1611 14.5684C76.9734 14.0734 76.7441 13.5139 76.5148 12.8899C76.2854 12.2658 76.0561 11.5987 75.8059 10.8886C75.5557 10.1785 75.3264 9.46835 75.0971 8.75823C74.8677 8.0481 74.6592 7.35949 74.4716 6.73544C74.284 6.08987 74.1172 5.50886 74.0129 4.99241C74.2006 4.77722 74.4716 4.58354 74.8052 4.43291C75.1596 4.26076 75.5349 4.17468 75.9518 4.17468C76.4731 4.17468 76.89 4.28228 77.2028 4.51899C77.5155 4.73418 77.7657 5.14304 77.9325 5.74557L78.9958 9.68354C79.1834 10.3722 79.3919 11.0823 79.5795 11.7494C79.7672 12.4165 79.9131 12.9329 80.0173 13.3203H80.1424C80.5177 12.0291 80.893 10.6089 81.2474 9.08101C81.6227 7.55316 81.9563 6.04684 82.2899 4.58354C82.7902 4.36835 83.374 4.21772 84.0203 4.21772ZM99.4692 10.4582C99.4692 11.4481 99.3232 12.3304 99.0314 13.1266C98.7395 13.9013 98.3225 14.5684 97.7804 15.1278C97.2384 15.6873 96.6129 16.0962 95.8415 16.3975C95.091 16.6987 94.2362 16.8494 93.298 16.8494C92.3598 16.8494 91.505 16.6987 90.7336 16.419C89.983 16.1177 89.3159 15.6873 88.7738 15.1494C88.2317 14.5899 87.8356 13.9443 87.5437 13.1481C87.2518 12.3519 87.1059 11.4481 87.1059 10.4582C87.1059 9.48987 87.2518 8.62911 87.5437 7.83291C87.8565 7.03671 88.2734 6.36962 88.7947 5.81013C89.3367 5.25063 90.0039 4.84177 90.7544 4.54051C91.5258 4.23924 92.3806 4.08861 93.298 4.08861C94.2153 4.08861 95.0493 4.23924 95.8207 4.54051C96.5712 4.84177 97.2175 5.27215 97.7596 5.83165C98.3017 6.39114 98.7186 7.03671 99.0105 7.83291C99.3232 8.62911 99.4692 9.48987 99.4692 10.4582ZM107.246 4.08861C107.621 4.08861 107.955 4.13165 108.288 4.1962C108.622 4.23924 108.935 4.32532 109.206 4.41139V0.21519C109.372 0.172152 109.623 0.107595 109.914 0.064557C110.206 0.021519 110.519 0 110.873 0C111.603 0 112.124 0.129114 112.416 0.365823C112.729 0.624051 112.896 1.09747 112.896 1.78608V13.9443C112.896 14.3532 112.812 14.6759 112.646 14.9772C112.479 15.2354 112.229 15.4937 111.874 15.7304C111.415 16.0101 110.832 16.2684 110.123 16.5051C109.414 16.7418 108.601 16.8494 107.684 16.8494C105.661 16.8494 104.056 16.3329 102.868 15.2785C101.7 14.2241 101.116 12.6316 101.116 10.5013C101.116 9.4038 101.262 8.45696 101.575 7.66076C101.888 6.86456 102.325 6.19747 102.888 5.65949C103.43 5.12152 104.077 4.73418 104.827 4.47595C105.578 4.21772 106.391 4.08861 107.246 4.08861ZM109.226 7.46709C109.018 7.35949 108.789 7.27342 108.518 7.20886C108.267 7.12278 108.017 7.07975 107.746 7.07975C106.87 7.07975 106.182 7.35949 105.661 7.89747C105.14 8.45696 104.89 9.31772 104.89 10.5228C104.89 11.6633 105.14 12.5025 105.62 13.0405C106.12 13.557 106.808 13.8152 107.684 13.8152C108.017 13.8152 108.33 13.7722 108.58 13.7076C108.851 13.6215 109.08 13.5354 109.226 13.4278V7.46709ZM92.7976 11.5342L92.2972 14.719H92.7976L95.5705 9.8557C95.5705 9.8557 95.633 9.7481 95.633 9.66203C95.633 9.51139 95.5288 9.4038 95.3828 9.4038H93.7775L94.2779 6.21899H93.7775L91.0046 11.0823C91.0046 11.0823 90.9421 11.1899 90.9421 11.2759C90.9421 11.4266 91.0463 11.5342 91.1923 11.5342H92.7976Z" fill="#F5F5F5"/>
</svg>
